M48
; DRILL file {KiCad 7.0.5} date Mon Sep 18 23:31:06 2023
; FORMAT={-:-/ absolute / metric / decimal}
; #@! TF.CreationDate,2023-09-18T23:31:06+09:00
; #@! TF.GenerationSoftware,Kicad,Pcbnew,7.0.5
; #@! TF.FileFunction,MixedPlating,1,2
FMAT,2
METRIC
; #@! TA.AperFunction,Plated,PTH,ViaDrill
T1C0.300
; #@! TA.AperFunction,Plated,PTH,ComponentDrill
T2C0.700
; #@! TA.AperFunction,Plated,PTH,ComponentDrill
T3C0.762
; #@! TA.AperFunction,Plated,PTH,ComponentDrill
T4C0.800
; #@! TA.AperFunction,Plated,PTH,ComponentDrill
T5C0.900
; #@! TA.AperFunction,Plated,PTH,ComponentDrill
T6C1.000
%
G90
G05
T1
X2.54Y2.54
X4.63Y26.41
X5.08Y43.18
X5.08Y38.1
X5.08Y33.02
X6.35Y54.61
X6.35Y46.99
X8.89Y44.45
X8.89Y15.24
X8.89Y11.43
X8.89Y2.54
X10.064Y43.084
X10.16Y54.61
X11.43Y33.02
X11.43Y26.67
X12.446Y38.1
X12.7Y22.86
X12.7Y19.05
X12.7Y15.24
X12.7Y12.065
X15.24Y29.21
X15.24Y26.67
X15.24Y21.59
X17.78Y11.43
X19.761Y38.1
X20.32Y53.34
X20.32Y48.26
X20.32Y43.18
X20.32Y32.09
X20.32Y25.4
X20.32Y20.32
X20.32Y15.24
X20.32Y11.43
X20.32Y2.54
T2
X15.24Y54.61
X15.24Y46.99
X17.78Y54.61
X17.78Y46.99
T3
X9.144Y40.64
X9.144Y38.1
X9.144Y35.56
X9.144Y33.02
X9.144Y30.48
X9.144Y27.94
X9.144Y25.4
X9.144Y22.86
X9.144Y20.32
X9.144Y17.78
X16.764Y40.64
X16.764Y38.1
X16.764Y35.56
X16.764Y33.02
X16.764Y30.48
X16.764Y27.94
X16.764Y25.4
X16.764Y22.86
X16.764Y20.32
X16.764Y17.78
T4
X14.0Y43.82
X16.5Y43.82
T5
X8.89Y50.8
X11.43Y50.8
T6
X2.54Y53.34
X2.54Y50.8
X2.54Y48.26
X2.54Y45.72
X2.54Y43.18
X2.54Y40.64
X2.54Y38.1
X2.54Y35.56
X2.54Y33.02
X2.54Y30.48
X2.54Y27.94
X2.54Y25.4
X2.54Y22.86
X2.54Y20.32
X2.54Y17.78
X2.54Y15.24
X2.54Y12.7
X2.54Y10.16
X2.54Y7.62
X2.54Y5.08
X6.35Y8.128
X8.89Y8.128
X11.43Y8.128
X13.97Y8.128
X16.51Y8.128
X19.05Y8.128
X22.86Y53.34
X22.86Y50.8
X22.86Y48.26
X22.86Y45.72
X22.86Y43.18
X22.86Y40.64
X22.86Y38.1
X22.86Y35.56
X22.86Y33.02
X22.86Y30.48
X22.86Y27.94
X22.86Y25.4
X22.86Y22.86
X22.86Y20.32
X22.86Y17.78
X22.86Y15.24
X22.86Y12.7
X22.86Y10.16
X22.86Y7.62
X22.86Y5.08
T0
M30
