%TF.GenerationSoftware,KiCad,Pcbnew,7.0.5*%
%TF.CreationDate,2023-09-18T23:30:41+09:00*%
%TF.ProjectId,PIC18F47QXX_SD,50494331-3846-4343-9751-58585f53442e,1.1*%
%TF.SameCoordinates,PX60e4b00PY791ddc0*%
%TF.FileFunction,Copper,L1,Top*%
%TF.FilePolarity,Positive*%
%FSLAX46Y46*%
G04 Gerber Fmt 4.6, Leading zero omitted, Abs format (unit mm)*
G04 Created by KiCad (PCBNEW 7.0.5) date 2023-09-18 23:30:41*
%MOMM*%
%LPD*%
G01*
G04 APERTURE LIST*
%TA.AperFunction,ComponentPad*%
%ADD10C,1.400000*%
%TD*%
%TA.AperFunction,ComponentPad*%
%ADD11O,1.400000X1.400000*%
%TD*%
%TA.AperFunction,ComponentPad*%
%ADD12C,1.600000*%
%TD*%
%TA.AperFunction,ComponentPad*%
%ADD13R,1.800000X1.800000*%
%TD*%
%TA.AperFunction,ComponentPad*%
%ADD14C,1.800000*%
%TD*%
%TA.AperFunction,ComponentPad*%
%ADD15C,1.270000*%
%TD*%
%TA.AperFunction,ComponentPad*%
%ADD16R,1.700000X1.700000*%
%TD*%
%TA.AperFunction,ComponentPad*%
%ADD17O,1.700000X1.700000*%
%TD*%
%TA.AperFunction,ViaPad*%
%ADD18C,0.605000*%
%TD*%
%TA.AperFunction,Conductor*%
%ADD19C,0.152400*%
%TD*%
%TA.AperFunction,Conductor*%
%ADD20C,0.400000*%
%TD*%
G04 APERTURE END LIST*
D10*
X17780000Y46990000D03*
D11*
X17780000Y54610000D03*
D12*
X14000000Y43820000D03*
X16500000Y43820000D03*
D13*
X8890000Y50800000D03*
D14*
X11430000Y50800000D03*
D10*
X15240000Y46990000D03*
D11*
X15240000Y54610000D03*
D15*
X9144000Y40640000D03*
X9144000Y38100000D03*
X9144000Y35560000D03*
X9144000Y33020000D03*
X9144000Y30480000D03*
X9144000Y27940000D03*
X9144000Y25400000D03*
X9144000Y22860000D03*
X9144000Y20320000D03*
X9144000Y17780000D03*
X16764000Y17780000D03*
X16764000Y20320000D03*
X16764000Y22860000D03*
X16764000Y25400000D03*
X16764000Y27940000D03*
X16764000Y30480000D03*
X16764000Y33020000D03*
X16764000Y35560000D03*
X16764000Y38100000D03*
X16764000Y40640000D03*
D16*
X19050000Y8128000D03*
D17*
X16510000Y8128000D03*
X13970000Y8128000D03*
X11430000Y8128000D03*
X8890000Y8128000D03*
X6350000Y8128000D03*
D16*
X2540000Y53340000D03*
D17*
X2540000Y50800000D03*
X2540000Y48260000D03*
X2540000Y45720000D03*
X2540000Y43180000D03*
X2540000Y40640000D03*
X2540000Y38100000D03*
X2540000Y35560000D03*
X2540000Y33020000D03*
X2540000Y30480000D03*
X2540000Y27940000D03*
X2540000Y25400000D03*
X2540000Y22860000D03*
X2540000Y20320000D03*
X2540000Y17780000D03*
X2540000Y15240000D03*
X2540000Y12700000D03*
X2540000Y10160000D03*
X2540000Y7620000D03*
X2540000Y5080000D03*
D16*
X22860000Y53340000D03*
D17*
X22860000Y50800000D03*
X22860000Y48260000D03*
X22860000Y45720000D03*
X22860000Y43180000D03*
X22860000Y40640000D03*
X22860000Y38100000D03*
X22860000Y35560000D03*
X22860000Y33020000D03*
X22860000Y30480000D03*
X22860000Y27940000D03*
X22860000Y25400000D03*
X22860000Y22860000D03*
X22860000Y20320000D03*
X22860000Y17780000D03*
X22860000Y15240000D03*
X22860000Y12700000D03*
X22860000Y10160000D03*
X22860000Y7620000D03*
X22860000Y5080000D03*
D18*
X19761200Y38100000D03*
X20320000Y48260000D03*
X12700000Y12065000D03*
X10064455Y43084455D03*
X8890000Y11430000D03*
X6350000Y54610000D03*
X12700000Y22860000D03*
X8890000Y15240000D03*
X20320000Y15240000D03*
X5080000Y38100000D03*
X10160000Y54610000D03*
X12700000Y19050000D03*
X5080000Y43180000D03*
X15240000Y29210000D03*
X20320000Y53340000D03*
X12700000Y15240000D03*
X20320000Y25400000D03*
X20320000Y32090000D03*
X15240000Y26670000D03*
X17780000Y11430000D03*
X11430000Y26670000D03*
X15240000Y21590000D03*
X2540000Y2540000D03*
X20320000Y20320000D03*
X5080000Y33020000D03*
X8890000Y2540000D03*
X20320000Y11430000D03*
X11430000Y33020000D03*
X6350000Y46990000D03*
X20320000Y2540000D03*
X12446000Y38100000D03*
X20320000Y43180000D03*
X4630000Y26410000D03*
X8890000Y44450000D03*
D19*
X11430000Y8128000D02*
X11430000Y18034000D01*
X11430000Y18034000D02*
X9144000Y20320000D01*
D20*
X3550000Y26410000D02*
X4630000Y26410000D01*
X21250000Y32090000D02*
X20320000Y32090000D01*
X22860000Y30480000D02*
X21250000Y32090000D01*
X2540000Y25400000D02*
X3550000Y26410000D01*
D19*
X13970000Y8128000D02*
X13970000Y17526000D01*
X13970000Y17526000D02*
X16764000Y20320000D01*
X16510000Y12650000D02*
X18220000Y14360000D01*
X18220000Y21404000D02*
X16764000Y22860000D01*
X18220000Y14360000D02*
X18220000Y21404000D01*
X16510000Y8128000D02*
X16510000Y12650000D01*
D20*
X6690000Y27980000D02*
X6690000Y44380000D01*
X17780000Y46990000D02*
X15240000Y46990000D01*
X20050000Y40640000D02*
X20860000Y39830000D01*
X6690000Y10328000D02*
X6690000Y27980000D01*
X9300000Y46990000D02*
X12700000Y46990000D01*
X6690000Y44380000D02*
X9300000Y46990000D01*
X20860000Y35020000D02*
X22860000Y33020000D01*
X16500000Y45710000D02*
X17780000Y46990000D01*
X15240000Y46990000D02*
X12700000Y46990000D01*
X16764000Y43556000D02*
X16500000Y43820000D01*
X8890000Y8128000D02*
X6690000Y10328000D01*
X16500000Y43820000D02*
X16500000Y45710000D01*
X2540000Y27940000D02*
X6650000Y27940000D01*
X16764000Y40640000D02*
X20050000Y40640000D01*
X20860000Y39830000D02*
X20860000Y35020000D01*
X16764000Y40640000D02*
X16764000Y43556000D01*
D19*
X6650000Y27940000D02*
X6690000Y27980000D01*
X9450000Y44450000D02*
X8890000Y44450000D01*
X16764000Y38100000D02*
X15800000Y38100000D01*
X15800000Y38100000D02*
X9450000Y44450000D01*
%TA.AperFunction,Conductor*%
G36*
X24132694Y57357265D02*
G01*
X24287546Y57343717D01*
X24308823Y57339966D01*
X24451111Y57301840D01*
X24471420Y57294447D01*
X24604914Y57232198D01*
X24623633Y57221391D01*
X24744299Y57136900D01*
X24760857Y57123006D01*
X24865005Y57018858D01*
X24878899Y57002300D01*
X24963390Y56881634D01*
X24974197Y56862915D01*
X25036446Y56729421D01*
X25043839Y56709111D01*
X25081963Y56566831D01*
X25085716Y56545545D01*
X25099264Y56390700D01*
X25099500Y56385294D01*
X25099500Y1272707D01*
X25099264Y1267301D01*
X25085716Y1112456D01*
X25081963Y1091170D01*
X25043839Y948890D01*
X25036446Y928580D01*
X24974197Y795086D01*
X24963390Y776367D01*
X24878899Y655701D01*
X24865005Y639143D01*
X24760857Y534995D01*
X24744299Y521101D01*
X24623633Y436610D01*
X24604914Y425803D01*
X24471420Y363554D01*
X24451110Y356161D01*
X24308830Y318037D01*
X24287544Y314284D01*
X24175205Y304455D01*
X24132694Y300736D01*
X24127294Y300500D01*
X1272706Y300500D01*
X1267305Y300736D01*
X1219615Y304909D01*
X1112455Y314284D01*
X1091169Y318037D01*
X948889Y356161D01*
X928579Y363554D01*
X795085Y425803D01*
X776366Y436610D01*
X655700Y521101D01*
X639142Y534995D01*
X534994Y639143D01*
X521100Y655701D01*
X436609Y776367D01*
X425802Y795086D01*
X363553Y928580D01*
X356160Y948890D01*
X318034Y1091177D01*
X314283Y1112457D01*
X300736Y1267301D01*
X300500Y1272707D01*
X300500Y5080000D01*
X1184341Y5080000D01*
X1204936Y4844597D01*
X1204938Y4844587D01*
X1266094Y4616345D01*
X1266096Y4616341D01*
X1266097Y4616337D01*
X1365965Y4402171D01*
X1365965Y4402170D01*
X1365967Y4402166D01*
X1474281Y4247479D01*
X1501505Y4208599D01*
X1668599Y4041505D01*
X1765384Y3973736D01*
X1862165Y3905968D01*
X1862167Y3905967D01*
X1862170Y3905965D01*
X2076337Y3806097D01*
X2304592Y3744937D01*
X2492918Y3728461D01*
X2539999Y3724341D01*
X2540000Y3724341D01*
X2540001Y3724341D01*
X2579234Y3727774D01*
X2775408Y3744937D01*
X3003663Y3806097D01*
X3217830Y3905965D01*
X3411401Y4041505D01*
X3578495Y4208599D01*
X3714035Y4402170D01*
X3813903Y4616337D01*
X3875063Y4844592D01*
X3895659Y5080000D01*
X3875063Y5315408D01*
X3813903Y5543663D01*
X3714035Y5757829D01*
X3578495Y5951401D01*
X3578494Y5951403D01*
X3411402Y6118494D01*
X3411401Y6118495D01*
X3225842Y6248425D01*
X3225841Y6248426D01*
X3182216Y6303003D01*
X3175024Y6372502D01*
X3206546Y6434856D01*
X3225836Y6451572D01*
X3411401Y6581505D01*
X3578495Y6748599D01*
X3714035Y6942170D01*
X3813903Y7156337D01*
X3875063Y7384592D01*
X3895659Y7620000D01*
X3875063Y7855408D01*
X3828626Y8028715D01*
X3813905Y8083656D01*
X3813904Y8083657D01*
X3813903Y8083663D01*
X3714035Y8297829D01*
X3686017Y8337844D01*
X3578494Y8491403D01*
X3411402Y8658494D01*
X3411396Y8658499D01*
X3225842Y8788425D01*
X3182217Y8843002D01*
X3175023Y8912500D01*
X3206546Y8974855D01*
X3225842Y8991575D01*
X3284980Y9032984D01*
X3411401Y9121505D01*
X3578495Y9288599D01*
X3714035Y9482170D01*
X3813903Y9696337D01*
X3875063Y9924592D01*
X3895659Y10160000D01*
X3875063Y10395408D01*
X3813903Y10623663D01*
X3714035Y10837829D01*
X3578495Y11031401D01*
X3578494Y11031403D01*
X3411402Y11198494D01*
X3411401Y11198495D01*
X3225842Y11328425D01*
X3225841Y11328426D01*
X3182216Y11383003D01*
X3175024Y11452502D01*
X3206546Y11514856D01*
X3225836Y11531572D01*
X3411401Y11661505D01*
X3578495Y11828599D01*
X3714035Y12022170D01*
X3813903Y12236337D01*
X3875063Y12464592D01*
X3895659Y12700000D01*
X3875063Y12935408D01*
X3813903Y13163663D01*
X3714035Y13377829D01*
X3578495Y13571401D01*
X3578494Y13571403D01*
X3411402Y13738494D01*
X3411396Y13738499D01*
X3225842Y13868425D01*
X3182217Y13923002D01*
X3175023Y13992500D01*
X3206546Y14054855D01*
X3225842Y14071575D01*
X3248026Y14087109D01*
X3411401Y14201505D01*
X3578495Y14368599D01*
X3714035Y14562170D01*
X3813903Y14776337D01*
X3875063Y15004592D01*
X3895659Y15240000D01*
X3875063Y15475408D01*
X3813903Y15703663D01*
X3714035Y15917829D01*
X3578495Y16111401D01*
X3578494Y16111403D01*
X3411402Y16278494D01*
X3411401Y16278495D01*
X3225842Y16408425D01*
X3225841Y16408426D01*
X3182216Y16463003D01*
X3175024Y16532502D01*
X3206546Y16594856D01*
X3225836Y16611572D01*
X3411401Y16741505D01*
X3578495Y16908599D01*
X3714035Y17102170D01*
X3813903Y17316337D01*
X3875063Y17544592D01*
X3895659Y17780000D01*
X3875063Y18015408D01*
X3813903Y18243663D01*
X3714035Y18457829D01*
X3578495Y18651401D01*
X3578494Y18651403D01*
X3411402Y18818494D01*
X3411396Y18818499D01*
X3225842Y18948425D01*
X3182217Y19003002D01*
X3175023Y19072500D01*
X3206546Y19134855D01*
X3225842Y19151575D01*
X3328090Y19223170D01*
X3411401Y19281505D01*
X3578495Y19448599D01*
X3714035Y19642170D01*
X3813903Y19856337D01*
X3875063Y20084592D01*
X3895659Y20320000D01*
X3875063Y20555408D01*
X3813903Y20783663D01*
X3714035Y20997829D01*
X3650715Y21088261D01*
X3578494Y21191403D01*
X3411402Y21358494D01*
X3411401Y21358495D01*
X3225842Y21488425D01*
X3225841Y21488426D01*
X3182216Y21543003D01*
X3175024Y21612502D01*
X3206546Y21674856D01*
X3225836Y21691572D01*
X3411401Y21821505D01*
X3578495Y21988599D01*
X3714035Y22182170D01*
X3813903Y22396337D01*
X3875063Y22624592D01*
X3895659Y22860000D01*
X3875063Y23095408D01*
X3813903Y23323663D01*
X3714035Y23537829D01*
X3650715Y23628261D01*
X3578494Y23731403D01*
X3411402Y23898494D01*
X3411401Y23898495D01*
X3225405Y24028731D01*
X3181781Y24083308D01*
X3174588Y24152807D01*
X3206110Y24215161D01*
X3225405Y24231881D01*
X3411082Y24361895D01*
X3578105Y24528918D01*
X3713600Y24722422D01*
X3813429Y24936508D01*
X3813432Y24936514D01*
X3870636Y25150000D01*
X2973686Y25150000D01*
X2999493Y25190156D01*
X3040000Y25328111D01*
X3040000Y25471889D01*
X2999493Y25609844D01*
X2973686Y25650000D01*
X3870636Y25650000D01*
X3870635Y25650001D01*
X3813432Y25863487D01*
X3813429Y25863493D01*
X3713600Y26077578D01*
X3713599Y26077580D01*
X3578113Y26271074D01*
X3578108Y26271080D01*
X3411078Y26438110D01*
X3225405Y26568121D01*
X3181780Y26622698D01*
X3174588Y26692196D01*
X3206110Y26754551D01*
X3225406Y26771270D01*
X3225843Y26771576D01*
X3411401Y26901505D01*
X3578495Y27068599D01*
X3661136Y27186624D01*
X3715713Y27230248D01*
X3762711Y27239500D01*
X5865500Y27239500D01*
X5932539Y27219815D01*
X5978294Y27167011D01*
X5989500Y27115500D01*
X5989500Y10351049D01*
X5989387Y10347304D01*
X5985642Y10285397D01*
X5985642Y10285395D01*
X5996821Y10224388D01*
X5997384Y10220687D01*
X6004859Y10159130D01*
X6004860Y10159126D01*
X6008451Y10149657D01*
X6014474Y10128054D01*
X6016304Y10118070D01*
X6041759Y10061510D01*
X6043189Y10058059D01*
X6065182Y10000070D01*
X6065183Y10000069D01*
X6070936Y9991734D01*
X6081961Y9972187D01*
X6086120Y9962945D01*
X6086124Y9962940D01*
X6124371Y9914122D01*
X6126591Y9911104D01*
X6161812Y9860076D01*
X6161816Y9860072D01*
X6161817Y9860071D01*
X6208250Y9818936D01*
X6210941Y9816402D01*
X6536691Y9490652D01*
X6563681Y9463662D01*
X6597166Y9402339D01*
X6600000Y9375981D01*
X6600000Y8563502D01*
X6492315Y8612680D01*
X6385763Y8628000D01*
X6314237Y8628000D01*
X6207685Y8612680D01*
X6099999Y8563502D01*
X6099999Y9458636D01*
X6099998Y9458636D01*
X5886505Y9401430D01*
X5672422Y9301601D01*
X5672420Y9301600D01*
X5478926Y9166114D01*
X5478920Y9166109D01*
X5311891Y8999080D01*
X5311886Y8999074D01*
X5176400Y8805580D01*
X5176399Y8805578D01*
X5076570Y8591493D01*
X5076567Y8591487D01*
X5019364Y8378001D01*
X5019364Y8378000D01*
X5916314Y8378000D01*
X5890507Y8337844D01*
X5850000Y8199889D01*
X5850000Y8056111D01*
X5890507Y7918156D01*
X5916314Y7878000D01*
X5019364Y7878000D01*
X5076567Y7664514D01*
X5076570Y7664508D01*
X5176399Y7450422D01*
X5311894Y7256918D01*
X5478917Y7089895D01*
X5672421Y6954400D01*
X5886507Y6854571D01*
X5886516Y6854567D01*
X6099998Y6797365D01*
X6099999Y6797366D01*
X6099999Y7692499D01*
X6207685Y7643320D01*
X6314237Y7628000D01*
X6385763Y7628000D01*
X6492315Y7643320D01*
X6600000Y7692499D01*
X6600000Y6797367D01*
X6813483Y6854567D01*
X6813492Y6854571D01*
X7027578Y6954400D01*
X7221082Y7089895D01*
X7388105Y7256918D01*
X7518119Y7442595D01*
X7572696Y7486219D01*
X7642195Y7493412D01*
X7704549Y7461890D01*
X7721269Y7442595D01*
X7851505Y7256599D01*
X8018599Y7089505D01*
X8115384Y7021735D01*
X8212165Y6953968D01*
X8212167Y6953967D01*
X8212170Y6953965D01*
X8426337Y6854097D01*
X8654592Y6792937D01*
X8831034Y6777500D01*
X8889999Y6772341D01*
X8890000Y6772341D01*
X8890001Y6772341D01*
X8948966Y6777500D01*
X9125408Y6792937D01*
X9353663Y6854097D01*
X9567830Y6953965D01*
X9761401Y7089505D01*
X9928495Y7256599D01*
X10058424Y7442158D01*
X10113002Y7485783D01*
X10182500Y7492977D01*
X10244855Y7461454D01*
X10261575Y7442158D01*
X10391281Y7256918D01*
X10391505Y7256599D01*
X10558599Y7089505D01*
X10655384Y7021735D01*
X10752165Y6953968D01*
X10752167Y6953967D01*
X10752170Y6953965D01*
X10966337Y6854097D01*
X11194592Y6792937D01*
X11371034Y6777500D01*
X11429999Y6772341D01*
X11430000Y6772341D01*
X11430001Y6772341D01*
X11488966Y6777500D01*
X11665408Y6792937D01*
X11893663Y6854097D01*
X12107830Y6953965D01*
X12301401Y7089505D01*
X12468495Y7256599D01*
X12598424Y7442158D01*
X12653002Y7485783D01*
X12722500Y7492977D01*
X12784855Y7461454D01*
X12801575Y7442158D01*
X12931281Y7256918D01*
X12931505Y7256599D01*
X13098599Y7089505D01*
X13195384Y7021735D01*
X13292165Y6953968D01*
X13292167Y6953967D01*
X13292170Y6953965D01*
X13506337Y6854097D01*
X13734592Y6792937D01*
X13911034Y6777500D01*
X13969999Y6772341D01*
X13970000Y6772341D01*
X13970001Y6772341D01*
X14028966Y6777500D01*
X14205408Y6792937D01*
X14433663Y6854097D01*
X14647830Y6953965D01*
X14841401Y7089505D01*
X15008495Y7256599D01*
X15138424Y7442158D01*
X15193002Y7485783D01*
X15262500Y7492977D01*
X15324855Y7461454D01*
X15341575Y7442158D01*
X15471281Y7256918D01*
X15471505Y7256599D01*
X15638599Y7089505D01*
X15735384Y7021735D01*
X15832165Y6953968D01*
X15832167Y6953967D01*
X15832170Y6953965D01*
X16046337Y6854097D01*
X16274592Y6792937D01*
X16451034Y6777500D01*
X16509999Y6772341D01*
X16510000Y6772341D01*
X16510001Y6772341D01*
X16568966Y6777500D01*
X16745408Y6792937D01*
X16973663Y6854097D01*
X17187830Y6953965D01*
X17381401Y7089505D01*
X17503329Y7211434D01*
X17564648Y7244916D01*
X17634340Y7239932D01*
X17690274Y7198061D01*
X17707189Y7167083D01*
X17756202Y7035672D01*
X17756206Y7035665D01*
X17842452Y6920456D01*
X17842455Y6920453D01*
X17957664Y6834207D01*
X17957671Y6834203D01*
X18092517Y6783909D01*
X18092516Y6783909D01*
X18099444Y6783165D01*
X18152127Y6777500D01*
X19947872Y6777501D01*
X20007483Y6783909D01*
X20142331Y6834204D01*
X20257546Y6920454D01*
X20343796Y7035669D01*
X20394091Y7170517D01*
X20400500Y7230127D01*
X20400499Y9025872D01*
X20394091Y9085483D01*
X20392810Y9088917D01*
X20343797Y9220329D01*
X20343793Y9220336D01*
X20257547Y9335545D01*
X20257544Y9335548D01*
X20142335Y9421794D01*
X20142328Y9421798D01*
X20007482Y9472092D01*
X20007483Y9472092D01*
X19947883Y9478499D01*
X19947881Y9478500D01*
X19947873Y9478500D01*
X19947864Y9478500D01*
X18152129Y9478500D01*
X18152123Y9478499D01*
X18092516Y9472092D01*
X17957671Y9421798D01*
X17957664Y9421794D01*
X17842455Y9335548D01*
X17842452Y9335545D01*
X17756206Y9220336D01*
X17756203Y9220331D01*
X17707189Y9088917D01*
X17665317Y9032984D01*
X17599853Y9008567D01*
X17531580Y9023419D01*
X17503326Y9044570D01*
X17381402Y9166494D01*
X17381395Y9166499D01*
X17187832Y9302034D01*
X17158294Y9315808D01*
X17105855Y9361981D01*
X17086700Y9428190D01*
X17086700Y12359762D01*
X17106385Y12426801D01*
X17123014Y12447438D01*
X18598191Y13922616D01*
X18604281Y13927957D01*
X18631307Y13948693D01*
X18723746Y14069162D01*
X18781856Y14209451D01*
X18796700Y14322203D01*
X18796700Y14322204D01*
X18801676Y14360000D01*
X18797228Y14393782D01*
X18796700Y14401849D01*
X18796700Y21362154D01*
X18797228Y21370218D01*
X18801676Y21404000D01*
X18781856Y21554549D01*
X18723746Y21694838D01*
X18684254Y21746305D01*
X18653260Y21786698D01*
X18653252Y21786708D01*
X18650043Y21790889D01*
X18631307Y21815307D01*
X18622062Y21822401D01*
X18604283Y21836044D01*
X18598180Y21841397D01*
X17915248Y22524329D01*
X17881763Y22585652D01*
X17883665Y22645952D01*
X17884948Y22650458D01*
X17904365Y22860000D01*
X17884948Y23069542D01*
X17827359Y23271947D01*
X17733558Y23460325D01*
X17606740Y23628259D01*
X17451223Y23770031D01*
X17451221Y23770033D01*
X17272307Y23880812D01*
X17272301Y23880815D01*
X17117648Y23940727D01*
X17076076Y23956832D01*
X16869220Y23995500D01*
X16658780Y23995500D01*
X16451924Y23956832D01*
X16451921Y23956832D01*
X16451921Y23956831D01*
X16255698Y23880815D01*
X16255692Y23880812D01*
X16076778Y23770033D01*
X16076776Y23770031D01*
X15921261Y23628261D01*
X15794442Y23460326D01*
X15700642Y23271951D01*
X15700640Y23271947D01*
X15700641Y23271947D01*
X15650412Y23095408D01*
X15643051Y23069538D01*
X15623634Y22860001D01*
X15623634Y22860000D01*
X15643051Y22650463D01*
X15643051Y22650461D01*
X15643052Y22650458D01*
X15650413Y22624587D01*
X15700642Y22448050D01*
X15794442Y22259675D01*
X15921261Y22091740D01*
X16076776Y21949970D01*
X16076778Y21949968D01*
X16255692Y21839189D01*
X16255698Y21839186D01*
X16263809Y21836044D01*
X16451924Y21763168D01*
X16658780Y21724500D01*
X16658782Y21724500D01*
X16869217Y21724500D01*
X16869220Y21724500D01*
X16985863Y21746305D01*
X17055374Y21739274D01*
X17096326Y21712097D01*
X17180982Y21627441D01*
X17214467Y21566118D01*
X17209483Y21496426D01*
X17167611Y21440493D01*
X17102147Y21416076D01*
X17070518Y21417871D01*
X16869220Y21455500D01*
X16658780Y21455500D01*
X16451924Y21416832D01*
X16451921Y21416832D01*
X16451921Y21416831D01*
X16255698Y21340815D01*
X16255692Y21340812D01*
X16076778Y21230033D01*
X16076776Y21230031D01*
X15921261Y21088261D01*
X15794442Y20920326D01*
X15700642Y20731951D01*
X15700640Y20731947D01*
X15700641Y20731947D01*
X15650412Y20555408D01*
X15643051Y20529538D01*
X15623634Y20320001D01*
X15623634Y20320000D01*
X15643051Y20110460D01*
X15644336Y20105946D01*
X15643750Y20036079D01*
X15612751Y19984330D01*
X13591813Y17963391D01*
X13585710Y17958040D01*
X13558694Y17937308D01*
X13523021Y17890820D01*
X13466253Y17816839D01*
X13408144Y17676550D01*
X13408143Y17676548D01*
X13388324Y17526002D01*
X13388324Y17526000D01*
X13392769Y17492239D01*
X13393300Y17484138D01*
X13393300Y9428190D01*
X13373615Y9361151D01*
X13321707Y9315809D01*
X13292173Y9302037D01*
X13292169Y9302035D01*
X13098597Y9166495D01*
X12931505Y8999403D01*
X12801575Y8813842D01*
X12746998Y8770217D01*
X12677500Y8763023D01*
X12615145Y8794546D01*
X12598425Y8813842D01*
X12468494Y8999403D01*
X12301402Y9166494D01*
X12301395Y9166499D01*
X12107832Y9302034D01*
X12078294Y9315808D01*
X12025855Y9361981D01*
X12006700Y9428190D01*
X12006700Y17992138D01*
X12007231Y18000239D01*
X12011676Y18034000D01*
X12011676Y18034002D01*
X11991856Y18184548D01*
X11991856Y18184549D01*
X11933746Y18324838D01*
X11864515Y18415062D01*
X11863260Y18416698D01*
X11863252Y18416708D01*
X11860043Y18420889D01*
X11841307Y18445307D01*
X11824986Y18457831D01*
X11814283Y18466044D01*
X11808180Y18471397D01*
X10295248Y19984329D01*
X10261763Y20045652D01*
X10263665Y20105952D01*
X10264948Y20110458D01*
X10284365Y20320000D01*
X10264948Y20529542D01*
X10207359Y20731947D01*
X10113558Y20920325D01*
X9986740Y21088259D01*
X9831223Y21230031D01*
X9831221Y21230033D01*
X9652307Y21340812D01*
X9652301Y21340815D01*
X9489199Y21404000D01*
X9456076Y21416832D01*
X9249220Y21455500D01*
X9038780Y21455500D01*
X8831924Y21416832D01*
X8831921Y21416832D01*
X8831921Y21416831D01*
X8635698Y21340815D01*
X8635692Y21340812D01*
X8456778Y21230033D01*
X8456776Y21230031D01*
X8301261Y21088261D01*
X8174442Y20920326D01*
X8080642Y20731951D01*
X8080640Y20731947D01*
X8080641Y20731947D01*
X8030412Y20555408D01*
X8023051Y20529538D01*
X8003634Y20320001D01*
X8003634Y20320000D01*
X8023051Y20110463D01*
X8023051Y20110461D01*
X8023052Y20110458D01*
X8080641Y19908053D01*
X8174442Y19719675D01*
X8264699Y19600155D01*
X8301261Y19551740D01*
X8456776Y19409970D01*
X8456778Y19409968D01*
X8635692Y19299189D01*
X8635698Y19299186D01*
X8677268Y19283082D01*
X8831924Y19223168D01*
X9038780Y19184500D01*
X9038782Y19184500D01*
X9249217Y19184500D01*
X9249220Y19184500D01*
X9365863Y19206305D01*
X9435374Y19199274D01*
X9476326Y19172097D01*
X9561608Y19086815D01*
X9595093Y19025492D01*
X9590109Y18955800D01*
X9548237Y18899867D01*
X9482773Y18875450D01*
X9451142Y18877245D01*
X9249171Y18915000D01*
X9038829Y18915000D01*
X8832064Y18876349D01*
X8832063Y18876349D01*
X8635923Y18800365D01*
X8537887Y18739665D01*
X9116553Y18161000D01*
X9112431Y18161000D01*
X9018579Y18145339D01*
X8906749Y18084820D01*
X8820629Y17991269D01*
X8769552Y17874823D01*
X8763894Y17806553D01*
X8181546Y18388901D01*
X8181545Y18388901D01*
X8174870Y18380061D01*
X8081111Y18191770D01*
X8023545Y17989445D01*
X8004138Y17780001D01*
X8004138Y17780000D01*
X8023545Y17570556D01*
X8081111Y17368231D01*
X8174871Y17179938D01*
X8181545Y17171101D01*
X8759096Y17748650D01*
X8759051Y17748102D01*
X8790266Y17624838D01*
X8859813Y17518388D01*
X8960157Y17440287D01*
X9080422Y17399000D01*
X9116552Y17399000D01*
X8537887Y16820337D01*
X8635918Y16759638D01*
X8635920Y16759637D01*
X8832063Y16683652D01*
X9038829Y16645000D01*
X9249171Y16645000D01*
X9455935Y16683652D01*
X9455936Y16683652D01*
X9652079Y16759637D01*
X9652080Y16759638D01*
X9750110Y16820336D01*
X9750111Y16820337D01*
X9171449Y17399000D01*
X9175569Y17399000D01*
X9269421Y17414661D01*
X9381251Y17475180D01*
X9467371Y17568731D01*
X9518448Y17685177D01*
X9524105Y17753448D01*
X10106452Y17171101D01*
X10106453Y17171101D01*
X10113128Y17179939D01*
X10206888Y17368231D01*
X10264454Y17570556D01*
X10283862Y17780000D01*
X10283862Y17780001D01*
X10264454Y17989449D01*
X10264453Y17989452D01*
X10238225Y18081636D01*
X10238812Y18151503D01*
X10277079Y18209962D01*
X10340876Y18238452D01*
X10409948Y18227928D01*
X10445172Y18203251D01*
X10816981Y17831442D01*
X10850466Y17770119D01*
X10853300Y17743761D01*
X10853300Y9428190D01*
X10833615Y9361151D01*
X10781707Y9315809D01*
X10752173Y9302037D01*
X10752169Y9302035D01*
X10558597Y9166495D01*
X10391508Y8999406D01*
X10261574Y8813841D01*
X10206997Y8770216D01*
X10137498Y8763024D01*
X10075144Y8794546D01*
X10058424Y8813842D01*
X9928494Y8999403D01*
X9761402Y9166494D01*
X9761395Y9166499D01*
X9567834Y9302033D01*
X9567830Y9302035D01*
X9538294Y9315808D01*
X9353663Y9401903D01*
X9353659Y9401904D01*
X9353655Y9401906D01*
X9125413Y9463062D01*
X9125403Y9463064D01*
X8890001Y9483659D01*
X8889999Y9483659D01*
X8654597Y9463064D01*
X8654593Y9463064D01*
X8654592Y9463063D01*
X8654587Y9463062D01*
X8654584Y9463061D01*
X8637778Y9458558D01*
X8567928Y9460222D01*
X8518005Y9490652D01*
X7426819Y10581839D01*
X7393334Y10643162D01*
X7390500Y10669520D01*
X7390500Y22860000D01*
X8003634Y22860000D01*
X8023051Y22650463D01*
X8023051Y22650461D01*
X8023052Y22650458D01*
X8030413Y22624587D01*
X8080642Y22448050D01*
X8174442Y22259675D01*
X8301261Y22091740D01*
X8456776Y21949970D01*
X8456778Y21949968D01*
X8635692Y21839189D01*
X8635698Y21839186D01*
X8643809Y21836044D01*
X8831924Y21763168D01*
X9038780Y21724500D01*
X9038782Y21724500D01*
X9249218Y21724500D01*
X9249220Y21724500D01*
X9456076Y21763168D01*
X9652304Y21839187D01*
X9831223Y21949969D01*
X9986740Y22091741D01*
X10113558Y22259675D01*
X10207359Y22448053D01*
X10264948Y22650458D01*
X10284365Y22860000D01*
X10264948Y23069542D01*
X10207359Y23271947D01*
X10113558Y23460325D01*
X9986740Y23628259D01*
X9831223Y23770031D01*
X9831221Y23770033D01*
X9652307Y23880812D01*
X9652301Y23880815D01*
X9497648Y23940727D01*
X9456076Y23956832D01*
X9249220Y23995500D01*
X9038780Y23995500D01*
X8831924Y23956832D01*
X8831921Y23956832D01*
X8831921Y23956831D01*
X8635698Y23880815D01*
X8635692Y23880812D01*
X8456778Y23770033D01*
X8456776Y23770031D01*
X8301261Y23628261D01*
X8174442Y23460326D01*
X8080642Y23271951D01*
X8080640Y23271947D01*
X8080641Y23271947D01*
X8030412Y23095408D01*
X8023051Y23069538D01*
X8003634Y22860001D01*
X8003634Y22860000D01*
X7390500Y22860000D01*
X7390500Y25400000D01*
X8003634Y25400000D01*
X8023051Y25190463D01*
X8023051Y25190461D01*
X8023052Y25190458D01*
X8057552Y25069202D01*
X8080642Y24988050D01*
X8174442Y24799675D01*
X8301261Y24631740D01*
X8456776Y24489970D01*
X8456778Y24489968D01*
X8635692Y24379189D01*
X8635698Y24379186D01*
X8677268Y24363082D01*
X8831924Y24303168D01*
X9038780Y24264500D01*
X9038782Y24264500D01*
X9249218Y24264500D01*
X9249220Y24264500D01*
X9456076Y24303168D01*
X9652304Y24379187D01*
X9831223Y24489969D01*
X9986740Y24631741D01*
X10113558Y24799675D01*
X10207359Y24988053D01*
X10264948Y25190458D01*
X10284365Y25400000D01*
X15623634Y25400000D01*
X15643051Y25190463D01*
X15643051Y25190461D01*
X15643052Y25190458D01*
X15677552Y25069202D01*
X15700642Y24988050D01*
X15794442Y24799675D01*
X15921261Y24631740D01*
X16076776Y24489970D01*
X16076778Y24489968D01*
X16255692Y24379189D01*
X16255698Y24379186D01*
X16297268Y24363082D01*
X16451924Y24303168D01*
X16658780Y24264500D01*
X16658782Y24264500D01*
X16869218Y24264500D01*
X16869220Y24264500D01*
X17076076Y24303168D01*
X17272304Y24379187D01*
X17451223Y24489969D01*
X17606740Y24631741D01*
X17733558Y24799675D01*
X17827359Y24988053D01*
X17884948Y25190458D01*
X17904365Y25400000D01*
X17884948Y25609542D01*
X17827359Y25811947D01*
X17733558Y26000325D01*
X17606740Y26168259D01*
X17451223Y26310031D01*
X17451221Y26310033D01*
X17272307Y26420812D01*
X17272301Y26420815D01*
X17117648Y26480727D01*
X17076076Y26496832D01*
X16869220Y26535500D01*
X16658780Y26535500D01*
X16451924Y26496832D01*
X16451921Y26496832D01*
X16451921Y26496831D01*
X16255698Y26420815D01*
X16255692Y26420812D01*
X16076778Y26310033D01*
X16076776Y26310031D01*
X15921261Y26168261D01*
X15794442Y26000326D01*
X15700642Y25811951D01*
X15700640Y25811947D01*
X15700641Y25811947D01*
X15650412Y25635408D01*
X15643051Y25609538D01*
X15623634Y25400001D01*
X15623634Y25400000D01*
X10284365Y25400000D01*
X10264948Y25609542D01*
X10207359Y25811947D01*
X10113558Y26000325D01*
X9986740Y26168259D01*
X9831223Y26310031D01*
X9831221Y26310033D01*
X9652307Y26420812D01*
X9652301Y26420815D01*
X9497648Y26480727D01*
X9456076Y26496832D01*
X9249220Y26535500D01*
X9038780Y26535500D01*
X8831924Y26496832D01*
X8831921Y26496832D01*
X8831921Y26496831D01*
X8635698Y26420815D01*
X8635692Y26420812D01*
X8456778Y26310033D01*
X8456776Y26310031D01*
X8301261Y26168261D01*
X8174442Y26000326D01*
X8080642Y25811951D01*
X8080640Y25811947D01*
X8080641Y25811947D01*
X8030412Y25635408D01*
X8023051Y25609538D01*
X8003634Y25400001D01*
X8003634Y25400000D01*
X7390500Y25400000D01*
X7390500Y27940000D01*
X8004138Y27940000D01*
X8023545Y27730556D01*
X8081111Y27528231D01*
X8174871Y27339938D01*
X8181545Y27331101D01*
X8759096Y27908650D01*
X8759051Y27908102D01*
X8790266Y27784838D01*
X8859813Y27678388D01*
X8960157Y27600287D01*
X9080422Y27559000D01*
X9116553Y27559000D01*
X8537887Y26980337D01*
X8635918Y26919638D01*
X8635920Y26919637D01*
X8832063Y26843652D01*
X9038829Y26805000D01*
X9249171Y26805000D01*
X9455935Y26843652D01*
X9455936Y26843652D01*
X9652079Y26919637D01*
X9652080Y26919638D01*
X9750110Y26980336D01*
X9750111Y26980337D01*
X9171448Y27559000D01*
X9175569Y27559000D01*
X9269421Y27574661D01*
X9381251Y27635180D01*
X9467371Y27728731D01*
X9518448Y27845177D01*
X9524105Y27913448D01*
X10106452Y27331101D01*
X10106453Y27331101D01*
X10113128Y27339939D01*
X10206888Y27528231D01*
X10264454Y27730556D01*
X10283862Y27940000D01*
X15623634Y27940000D01*
X15643051Y27730463D01*
X15643051Y27730461D01*
X15643052Y27730458D01*
X15700641Y27528053D01*
X15700642Y27528050D01*
X15794442Y27339675D01*
X15921261Y27171740D01*
X16076776Y27029970D01*
X16076778Y27029968D01*
X16255692Y26919189D01*
X16255698Y26919186D01*
X16297268Y26903082D01*
X16451924Y26843168D01*
X16658780Y26804500D01*
X16658782Y26804500D01*
X16869218Y26804500D01*
X16869220Y26804500D01*
X17076076Y26843168D01*
X17272304Y26919187D01*
X17451223Y27029969D01*
X17606740Y27171741D01*
X17733558Y27339675D01*
X17827359Y27528053D01*
X17884948Y27730458D01*
X17904365Y27940000D01*
X17884948Y28149542D01*
X17827359Y28351947D01*
X17733558Y28540325D01*
X17606740Y28708259D01*
X17451223Y28850031D01*
X17451221Y28850033D01*
X17272307Y28960812D01*
X17272301Y28960815D01*
X17117648Y29020727D01*
X17076076Y29036832D01*
X16869220Y29075500D01*
X16658780Y29075500D01*
X16451924Y29036832D01*
X16451921Y29036832D01*
X16451921Y29036831D01*
X16255698Y28960815D01*
X16255692Y28960812D01*
X16076778Y28850033D01*
X16076776Y28850031D01*
X15921261Y28708261D01*
X15794442Y28540326D01*
X15700642Y28351951D01*
X15680089Y28279713D01*
X15643544Y28151269D01*
X15643051Y28149538D01*
X15623634Y27940001D01*
X15623634Y27940000D01*
X10283862Y27940000D01*
X10283862Y27940001D01*
X10264454Y28149445D01*
X10206888Y28351770D01*
X10113130Y28540059D01*
X10113128Y28540063D01*
X10106453Y28548901D01*
X10106452Y28548902D01*
X9528903Y27971352D01*
X9528949Y27971898D01*
X9497734Y28095162D01*
X9428187Y28201612D01*
X9327843Y28279713D01*
X9207578Y28321000D01*
X9171448Y28321000D01*
X9750111Y28899665D01*
X9750110Y28899666D01*
X9652083Y28960362D01*
X9652077Y28960364D01*
X9455936Y29036349D01*
X9249171Y29075000D01*
X9038829Y29075000D01*
X8832064Y29036349D01*
X8832063Y29036349D01*
X8635923Y28960365D01*
X8537887Y28899665D01*
X9116553Y28321000D01*
X9112431Y28321000D01*
X9018579Y28305339D01*
X8906749Y28244820D01*
X8820629Y28151269D01*
X8769552Y28034823D01*
X8763894Y27966553D01*
X8181546Y28548901D01*
X8181545Y28548901D01*
X8174870Y28540061D01*
X8081111Y28351770D01*
X8023545Y28149445D01*
X8004138Y27940001D01*
X8004138Y27940000D01*
X7390500Y27940000D01*
X7390500Y30480000D01*
X8004138Y30480000D01*
X8023545Y30270556D01*
X8081111Y30068231D01*
X8174871Y29879938D01*
X8181545Y29871101D01*
X8759096Y30448650D01*
X8759051Y30448102D01*
X8790266Y30324838D01*
X8859813Y30218388D01*
X8960157Y30140287D01*
X9080422Y30099000D01*
X9116553Y30099000D01*
X8537887Y29520337D01*
X8635918Y29459638D01*
X8635920Y29459637D01*
X8832063Y29383652D01*
X9038829Y29345000D01*
X9249171Y29345000D01*
X9455935Y29383652D01*
X9455936Y29383652D01*
X9652079Y29459637D01*
X9652080Y29459638D01*
X9750110Y29520336D01*
X9750111Y29520337D01*
X9171448Y30099000D01*
X9175569Y30099000D01*
X9269421Y30114661D01*
X9381251Y30175180D01*
X9467371Y30268731D01*
X9518448Y30385177D01*
X9524105Y30453448D01*
X10106452Y29871101D01*
X10106453Y29871101D01*
X10113128Y29879939D01*
X10206888Y30068231D01*
X10264454Y30270556D01*
X10283862Y30480000D01*
X15623634Y30480000D01*
X15643051Y30270463D01*
X15643051Y30270461D01*
X15643052Y30270458D01*
X15700641Y30068053D01*
X15700642Y30068050D01*
X15794442Y29879675D01*
X15921261Y29711740D01*
X16076776Y29569970D01*
X16076778Y29569968D01*
X16255692Y29459189D01*
X16255698Y29459186D01*
X16297268Y29443082D01*
X16451924Y29383168D01*
X16658780Y29344500D01*
X16658782Y29344500D01*
X16869218Y29344500D01*
X16869220Y29344500D01*
X17076076Y29383168D01*
X17272304Y29459187D01*
X17451223Y29569969D01*
X17606740Y29711741D01*
X17733558Y29879675D01*
X17827359Y30068053D01*
X17884948Y30270458D01*
X17904365Y30480000D01*
X17884948Y30689542D01*
X17827359Y30891947D01*
X17733558Y31080325D01*
X17606740Y31248259D01*
X17451223Y31390031D01*
X17451221Y31390033D01*
X17272307Y31500812D01*
X17272301Y31500815D01*
X17117648Y31560727D01*
X17076076Y31576832D01*
X16869220Y31615500D01*
X16658780Y31615500D01*
X16451924Y31576832D01*
X16451921Y31576832D01*
X16451921Y31576831D01*
X16255698Y31500815D01*
X16255692Y31500812D01*
X16076778Y31390033D01*
X16076776Y31390031D01*
X15921261Y31248261D01*
X15794442Y31080326D01*
X15700642Y30891951D01*
X15680089Y30819713D01*
X15643544Y30691269D01*
X15643051Y30689538D01*
X15623634Y30480001D01*
X15623634Y30480000D01*
X10283862Y30480000D01*
X10283862Y30480001D01*
X10264454Y30689445D01*
X10206888Y30891770D01*
X10113130Y31080059D01*
X10113128Y31080063D01*
X10106453Y31088901D01*
X10106452Y31088902D01*
X9528903Y30511352D01*
X9528949Y30511898D01*
X9497734Y30635162D01*
X9428187Y30741612D01*
X9327843Y30819713D01*
X9207578Y30861000D01*
X9171448Y30861000D01*
X9750111Y31439665D01*
X9750110Y31439666D01*
X9652083Y31500362D01*
X9652077Y31500364D01*
X9455936Y31576349D01*
X9249171Y31615000D01*
X9038829Y31615000D01*
X8832064Y31576349D01*
X8832063Y31576349D01*
X8635923Y31500365D01*
X8537887Y31439665D01*
X9116553Y30861000D01*
X9112431Y30861000D01*
X9018579Y30845339D01*
X8906749Y30784820D01*
X8820629Y30691269D01*
X8769552Y30574823D01*
X8763894Y30506553D01*
X8181546Y31088901D01*
X8181545Y31088901D01*
X8174870Y31080061D01*
X8081111Y30891770D01*
X8023545Y30689445D01*
X8004138Y30480001D01*
X8004138Y30480000D01*
X7390500Y30480000D01*
X7390500Y33020000D01*
X8004138Y33020000D01*
X8023545Y32810556D01*
X8081111Y32608231D01*
X8174871Y32419938D01*
X8181545Y32411101D01*
X8759096Y32988651D01*
X8759051Y32988102D01*
X8790266Y32864838D01*
X8859813Y32758388D01*
X8960157Y32680287D01*
X9080422Y32639000D01*
X9116553Y32639000D01*
X8537887Y32060337D01*
X8635918Y31999638D01*
X8635920Y31999637D01*
X8832063Y31923652D01*
X9038829Y31885000D01*
X9249171Y31885000D01*
X9455935Y31923652D01*
X9455936Y31923652D01*
X9652079Y31999637D01*
X9652080Y31999638D01*
X9750110Y32060336D01*
X9750111Y32060337D01*
X9171448Y32639000D01*
X9175569Y32639000D01*
X9269421Y32654661D01*
X9381251Y32715180D01*
X9467371Y32808731D01*
X9518448Y32925177D01*
X9524105Y32993447D01*
X10106452Y32411101D01*
X10106453Y32411101D01*
X10113128Y32419939D01*
X10206888Y32608231D01*
X10264454Y32810556D01*
X10283862Y33020000D01*
X15623634Y33020000D01*
X15643051Y32810463D01*
X15643051Y32810461D01*
X15643052Y32810458D01*
X15700641Y32608053D01*
X15700642Y32608050D01*
X15794442Y32419675D01*
X15921261Y32251740D01*
X16076776Y32109970D01*
X16076778Y32109968D01*
X16255692Y31999189D01*
X16255698Y31999186D01*
X16297268Y31983082D01*
X16451924Y31923168D01*
X16658780Y31884500D01*
X16658782Y31884500D01*
X16869218Y31884500D01*
X16869220Y31884500D01*
X17076076Y31923168D01*
X17272304Y31999187D01*
X17451223Y32109969D01*
X17606740Y32251741D01*
X17733558Y32419675D01*
X17827359Y32608053D01*
X17884948Y32810458D01*
X17904365Y33020000D01*
X17884948Y33229542D01*
X17827359Y33431947D01*
X17733558Y33620325D01*
X17606740Y33788259D01*
X17451223Y33930031D01*
X17451221Y33930033D01*
X17272307Y34040812D01*
X17272301Y34040815D01*
X17117648Y34100727D01*
X17076076Y34116832D01*
X16869220Y34155500D01*
X16658780Y34155500D01*
X16451924Y34116832D01*
X16451921Y34116832D01*
X16451921Y34116831D01*
X16255698Y34040815D01*
X16255692Y34040812D01*
X16076778Y33930033D01*
X16076776Y33930031D01*
X15921261Y33788261D01*
X15794442Y33620326D01*
X15700642Y33431951D01*
X15680089Y33359713D01*
X15643544Y33231269D01*
X15643051Y33229538D01*
X15623634Y33020001D01*
X15623634Y33020000D01*
X10283862Y33020000D01*
X10283862Y33020001D01*
X10264454Y33229445D01*
X10206888Y33431770D01*
X10113130Y33620059D01*
X10113128Y33620063D01*
X10106453Y33628901D01*
X10106452Y33628902D01*
X9528903Y33051353D01*
X9528949Y33051898D01*
X9497734Y33175162D01*
X9428187Y33281612D01*
X9327843Y33359713D01*
X9207578Y33401000D01*
X9171446Y33401000D01*
X9750111Y33979665D01*
X9750110Y33979666D01*
X9652083Y34040362D01*
X9652077Y34040364D01*
X9455936Y34116349D01*
X9249171Y34155000D01*
X9038829Y34155000D01*
X8832064Y34116349D01*
X8832063Y34116349D01*
X8635923Y34040365D01*
X8537887Y33979665D01*
X9116551Y33401000D01*
X9112431Y33401000D01*
X9018579Y33385339D01*
X8906749Y33324820D01*
X8820629Y33231269D01*
X8769552Y33114823D01*
X8763894Y33046553D01*
X8181545Y33628901D01*
X8174870Y33620061D01*
X8081111Y33431770D01*
X8023545Y33229445D01*
X8004138Y33020001D01*
X8004138Y33020000D01*
X7390500Y33020000D01*
X7390500Y35560000D01*
X8004138Y35560000D01*
X8023545Y35350556D01*
X8081111Y35148231D01*
X8174871Y34959938D01*
X8181545Y34951101D01*
X8759096Y35528651D01*
X8759051Y35528102D01*
X8790266Y35404838D01*
X8859813Y35298388D01*
X8960157Y35220287D01*
X9080422Y35179000D01*
X9116553Y35179000D01*
X8537887Y34600337D01*
X8635918Y34539638D01*
X8635920Y34539637D01*
X8832063Y34463652D01*
X9038829Y34425000D01*
X9249171Y34425000D01*
X9455935Y34463652D01*
X9455936Y34463652D01*
X9652079Y34539637D01*
X9652080Y34539638D01*
X9750110Y34600336D01*
X9750111Y34600337D01*
X9171448Y35179000D01*
X9175569Y35179000D01*
X9269421Y35194661D01*
X9381251Y35255180D01*
X9467371Y35348731D01*
X9518448Y35465177D01*
X9524105Y35533447D01*
X10106452Y34951101D01*
X10106453Y34951101D01*
X10113128Y34959939D01*
X10206888Y35148231D01*
X10264454Y35350556D01*
X10283862Y35560000D01*
X15623634Y35560000D01*
X15643051Y35350463D01*
X15643051Y35350461D01*
X15643052Y35350458D01*
X15700641Y35148053D01*
X15700642Y35148050D01*
X15785618Y34977395D01*
X15794442Y34959675D01*
X15876414Y34851126D01*
X15921261Y34791740D01*
X16076776Y34649970D01*
X16076778Y34649968D01*
X16255692Y34539189D01*
X16255698Y34539186D01*
X16297268Y34523082D01*
X16451924Y34463168D01*
X16658780Y34424500D01*
X16658782Y34424500D01*
X16869218Y34424500D01*
X16869220Y34424500D01*
X17076076Y34463168D01*
X17272304Y34539187D01*
X17451223Y34649969D01*
X17606740Y34791741D01*
X17733558Y34959675D01*
X17827359Y35148053D01*
X17884948Y35350458D01*
X17904365Y35560000D01*
X17884948Y35769542D01*
X17827359Y35971947D01*
X17733558Y36160325D01*
X17606740Y36328259D01*
X17596957Y36337177D01*
X17451223Y36470031D01*
X17451221Y36470033D01*
X17272307Y36580812D01*
X17272301Y36580815D01*
X17117648Y36640727D01*
X17076076Y36656832D01*
X16869220Y36695500D01*
X16658780Y36695500D01*
X16451924Y36656832D01*
X16451921Y36656832D01*
X16451921Y36656831D01*
X16255698Y36580815D01*
X16255692Y36580812D01*
X16076778Y36470033D01*
X16076776Y36470031D01*
X15921261Y36328261D01*
X15794442Y36160326D01*
X15700642Y35971951D01*
X15680089Y35899713D01*
X15643544Y35771269D01*
X15643051Y35769538D01*
X15623634Y35560001D01*
X15623634Y35560000D01*
X10283862Y35560000D01*
X10283862Y35560001D01*
X10264454Y35769445D01*
X10206888Y35971770D01*
X10113130Y36160059D01*
X10113128Y36160063D01*
X10106453Y36168901D01*
X10106452Y36168902D01*
X9528903Y35591353D01*
X9528949Y35591898D01*
X9497734Y35715162D01*
X9428187Y35821612D01*
X9327843Y35899713D01*
X9207578Y35941000D01*
X9171446Y35941000D01*
X9750111Y36519665D01*
X9750110Y36519666D01*
X9652083Y36580362D01*
X9652077Y36580364D01*
X9455936Y36656349D01*
X9249171Y36695000D01*
X9038829Y36695000D01*
X8832064Y36656349D01*
X8832063Y36656349D01*
X8635923Y36580365D01*
X8537887Y36519665D01*
X9116551Y35941000D01*
X9112431Y35941000D01*
X9018579Y35925339D01*
X8906749Y35864820D01*
X8820629Y35771269D01*
X8769552Y35654823D01*
X8763894Y35586553D01*
X8181545Y36168901D01*
X8174870Y36160061D01*
X8081111Y35971770D01*
X8023545Y35769445D01*
X8004138Y35560001D01*
X8004138Y35560000D01*
X7390500Y35560000D01*
X7390500Y38100000D01*
X8004138Y38100000D01*
X8023545Y37890556D01*
X8081111Y37688231D01*
X8174871Y37499938D01*
X8181545Y37491101D01*
X8759096Y38068650D01*
X8759051Y38068102D01*
X8790266Y37944838D01*
X8859813Y37838388D01*
X8960157Y37760287D01*
X9080422Y37719000D01*
X9116553Y37719000D01*
X8537887Y37140337D01*
X8635918Y37079638D01*
X8635920Y37079637D01*
X8832063Y37003652D01*
X9038829Y36965000D01*
X9249171Y36965000D01*
X9455935Y37003652D01*
X9455936Y37003652D01*
X9652079Y37079637D01*
X9652080Y37079638D01*
X9750110Y37140336D01*
X9750111Y37140337D01*
X9171448Y37719000D01*
X9175569Y37719000D01*
X9269421Y37734661D01*
X9381251Y37795180D01*
X9467371Y37888731D01*
X9518448Y38005177D01*
X9524105Y38073448D01*
X10106452Y37491101D01*
X10106453Y37491101D01*
X10113128Y37499939D01*
X10206888Y37688231D01*
X10264454Y37890556D01*
X10283862Y38100000D01*
X10283862Y38100001D01*
X10264454Y38309445D01*
X10206888Y38511770D01*
X10113130Y38700059D01*
X10113128Y38700063D01*
X10106453Y38708901D01*
X10106452Y38708902D01*
X9528903Y38131352D01*
X9528949Y38131898D01*
X9497734Y38255162D01*
X9428187Y38361612D01*
X9327843Y38439713D01*
X9207578Y38481000D01*
X9171448Y38481000D01*
X9750111Y39059665D01*
X9750110Y39059666D01*
X9652083Y39120362D01*
X9652077Y39120364D01*
X9455936Y39196349D01*
X9249171Y39235000D01*
X9038829Y39235000D01*
X8832064Y39196349D01*
X8832063Y39196349D01*
X8635923Y39120365D01*
X8537887Y39059665D01*
X9116553Y38481000D01*
X9112431Y38481000D01*
X9018579Y38465339D01*
X8906749Y38404820D01*
X8820629Y38311269D01*
X8769552Y38194823D01*
X8763894Y38126553D01*
X8181546Y38708901D01*
X8181545Y38708901D01*
X8174870Y38700061D01*
X8081111Y38511770D01*
X8023545Y38309445D01*
X8004138Y38100001D01*
X8004138Y38100000D01*
X7390500Y38100000D01*
X7390500Y40640000D01*
X8003634Y40640000D01*
X8023051Y40430463D01*
X8023051Y40430461D01*
X8023052Y40430458D01*
X8060760Y40297929D01*
X8080642Y40228050D01*
X8174442Y40039675D01*
X8301261Y39871740D01*
X8456776Y39729970D01*
X8456778Y39729968D01*
X8635692Y39619189D01*
X8635698Y39619186D01*
X8677268Y39603082D01*
X8831924Y39543168D01*
X9038780Y39504500D01*
X9038782Y39504500D01*
X9249218Y39504500D01*
X9249220Y39504500D01*
X9456076Y39543168D01*
X9652304Y39619187D01*
X9831223Y39729969D01*
X9986740Y39871741D01*
X10113558Y40039675D01*
X10207359Y40228053D01*
X10264948Y40430458D01*
X10284365Y40640000D01*
X10264948Y40849542D01*
X10207359Y41051947D01*
X10113558Y41240325D01*
X9986740Y41408259D01*
X9884960Y41501043D01*
X9831223Y41550031D01*
X9831221Y41550033D01*
X9652307Y41660812D01*
X9652301Y41660815D01*
X9497648Y41720727D01*
X9456076Y41736832D01*
X9249220Y41775500D01*
X9038780Y41775500D01*
X8831924Y41736832D01*
X8831921Y41736832D01*
X8831921Y41736831D01*
X8635698Y41660815D01*
X8635692Y41660812D01*
X8456778Y41550033D01*
X8456776Y41550031D01*
X8301261Y41408261D01*
X8174442Y41240326D01*
X8080642Y41051951D01*
X8080640Y41051947D01*
X8080641Y41051947D01*
X8030412Y40875408D01*
X8023051Y40849538D01*
X8003634Y40640001D01*
X8003634Y40640000D01*
X7390500Y40640000D01*
X7390500Y44038481D01*
X7410185Y44105520D01*
X7426819Y44126162D01*
X7649082Y44348425D01*
X7873406Y44572750D01*
X7934727Y44606233D01*
X8004418Y44601249D01*
X8060352Y44559378D01*
X8084769Y44493913D01*
X8084306Y44471185D01*
X8081919Y44449997D01*
X8102177Y44270194D01*
X8102178Y44270188D01*
X8161943Y44099388D01*
X8195105Y44046611D01*
X8258217Y43946170D01*
X8386170Y43818217D01*
X8539387Y43721944D01*
X8710185Y43662179D01*
X8710191Y43662179D01*
X8710193Y43662178D01*
X8889996Y43641919D01*
X8890000Y43641919D01*
X8890004Y43641919D01*
X9069806Y43662178D01*
X9069805Y43662178D01*
X9069815Y43662179D01*
X9240613Y43721944D01*
X9240619Y43721949D01*
X9243592Y43723379D01*
X9245711Y43723729D01*
X9247186Y43724244D01*
X9247276Y43723986D01*
X9312532Y43734735D01*
X9376668Y43707016D01*
X9385080Y43699343D01*
X15362603Y37721820D01*
X15367956Y37715717D01*
X15381599Y37697938D01*
X15388693Y37688693D01*
X15413111Y37669957D01*
X15417292Y37666748D01*
X15417302Y37666740D01*
X15456926Y37636336D01*
X15509162Y37596254D01*
X15649451Y37538144D01*
X15726711Y37527973D01*
X15790607Y37499707D01*
X15809480Y37479761D01*
X15921261Y37331740D01*
X16076776Y37189970D01*
X16076778Y37189968D01*
X16255692Y37079189D01*
X16255698Y37079186D01*
X16297268Y37063082D01*
X16451924Y37003168D01*
X16658780Y36964500D01*
X16658782Y36964500D01*
X16869218Y36964500D01*
X16869220Y36964500D01*
X17076076Y37003168D01*
X17272304Y37079187D01*
X17451223Y37189969D01*
X17606740Y37331741D01*
X17733558Y37499675D01*
X17827359Y37688053D01*
X17884948Y37890458D01*
X17904365Y38100000D01*
X17884948Y38309542D01*
X17827359Y38511947D01*
X17733558Y38700325D01*
X17606740Y38868259D01*
X17596957Y38877177D01*
X17451223Y39010031D01*
X17451221Y39010033D01*
X17272307Y39120812D01*
X17272301Y39120815D01*
X17117648Y39180727D01*
X17076076Y39196832D01*
X16869220Y39235500D01*
X16658780Y39235500D01*
X16451924Y39196832D01*
X16451921Y39196832D01*
X16451921Y39196831D01*
X16255698Y39120815D01*
X16255692Y39120812D01*
X16076780Y39010034D01*
X15970077Y38912762D01*
X15907272Y38882146D01*
X15837885Y38890344D01*
X15798858Y38916719D01*
X12852574Y41863003D01*
X9887383Y44828194D01*
X9882039Y44834289D01*
X9871570Y44847932D01*
X9861307Y44861307D01*
X9817930Y44894591D01*
X9817928Y44894593D01*
X9740838Y44953746D01*
X9740835Y44953748D01*
X9650147Y44991312D01*
X9600549Y45011856D01*
X9580424Y45014506D01*
X9484748Y45027102D01*
X9420852Y45055369D01*
X9413253Y45062360D01*
X9393830Y45081783D01*
X9240612Y45178057D01*
X9069812Y45237822D01*
X9069806Y45237823D01*
X8890004Y45258081D01*
X8890003Y45258081D01*
X8890001Y45258081D01*
X8890000Y45258081D01*
X8868814Y45255695D01*
X8799993Y45267750D01*
X8748614Y45315100D01*
X8730991Y45382711D01*
X8752719Y45449116D01*
X8767247Y45466591D01*
X9553837Y46253181D01*
X9615161Y46286666D01*
X9641519Y46289500D01*
X12657628Y46289500D01*
X14202895Y46289500D01*
X14269934Y46269815D01*
X14301849Y46240227D01*
X14349020Y46177762D01*
X14513437Y46027877D01*
X14513439Y46027875D01*
X14702595Y45910755D01*
X14702596Y45910755D01*
X14702599Y45910753D01*
X14910060Y45830382D01*
X15128757Y45789500D01*
X15128759Y45789500D01*
X15351241Y45789500D01*
X15351243Y45789500D01*
X15569940Y45830382D01*
X15627563Y45852706D01*
X15697182Y45858568D01*
X15758922Y45825859D01*
X15793178Y45764963D01*
X15796128Y45744567D01*
X15799387Y45690698D01*
X15799500Y45686953D01*
X15799499Y44981674D01*
X15779814Y44914634D01*
X15746623Y44880100D01*
X15660868Y44820054D01*
X15660865Y44820051D01*
X15499951Y44659138D01*
X15369432Y44472735D01*
X15369430Y44472731D01*
X15362105Y44457022D01*
X15315931Y44404583D01*
X15248737Y44385433D01*
X15181857Y44405650D01*
X15137341Y44457026D01*
X15130132Y44472485D01*
X15130131Y44472488D01*
X15079026Y44545474D01*
X15079025Y44545474D01*
X14397953Y43864402D01*
X14385165Y43945148D01*
X14327641Y44058045D01*
X14238045Y44147641D01*
X14125148Y44205165D01*
X14044400Y44217954D01*
X14725472Y44899026D01*
X14725471Y44899027D01*
X14652483Y44950134D01*
X14652481Y44950135D01*
X14446326Y45046266D01*
X14446317Y45046270D01*
X14226610Y45105140D01*
X14226599Y45105142D01*
X14000002Y45124966D01*
X13999998Y45124966D01*
X13773400Y45105142D01*
X13773389Y45105140D01*
X13553682Y45046270D01*
X13553673Y45046266D01*
X13347513Y44950132D01*
X13274527Y44899028D01*
X13274526Y44899027D01*
X13955600Y44217954D01*
X13874852Y44205165D01*
X13761955Y44147641D01*
X13672359Y44058045D01*
X13614835Y43945148D01*
X13602046Y43864401D01*
X12920973Y44545474D01*
X12920972Y44545473D01*
X12869868Y44472487D01*
X12773734Y44266327D01*
X12773730Y44266318D01*
X12714860Y44046611D01*
X12714858Y44046600D01*
X12695034Y43820003D01*
X12695034Y43819998D01*
X12714858Y43593401D01*
X12714860Y43593390D01*
X12773730Y43373683D01*
X12773734Y43373674D01*
X12869865Y43167519D01*
X12869866Y43167517D01*
X12920973Y43094529D01*
X12920974Y43094528D01*
X13602046Y43775601D01*
X13614835Y43694852D01*
X13672359Y43581955D01*
X13761955Y43492359D01*
X13874852Y43434835D01*
X13955599Y43422047D01*
X13274526Y42740975D01*
X13274526Y42740974D01*
X13347512Y42689869D01*
X13347516Y42689867D01*
X13553673Y42593735D01*
X13553682Y42593731D01*
X13773389Y42534861D01*
X13773400Y42534859D01*
X13999998Y42515034D01*
X14000002Y42515034D01*
X14226599Y42534859D01*
X14226610Y42534861D01*
X14446317Y42593731D01*
X14446331Y42593736D01*
X14652478Y42689864D01*
X14725472Y42740975D01*
X14044401Y43422047D01*
X14125148Y43434835D01*
X14238045Y43492359D01*
X14327641Y43581955D01*
X14385165Y43694852D01*
X14397953Y43775600D01*
X15079025Y43094528D01*
X15130134Y43167519D01*
X15137340Y43182972D01*
X15183511Y43235413D01*
X15250704Y43254567D01*
X15317585Y43234354D01*
X15362105Y43182978D01*
X15369430Y43167270D01*
X15369432Y43167266D01*
X15499954Y42980859D01*
X15660858Y42819955D01*
X15660861Y42819953D01*
X15847266Y42689432D01*
X15991906Y42621985D01*
X16044344Y42575814D01*
X16063500Y42509604D01*
X16063500Y41592680D01*
X16043815Y41525641D01*
X16023039Y41501043D01*
X15921259Y41408259D01*
X15794442Y41240326D01*
X15700642Y41051951D01*
X15700640Y41051947D01*
X15700641Y41051947D01*
X15650412Y40875408D01*
X15643051Y40849538D01*
X15623634Y40640001D01*
X15623634Y40640000D01*
X15643051Y40430463D01*
X15643051Y40430461D01*
X15643052Y40430458D01*
X15680760Y40297929D01*
X15700642Y40228050D01*
X15794442Y40039675D01*
X15921261Y39871740D01*
X16076776Y39729970D01*
X16076778Y39729968D01*
X16255692Y39619189D01*
X16255698Y39619186D01*
X16297268Y39603082D01*
X16451924Y39543168D01*
X16658780Y39504500D01*
X16658782Y39504500D01*
X16869218Y39504500D01*
X16869220Y39504500D01*
X17076076Y39543168D01*
X17272304Y39619187D01*
X17451223Y39729969D01*
X17606740Y39871741D01*
X17620699Y39890227D01*
X17676809Y39931863D01*
X17719654Y39939500D01*
X19708481Y39939500D01*
X19775520Y39919815D01*
X19796162Y39903181D01*
X20123181Y39576162D01*
X20156666Y39514839D01*
X20159500Y39488481D01*
X20159500Y35043049D01*
X20159387Y35039304D01*
X20155642Y34977397D01*
X20155642Y34977395D01*
X20166821Y34916388D01*
X20167384Y34912687D01*
X20174859Y34851130D01*
X20174860Y34851126D01*
X20178451Y34841657D01*
X20184474Y34820054D01*
X20186304Y34810070D01*
X20211759Y34753510D01*
X20213189Y34750059D01*
X20235182Y34692070D01*
X20235183Y34692069D01*
X20240936Y34683734D01*
X20251961Y34664187D01*
X20256120Y34654945D01*
X20256124Y34654940D01*
X20294371Y34606122D01*
X20296588Y34603108D01*
X20299963Y34598219D01*
X20331812Y34552076D01*
X20331816Y34552072D01*
X20331817Y34552071D01*
X20378250Y34510936D01*
X20380941Y34508402D01*
X20959310Y33930033D01*
X21497348Y33391995D01*
X21530833Y33330672D01*
X21529442Y33272222D01*
X21524939Y33255416D01*
X21524936Y33255403D01*
X21504341Y33020001D01*
X21504341Y33020000D01*
X21524936Y32784597D01*
X21524938Y32784587D01*
X21586094Y32556345D01*
X21586096Y32556341D01*
X21586097Y32556337D01*
X21649701Y32419939D01*
X21685965Y32342170D01*
X21685967Y32342166D01*
X21794281Y32187479D01*
X21821505Y32148599D01*
X21988599Y31981505D01*
X22127136Y31884500D01*
X22174594Y31851270D01*
X22218219Y31796693D01*
X22225413Y31727195D01*
X22193890Y31664840D01*
X22174595Y31648120D01*
X21988922Y31518110D01*
X21988920Y31518109D01*
X21821891Y31351080D01*
X21821886Y31351074D01*
X21686400Y31157580D01*
X21686399Y31157578D01*
X21586570Y30943493D01*
X21586567Y30943487D01*
X21529364Y30730001D01*
X21529364Y30730000D01*
X22426314Y30730000D01*
X22400507Y30689844D01*
X22360000Y30551889D01*
X22360000Y30408111D01*
X22400507Y30270156D01*
X22426314Y30230000D01*
X21529364Y30230000D01*
X21586567Y30016514D01*
X21586570Y30016508D01*
X21686399Y29802422D01*
X21821894Y29608918D01*
X21988917Y29441895D01*
X22174595Y29311881D01*
X22218219Y29257304D01*
X22225412Y29187805D01*
X22193890Y29125451D01*
X22174595Y29108731D01*
X21988594Y28978492D01*
X21821505Y28811403D01*
X21685965Y28617831D01*
X21685964Y28617829D01*
X21586098Y28403665D01*
X21586094Y28403656D01*
X21524938Y28175414D01*
X21524936Y28175404D01*
X21504341Y27940001D01*
X21504341Y27940000D01*
X21524936Y27704597D01*
X21524938Y27704587D01*
X21586094Y27476345D01*
X21586096Y27476341D01*
X21586097Y27476337D01*
X21649701Y27339939D01*
X21685965Y27262170D01*
X21685967Y27262166D01*
X21821501Y27068605D01*
X21821506Y27068598D01*
X21988597Y26901507D01*
X21988603Y26901502D01*
X22174158Y26771575D01*
X22217783Y26716998D01*
X22224977Y26647500D01*
X22193454Y26585145D01*
X22174158Y26568425D01*
X21988597Y26438495D01*
X21821505Y26271403D01*
X21685965Y26077831D01*
X21685964Y26077829D01*
X21586098Y25863665D01*
X21586094Y25863656D01*
X21524938Y25635414D01*
X21524936Y25635404D01*
X21504341Y25400001D01*
X21504341Y25400000D01*
X21524936Y25164597D01*
X21524938Y25164587D01*
X21586094Y24936345D01*
X21586096Y24936341D01*
X21586097Y24936337D01*
X21649824Y24799675D01*
X21685965Y24722170D01*
X21685967Y24722166D01*
X21821501Y24528605D01*
X21821506Y24528598D01*
X21988597Y24361507D01*
X21988603Y24361502D01*
X22174158Y24231575D01*
X22217783Y24176998D01*
X22224977Y24107500D01*
X22193454Y24045145D01*
X22174158Y24028425D01*
X21988597Y23898495D01*
X21821505Y23731403D01*
X21685965Y23537831D01*
X21685964Y23537829D01*
X21586098Y23323665D01*
X21586094Y23323656D01*
X21524938Y23095414D01*
X21524936Y23095404D01*
X21504341Y22860001D01*
X21504341Y22860000D01*
X21524936Y22624597D01*
X21524938Y22624587D01*
X21586094Y22396345D01*
X21586096Y22396341D01*
X21586097Y22396337D01*
X21649824Y22259675D01*
X21685965Y22182170D01*
X21685967Y22182166D01*
X21821501Y21988605D01*
X21821506Y21988598D01*
X21988597Y21821507D01*
X21988603Y21821502D01*
X22174158Y21691575D01*
X22217783Y21636998D01*
X22224977Y21567500D01*
X22193454Y21505145D01*
X22174158Y21488425D01*
X21988597Y21358495D01*
X21821505Y21191403D01*
X21685965Y20997831D01*
X21685964Y20997829D01*
X21586098Y20783665D01*
X21586094Y20783656D01*
X21524938Y20555414D01*
X21524936Y20555404D01*
X21504341Y20320001D01*
X21504341Y20320000D01*
X21524936Y20084597D01*
X21524938Y20084587D01*
X21586094Y19856345D01*
X21586096Y19856341D01*
X21586097Y19856337D01*
X21649824Y19719675D01*
X21685965Y19642170D01*
X21685967Y19642166D01*
X21821501Y19448605D01*
X21821506Y19448598D01*
X21988597Y19281507D01*
X21988603Y19281502D01*
X22174158Y19151575D01*
X22217783Y19096998D01*
X22224977Y19027500D01*
X22193454Y18965145D01*
X22174158Y18948425D01*
X21988597Y18818495D01*
X21821505Y18651403D01*
X21685965Y18457831D01*
X21685964Y18457829D01*
X21586098Y18243665D01*
X21586094Y18243656D01*
X21524938Y18015414D01*
X21524936Y18015404D01*
X21504341Y17780001D01*
X21504341Y17780000D01*
X21524936Y17544597D01*
X21524938Y17544587D01*
X21586094Y17316345D01*
X21586096Y17316341D01*
X21586097Y17316337D01*
X21592409Y17302801D01*
X21685965Y17102170D01*
X21685967Y17102166D01*
X21821501Y16908605D01*
X21821506Y16908598D01*
X21988597Y16741507D01*
X21988603Y16741502D01*
X22174158Y16611575D01*
X22217783Y16556998D01*
X22224977Y16487500D01*
X22193454Y16425145D01*
X22174158Y16408425D01*
X21988597Y16278495D01*
X21821505Y16111403D01*
X21685965Y15917831D01*
X21685964Y15917829D01*
X21586098Y15703665D01*
X21586094Y15703656D01*
X21524938Y15475414D01*
X21524936Y15475404D01*
X21504341Y15240001D01*
X21504341Y15240000D01*
X21524936Y15004597D01*
X21524938Y15004587D01*
X21586094Y14776345D01*
X21586096Y14776341D01*
X21586097Y14776337D01*
X21644897Y14650240D01*
X21685965Y14562170D01*
X21685967Y14562166D01*
X21821501Y14368605D01*
X21821506Y14368598D01*
X21988597Y14201507D01*
X21988603Y14201502D01*
X22174158Y14071575D01*
X22217783Y14016998D01*
X22224977Y13947500D01*
X22193454Y13885145D01*
X22174158Y13868425D01*
X21988597Y13738495D01*
X21821505Y13571403D01*
X21685965Y13377831D01*
X21685964Y13377829D01*
X21586098Y13163665D01*
X21586094Y13163656D01*
X21524938Y12935414D01*
X21524936Y12935404D01*
X21504341Y12700001D01*
X21504341Y12700000D01*
X21524936Y12464597D01*
X21524938Y12464587D01*
X21586094Y12236345D01*
X21586096Y12236341D01*
X21586097Y12236337D01*
X21685964Y12022171D01*
X21685965Y12022170D01*
X21685967Y12022166D01*
X21821501Y11828605D01*
X21821506Y11828598D01*
X21988597Y11661507D01*
X21988603Y11661502D01*
X22174158Y11531575D01*
X22217783Y11476998D01*
X22224977Y11407500D01*
X22193454Y11345145D01*
X22174158Y11328425D01*
X21988597Y11198495D01*
X21821505Y11031403D01*
X21685965Y10837831D01*
X21685964Y10837829D01*
X21586098Y10623665D01*
X21586094Y10623656D01*
X21524938Y10395414D01*
X21524936Y10395404D01*
X21504341Y10160001D01*
X21504341Y10160000D01*
X21524936Y9924597D01*
X21524938Y9924587D01*
X21586094Y9696345D01*
X21586096Y9696341D01*
X21586097Y9696337D01*
X21682010Y9490652D01*
X21685965Y9482170D01*
X21685967Y9482166D01*
X21788631Y9335548D01*
X21812098Y9302033D01*
X21821501Y9288605D01*
X21821506Y9288598D01*
X21988597Y9121507D01*
X21988603Y9121502D01*
X22174158Y8991575D01*
X22217783Y8936998D01*
X22224977Y8867500D01*
X22193454Y8805145D01*
X22174158Y8788425D01*
X21988597Y8658495D01*
X21821505Y8491403D01*
X21685965Y8297831D01*
X21685964Y8297829D01*
X21586098Y8083665D01*
X21586094Y8083656D01*
X21524938Y7855414D01*
X21524936Y7855404D01*
X21504341Y7620001D01*
X21504341Y7620000D01*
X21524936Y7384597D01*
X21524938Y7384587D01*
X21586094Y7156345D01*
X21586096Y7156341D01*
X21586097Y7156337D01*
X21680464Y6953966D01*
X21685965Y6942170D01*
X21685967Y6942166D01*
X21821501Y6748605D01*
X21821506Y6748598D01*
X21988597Y6581507D01*
X21988603Y6581502D01*
X22174158Y6451575D01*
X22217783Y6396998D01*
X22224977Y6327500D01*
X22193454Y6265145D01*
X22174158Y6248425D01*
X21988597Y6118495D01*
X21821505Y5951403D01*
X21685965Y5757831D01*
X21685964Y5757829D01*
X21586098Y5543665D01*
X21586094Y5543656D01*
X21524938Y5315414D01*
X21524936Y5315404D01*
X21504341Y5080001D01*
X21504341Y5080000D01*
X21524936Y4844597D01*
X21524938Y4844587D01*
X21586094Y4616345D01*
X21586096Y4616341D01*
X21586097Y4616337D01*
X21685965Y4402171D01*
X21685965Y4402170D01*
X21685967Y4402166D01*
X21794281Y4247479D01*
X21821505Y4208599D01*
X21988599Y4041505D01*
X22085384Y3973735D01*
X22182165Y3905968D01*
X22182167Y3905967D01*
X22182170Y3905965D01*
X22396337Y3806097D01*
X22624592Y3744937D01*
X22812918Y3728461D01*
X22859999Y3724341D01*
X22860000Y3724341D01*
X22860001Y3724341D01*
X22899234Y3727774D01*
X23095408Y3744937D01*
X23323663Y3806097D01*
X23537830Y3905965D01*
X23731401Y4041505D01*
X23898495Y4208599D01*
X24034035Y4402170D01*
X24133903Y4616337D01*
X24195063Y4844592D01*
X24215659Y5080000D01*
X24195063Y5315408D01*
X24133903Y5543663D01*
X24034035Y5757829D01*
X23898495Y5951401D01*
X23898494Y5951403D01*
X23731402Y6118494D01*
X23731401Y6118495D01*
X23545842Y6248425D01*
X23545841Y6248426D01*
X23502216Y6303003D01*
X23495024Y6372502D01*
X23526546Y6434856D01*
X23545836Y6451572D01*
X23731401Y6581505D01*
X23898495Y6748599D01*
X24034035Y6942170D01*
X24133903Y7156337D01*
X24195063Y7384592D01*
X24215659Y7620000D01*
X24195063Y7855408D01*
X24148626Y8028715D01*
X24133905Y8083656D01*
X24133904Y8083657D01*
X24133903Y8083663D01*
X24034035Y8297829D01*
X24006017Y8337844D01*
X23898494Y8491403D01*
X23731402Y8658494D01*
X23731396Y8658499D01*
X23545842Y8788425D01*
X23502217Y8843002D01*
X23495023Y8912500D01*
X23526546Y8974855D01*
X23545842Y8991575D01*
X23604980Y9032984D01*
X23731401Y9121505D01*
X23898495Y9288599D01*
X24034035Y9482170D01*
X24133903Y9696337D01*
X24195063Y9924592D01*
X24215659Y10160000D01*
X24195063Y10395408D01*
X24133903Y10623663D01*
X24034035Y10837829D01*
X23898495Y11031401D01*
X23898494Y11031403D01*
X23731402Y11198494D01*
X23731401Y11198495D01*
X23545842Y11328425D01*
X23545841Y11328426D01*
X23502216Y11383003D01*
X23495024Y11452502D01*
X23526546Y11514856D01*
X23545836Y11531572D01*
X23731401Y11661505D01*
X23898495Y11828599D01*
X24034035Y12022170D01*
X24133903Y12236337D01*
X24195063Y12464592D01*
X24215659Y12700000D01*
X24195063Y12935408D01*
X24133903Y13163663D01*
X24034035Y13377829D01*
X23898495Y13571401D01*
X23898494Y13571403D01*
X23731402Y13738494D01*
X23731396Y13738499D01*
X23545842Y13868425D01*
X23502217Y13923002D01*
X23495023Y13992500D01*
X23526546Y14054855D01*
X23545842Y14071575D01*
X23568026Y14087109D01*
X23731401Y14201505D01*
X23898495Y14368599D01*
X24034035Y14562170D01*
X24133903Y14776337D01*
X24195063Y15004592D01*
X24215659Y15240000D01*
X24195063Y15475408D01*
X24133903Y15703663D01*
X24034035Y15917829D01*
X23898495Y16111401D01*
X23898494Y16111403D01*
X23731402Y16278494D01*
X23731401Y16278495D01*
X23545842Y16408425D01*
X23545841Y16408426D01*
X23502216Y16463003D01*
X23495024Y16532502D01*
X23526546Y16594856D01*
X23545836Y16611572D01*
X23731401Y16741505D01*
X23898495Y16908599D01*
X24034035Y17102170D01*
X24133903Y17316337D01*
X24195063Y17544592D01*
X24215659Y17780000D01*
X24195063Y18015408D01*
X24133903Y18243663D01*
X24034035Y18457829D01*
X23898495Y18651401D01*
X23898494Y18651403D01*
X23731402Y18818494D01*
X23731396Y18818499D01*
X23545842Y18948425D01*
X23502217Y19003002D01*
X23495023Y19072500D01*
X23526546Y19134855D01*
X23545842Y19151575D01*
X23648090Y19223170D01*
X23731401Y19281505D01*
X23898495Y19448599D01*
X24034035Y19642170D01*
X24133903Y19856337D01*
X24195063Y20084592D01*
X24215659Y20320000D01*
X24195063Y20555408D01*
X24133903Y20783663D01*
X24034035Y20997829D01*
X23970715Y21088261D01*
X23898494Y21191403D01*
X23731402Y21358494D01*
X23731401Y21358495D01*
X23545842Y21488425D01*
X23545841Y21488426D01*
X23502216Y21543003D01*
X23495024Y21612502D01*
X23526546Y21674856D01*
X23545836Y21691572D01*
X23731401Y21821505D01*
X23898495Y21988599D01*
X24034035Y22182170D01*
X24133903Y22396337D01*
X24195063Y22624592D01*
X24215659Y22860000D01*
X24195063Y23095408D01*
X24133903Y23323663D01*
X24034035Y23537829D01*
X23970715Y23628261D01*
X23898494Y23731403D01*
X23731402Y23898494D01*
X23731396Y23898499D01*
X23545842Y24028425D01*
X23502217Y24083002D01*
X23495023Y24152500D01*
X23526546Y24214855D01*
X23545842Y24231575D01*
X23648090Y24303170D01*
X23731401Y24361505D01*
X23898495Y24528599D01*
X24034035Y24722170D01*
X24133903Y24936337D01*
X24195063Y25164592D01*
X24215659Y25400000D01*
X24195063Y25635408D01*
X24133903Y25863663D01*
X24034035Y26077829D01*
X23970715Y26168261D01*
X23898494Y26271403D01*
X23731402Y26438494D01*
X23731401Y26438495D01*
X23592864Y26535500D01*
X23545841Y26568426D01*
X23502216Y26623003D01*
X23495024Y26692502D01*
X23526546Y26754856D01*
X23545836Y26771572D01*
X23731401Y26901505D01*
X23898495Y27068599D01*
X24034035Y27262170D01*
X24133903Y27476337D01*
X24195063Y27704592D01*
X24215659Y27940000D01*
X24195063Y28175408D01*
X24133903Y28403663D01*
X24034035Y28617829D01*
X24010315Y28651706D01*
X23898494Y28811403D01*
X23731402Y28978494D01*
X23731401Y28978495D01*
X23545405Y29108731D01*
X23501781Y29163308D01*
X23494588Y29232807D01*
X23526110Y29295161D01*
X23545405Y29311881D01*
X23731082Y29441895D01*
X23898105Y29608918D01*
X24033600Y29802422D01*
X24133429Y30016508D01*
X24133432Y30016514D01*
X24190636Y30230000D01*
X23293686Y30230000D01*
X23319493Y30270156D01*
X23360000Y30408111D01*
X23360000Y30551889D01*
X23319493Y30689844D01*
X23293686Y30730000D01*
X24190636Y30730000D01*
X24190635Y30730001D01*
X24133432Y30943487D01*
X24133429Y30943493D01*
X24033600Y31157578D01*
X24033599Y31157580D01*
X23898113Y31351074D01*
X23898108Y31351080D01*
X23731078Y31518110D01*
X23545405Y31648121D01*
X23501780Y31702698D01*
X23494588Y31772196D01*
X23526110Y31834551D01*
X23545406Y31851270D01*
X23545843Y31851576D01*
X23731401Y31981505D01*
X23898495Y32148599D01*
X24034035Y32342170D01*
X24133903Y32556337D01*
X24195063Y32784592D01*
X24215659Y33020000D01*
X24195063Y33255408D01*
X24133903Y33483663D01*
X24034035Y33697829D01*
X23970715Y33788261D01*
X23898494Y33891403D01*
X23731402Y34058494D01*
X23731396Y34058499D01*
X23545842Y34188425D01*
X23502217Y34243002D01*
X23495023Y34312500D01*
X23526546Y34374855D01*
X23545842Y34391575D01*
X23648778Y34463652D01*
X23731401Y34521505D01*
X23898495Y34688599D01*
X24034035Y34882170D01*
X24133903Y35096337D01*
X24195063Y35324592D01*
X24215659Y35560000D01*
X24195063Y35795408D01*
X24133903Y36023663D01*
X24034035Y36237829D01*
X23970715Y36328261D01*
X23898494Y36431403D01*
X23731402Y36598494D01*
X23731401Y36598495D01*
X23545842Y36728425D01*
X23545841Y36728426D01*
X23502216Y36783003D01*
X23495024Y36852502D01*
X23526546Y36914856D01*
X23545836Y36931572D01*
X23731401Y37061505D01*
X23898495Y37228599D01*
X24034035Y37422170D01*
X24133903Y37636337D01*
X24195063Y37864592D01*
X24215659Y38100000D01*
X24195063Y38335408D01*
X24133903Y38563663D01*
X24034035Y38777829D01*
X23970715Y38868261D01*
X23898494Y38971403D01*
X23731402Y39138494D01*
X23731396Y39138499D01*
X23545842Y39268425D01*
X23502217Y39323002D01*
X23495023Y39392500D01*
X23526546Y39454855D01*
X23545842Y39471575D01*
X23607629Y39514839D01*
X23731401Y39601505D01*
X23898495Y39768599D01*
X24034035Y39962170D01*
X24133903Y40176337D01*
X24195063Y40404592D01*
X24215659Y40640000D01*
X24195063Y40875408D01*
X24133903Y41103663D01*
X24034035Y41317829D01*
X24031431Y41321549D01*
X23898494Y41511403D01*
X23731402Y41678494D01*
X23731401Y41678495D01*
X23545842Y41808425D01*
X23545841Y41808426D01*
X23502216Y41863003D01*
X23495024Y41932502D01*
X23526546Y41994856D01*
X23545836Y42011572D01*
X23731401Y42141505D01*
X23898495Y42308599D01*
X24034035Y42502170D01*
X24133903Y42716337D01*
X24195063Y42944592D01*
X24215659Y43180000D01*
X24215398Y43182978D01*
X24198729Y43373504D01*
X24195063Y43415408D01*
X24147373Y43593390D01*
X24133905Y43643656D01*
X24133904Y43643657D01*
X24133903Y43643663D01*
X24034035Y43857829D01*
X23972179Y43946170D01*
X23898494Y44051403D01*
X23731402Y44218494D01*
X23731396Y44218499D01*
X23545842Y44348425D01*
X23502217Y44403002D01*
X23495023Y44472500D01*
X23526546Y44534855D01*
X23545842Y44551575D01*
X23600621Y44589932D01*
X23731401Y44681505D01*
X23898495Y44848599D01*
X24034035Y45042170D01*
X24133903Y45256337D01*
X24195063Y45484592D01*
X24215659Y45720000D01*
X24195063Y45955408D01*
X24133903Y46183663D01*
X24034035Y46397829D01*
X23924350Y46554477D01*
X23898494Y46591403D01*
X23731402Y46758494D01*
X23731401Y46758495D01*
X23545842Y46888425D01*
X23545841Y46888426D01*
X23502216Y46943003D01*
X23495024Y47012502D01*
X23526546Y47074856D01*
X23545836Y47091572D01*
X23731401Y47221505D01*
X23898495Y47388599D01*
X24034035Y47582170D01*
X24133903Y47796337D01*
X24195063Y48024592D01*
X24215659Y48260000D01*
X24195063Y48495408D01*
X24133903Y48723663D01*
X24034035Y48937829D01*
X23898495Y49131401D01*
X23898494Y49131403D01*
X23731402Y49298494D01*
X23731396Y49298499D01*
X23545842Y49428425D01*
X23502217Y49483002D01*
X23495023Y49552500D01*
X23526546Y49614855D01*
X23545842Y49631575D01*
X23583115Y49657674D01*
X23731401Y49761505D01*
X23898495Y49928599D01*
X24034035Y50122170D01*
X24133903Y50336337D01*
X24195063Y50564592D01*
X24215659Y50800000D01*
X24195063Y51035408D01*
X24133903Y51263663D01*
X24034035Y51477829D01*
X23904270Y51663153D01*
X23898496Y51671400D01*
X23898496Y51671401D01*
X23776567Y51793329D01*
X23743084Y51854649D01*
X23748068Y51924341D01*
X23789939Y51980275D01*
X23820915Y51997190D01*
X23952331Y52046204D01*
X24067546Y52132454D01*
X24153796Y52247669D01*
X24204091Y52382517D01*
X24210500Y52442127D01*
X24210499Y54237872D01*
X24204091Y54297483D01*
X24185653Y54346917D01*
X24153797Y54432329D01*
X24153793Y54432336D01*
X24067547Y54547545D01*
X24067544Y54547548D01*
X23952335Y54633794D01*
X23952328Y54633798D01*
X23817482Y54684092D01*
X23817483Y54684092D01*
X23757883Y54690499D01*
X23757881Y54690500D01*
X23757873Y54690500D01*
X23757864Y54690500D01*
X21962129Y54690500D01*
X21962123Y54690499D01*
X21902516Y54684092D01*
X21767671Y54633798D01*
X21767664Y54633794D01*
X21652455Y54547548D01*
X21652452Y54547545D01*
X21566206Y54432336D01*
X21566202Y54432329D01*
X21515908Y54297483D01*
X21512699Y54267628D01*
X21509501Y54237877D01*
X21509500Y54237865D01*
X21509500Y52442130D01*
X21509501Y52442124D01*
X21515908Y52382517D01*
X21566202Y52247672D01*
X21566206Y52247665D01*
X21652452Y52132456D01*
X21652455Y52132453D01*
X21767664Y52046207D01*
X21767671Y52046203D01*
X21899081Y51997190D01*
X21955015Y51955319D01*
X21979432Y51889855D01*
X21964580Y51821582D01*
X21943430Y51793327D01*
X21821503Y51671400D01*
X21685965Y51477831D01*
X21685964Y51477829D01*
X21586098Y51263665D01*
X21586094Y51263656D01*
X21524938Y51035414D01*
X21524936Y51035404D01*
X21504341Y50800001D01*
X21504341Y50800000D01*
X21524936Y50564597D01*
X21524938Y50564587D01*
X21586094Y50336345D01*
X21586096Y50336341D01*
X21586097Y50336337D01*
X21681777Y50131152D01*
X21685965Y50122170D01*
X21685967Y50122166D01*
X21783018Y49983564D01*
X21815725Y49936853D01*
X21821501Y49928605D01*
X21821506Y49928598D01*
X21988597Y49761507D01*
X21988603Y49761502D01*
X22174158Y49631575D01*
X22217783Y49576998D01*
X22224977Y49507500D01*
X22193454Y49445145D01*
X22174158Y49428425D01*
X21988597Y49298495D01*
X21821505Y49131403D01*
X21685965Y48937831D01*
X21685964Y48937829D01*
X21586098Y48723665D01*
X21586094Y48723656D01*
X21524938Y48495414D01*
X21524936Y48495404D01*
X21504341Y48260001D01*
X21504341Y48260000D01*
X21524936Y48024597D01*
X21524938Y48024587D01*
X21586094Y47796345D01*
X21586096Y47796341D01*
X21586097Y47796337D01*
X21631889Y47698137D01*
X21685965Y47582170D01*
X21685967Y47582166D01*
X21821501Y47388605D01*
X21821506Y47388598D01*
X21988597Y47221507D01*
X21988603Y47221502D01*
X22174158Y47091575D01*
X22217783Y47036998D01*
X22224977Y46967500D01*
X22193454Y46905145D01*
X22174158Y46888425D01*
X21988597Y46758495D01*
X21821505Y46591403D01*
X21685965Y46397831D01*
X21685964Y46397829D01*
X21586098Y46183665D01*
X21586094Y46183656D01*
X21524938Y45955414D01*
X21524936Y45955404D01*
X21504341Y45720001D01*
X21504341Y45720000D01*
X21524936Y45484597D01*
X21524938Y45484587D01*
X21586094Y45256345D01*
X21586096Y45256341D01*
X21586097Y45256337D01*
X21656601Y45105142D01*
X21685965Y45042170D01*
X21685967Y45042166D01*
X21821501Y44848605D01*
X21821506Y44848598D01*
X21988597Y44681507D01*
X21988603Y44681502D01*
X22174158Y44551575D01*
X22217783Y44496998D01*
X22224977Y44427500D01*
X22193454Y44365145D01*
X22174158Y44348425D01*
X21988597Y44218495D01*
X21821505Y44051403D01*
X21685965Y43857831D01*
X21685964Y43857829D01*
X21586098Y43643665D01*
X21586094Y43643656D01*
X21524938Y43415414D01*
X21524936Y43415404D01*
X21504341Y43180001D01*
X21504341Y43180000D01*
X21524936Y42944597D01*
X21524938Y42944587D01*
X21586094Y42716345D01*
X21586096Y42716341D01*
X21586097Y42716337D01*
X21644737Y42590583D01*
X21685965Y42502170D01*
X21685967Y42502166D01*
X21821501Y42308605D01*
X21821506Y42308598D01*
X21988597Y42141507D01*
X21988603Y42141502D01*
X22174158Y42011575D01*
X22217783Y41956998D01*
X22224977Y41887500D01*
X22193454Y41825145D01*
X22174158Y41808425D01*
X21988597Y41678495D01*
X21821505Y41511403D01*
X21685965Y41317831D01*
X21685964Y41317829D01*
X21586098Y41103665D01*
X21586094Y41103656D01*
X21524938Y40875414D01*
X21524936Y40875404D01*
X21504341Y40640001D01*
X21504341Y40640000D01*
X21519105Y40471250D01*
X21505338Y40402750D01*
X21456723Y40352566D01*
X21388695Y40336633D01*
X21322851Y40360008D01*
X21307896Y40372761D01*
X21040656Y40640001D01*
X20561598Y41119059D01*
X20559064Y41121750D01*
X20517929Y41168183D01*
X20517928Y41168184D01*
X20517924Y41168188D01*
X20466896Y41203409D01*
X20463887Y41205623D01*
X20415060Y41243876D01*
X20415055Y41243880D01*
X20405813Y41248039D01*
X20386266Y41259064D01*
X20377931Y41264817D01*
X20377932Y41264817D01*
X20377930Y41264818D01*
X20319941Y41286811D01*
X20316490Y41288241D01*
X20259930Y41313696D01*
X20249946Y41315526D01*
X20228343Y41321549D01*
X20218874Y41325140D01*
X20218870Y41325141D01*
X20157313Y41332616D01*
X20153612Y41333179D01*
X20092608Y41344358D01*
X20092603Y41344358D01*
X20030697Y41340613D01*
X20026952Y41340500D01*
X17719653Y41340500D01*
X17652614Y41360185D01*
X17620699Y41389774D01*
X17606740Y41408259D01*
X17504961Y41501043D01*
X17468680Y41560754D01*
X17464500Y41592680D01*
X17464500Y42893952D01*
X17484185Y42960991D01*
X17496737Y42976567D01*
X17496566Y42976711D01*
X17500043Y42980856D01*
X17500047Y42980861D01*
X17630568Y43167266D01*
X17726739Y43373504D01*
X17785635Y43593308D01*
X17805468Y43820000D01*
X17785635Y44046692D01*
X17726739Y44266496D01*
X17630568Y44472734D01*
X17500047Y44659139D01*
X17339139Y44820047D01*
X17298364Y44848598D01*
X17253376Y44880099D01*
X17209751Y44934676D01*
X17200500Y44981674D01*
X17200500Y45368482D01*
X17220185Y45435521D01*
X17236815Y45456159D01*
X17539469Y45758814D01*
X17600790Y45792297D01*
X17649932Y45793019D01*
X17668757Y45789500D01*
X17668759Y45789500D01*
X17891241Y45789500D01*
X17891243Y45789500D01*
X18109940Y45830382D01*
X18317401Y45910753D01*
X18506562Y46027876D01*
X18670981Y46177764D01*
X18805058Y46355311D01*
X18904229Y46554472D01*
X18965115Y46768464D01*
X18985643Y46990000D01*
X18965115Y47211536D01*
X18904229Y47425528D01*
X18904224Y47425539D01*
X18805061Y47624684D01*
X18805056Y47624692D01*
X18670979Y47802239D01*
X18506562Y47952124D01*
X18506560Y47952126D01*
X18317404Y48069246D01*
X18317398Y48069248D01*
X18109940Y48149618D01*
X17891243Y48190500D01*
X17668757Y48190500D01*
X17450060Y48149618D01*
X17318864Y48098793D01*
X17242601Y48069248D01*
X17242595Y48069246D01*
X17053439Y47952126D01*
X17053437Y47952124D01*
X16889020Y47802239D01*
X16841849Y47739773D01*
X16785740Y47698137D01*
X16742895Y47690500D01*
X16277105Y47690500D01*
X16210066Y47710185D01*
X16178151Y47739773D01*
X16130979Y47802239D01*
X15966562Y47952124D01*
X15966560Y47952126D01*
X15777404Y48069246D01*
X15777398Y48069248D01*
X15569940Y48149618D01*
X15351243Y48190500D01*
X15128757Y48190500D01*
X14910060Y48149618D01*
X14778864Y48098793D01*
X14702601Y48069248D01*
X14702595Y48069246D01*
X14513439Y47952126D01*
X14513437Y47952124D01*
X14349020Y47802239D01*
X14301849Y47739773D01*
X14245740Y47698137D01*
X14202895Y47690500D01*
X9323037Y47690500D01*
X9319293Y47690613D01*
X9257397Y47694357D01*
X9257390Y47694357D01*
X9196402Y47683181D01*
X9192701Y47682618D01*
X9131125Y47675140D01*
X9121642Y47671544D01*
X9100038Y47665522D01*
X9098535Y47665246D01*
X9090065Y47663694D01*
X9090063Y47663693D01*
X9033527Y47638248D01*
X9030069Y47636816D01*
X8972069Y47614818D01*
X8963724Y47609058D01*
X8944183Y47598036D01*
X8934944Y47593878D01*
X8934939Y47593875D01*
X8886121Y47555630D01*
X8883106Y47553411D01*
X8832072Y47518184D01*
X8832065Y47518178D01*
X8790942Y47471760D01*
X8788375Y47469034D01*
X6210966Y44891625D01*
X6208240Y44889058D01*
X6161818Y44847932D01*
X6126586Y44796891D01*
X6124368Y44793876D01*
X6086124Y44745061D01*
X6086119Y44745052D01*
X6081960Y44735812D01*
X6070942Y44716277D01*
X6065187Y44707939D01*
X6065183Y44707933D01*
X6065182Y44707930D01*
X6065180Y44707926D01*
X6065179Y44707923D01*
X6043189Y44649945D01*
X6041757Y44646487D01*
X6016305Y44589932D01*
X6014477Y44579958D01*
X6008453Y44558347D01*
X6004860Y44548873D01*
X6004859Y44548872D01*
X5997384Y44487315D01*
X5996821Y44483614D01*
X5985642Y44422610D01*
X5985642Y44422605D01*
X5989387Y44360698D01*
X5989500Y44356953D01*
X5989500Y28764500D01*
X5969815Y28697461D01*
X5917011Y28651706D01*
X5865500Y28640500D01*
X3762711Y28640500D01*
X3695672Y28660185D01*
X3661136Y28693377D01*
X3658276Y28697461D01*
X3635690Y28729717D01*
X3578494Y28811403D01*
X3411402Y28978494D01*
X3411396Y28978499D01*
X3225842Y29108425D01*
X3182217Y29163002D01*
X3175023Y29232500D01*
X3206546Y29294855D01*
X3225842Y29311575D01*
X3328778Y29383652D01*
X3411401Y29441505D01*
X3578495Y29608599D01*
X3714035Y29802170D01*
X3813903Y30016337D01*
X3875063Y30244592D01*
X3895659Y30480000D01*
X3875063Y30715408D01*
X3813903Y30943663D01*
X3714035Y31157829D01*
X3650715Y31248261D01*
X3578494Y31351403D01*
X3411402Y31518494D01*
X3411401Y31518495D01*
X3272864Y31615500D01*
X3225841Y31648426D01*
X3182216Y31703003D01*
X3175024Y31772502D01*
X3206546Y31834856D01*
X3225836Y31851572D01*
X3411401Y31981505D01*
X3578495Y32148599D01*
X3714035Y32342170D01*
X3813903Y32556337D01*
X3875063Y32784592D01*
X3895659Y33020000D01*
X3875063Y33255408D01*
X3813903Y33483663D01*
X3714035Y33697829D01*
X3650715Y33788261D01*
X3578494Y33891403D01*
X3411402Y34058494D01*
X3411396Y34058499D01*
X3225842Y34188425D01*
X3182217Y34243002D01*
X3175023Y34312500D01*
X3206546Y34374855D01*
X3225842Y34391575D01*
X3328778Y34463652D01*
X3411401Y34521505D01*
X3578495Y34688599D01*
X3714035Y34882170D01*
X3813903Y35096337D01*
X3875063Y35324592D01*
X3895659Y35560000D01*
X3875063Y35795408D01*
X3813903Y36023663D01*
X3714035Y36237829D01*
X3650715Y36328261D01*
X3578494Y36431403D01*
X3411402Y36598494D01*
X3411401Y36598495D01*
X3225842Y36728425D01*
X3225841Y36728426D01*
X3182216Y36783003D01*
X3175024Y36852502D01*
X3206546Y36914856D01*
X3225836Y36931572D01*
X3411401Y37061505D01*
X3578495Y37228599D01*
X3714035Y37422170D01*
X3813903Y37636337D01*
X3875063Y37864592D01*
X3895659Y38100000D01*
X3875063Y38335408D01*
X3813903Y38563663D01*
X3714035Y38777829D01*
X3650715Y38868261D01*
X3578494Y38971403D01*
X3411402Y39138494D01*
X3411396Y39138499D01*
X3225842Y39268425D01*
X3182217Y39323002D01*
X3175023Y39392500D01*
X3206546Y39454855D01*
X3225842Y39471575D01*
X3287629Y39514839D01*
X3411401Y39601505D01*
X3578495Y39768599D01*
X3714035Y39962170D01*
X3813903Y40176337D01*
X3875063Y40404592D01*
X3895659Y40640000D01*
X3875063Y40875408D01*
X3813903Y41103663D01*
X3714035Y41317829D01*
X3711431Y41321549D01*
X3578494Y41511403D01*
X3411402Y41678494D01*
X3411396Y41678499D01*
X3225842Y41808425D01*
X3182217Y41863002D01*
X3175023Y41932500D01*
X3206546Y41994855D01*
X3225842Y42011575D01*
X3248026Y42027109D01*
X3411401Y42141505D01*
X3578495Y42308599D01*
X3714035Y42502170D01*
X3813903Y42716337D01*
X3875063Y42944592D01*
X3895659Y43180000D01*
X3895398Y43182978D01*
X3878729Y43373504D01*
X3875063Y43415408D01*
X3827373Y43593390D01*
X3813905Y43643656D01*
X3813904Y43643657D01*
X3813903Y43643663D01*
X3714035Y43857829D01*
X3652179Y43946170D01*
X3578494Y44051403D01*
X3411402Y44218494D01*
X3411396Y44218499D01*
X3225842Y44348425D01*
X3182217Y44403002D01*
X3175023Y44472500D01*
X3206546Y44534855D01*
X3225842Y44551575D01*
X3280621Y44589932D01*
X3411401Y44681505D01*
X3578495Y44848599D01*
X3714035Y45042170D01*
X3813903Y45256337D01*
X3875063Y45484592D01*
X3895659Y45720000D01*
X3875063Y45955408D01*
X3813903Y46183663D01*
X3714035Y46397829D01*
X3604350Y46554477D01*
X3578494Y46591403D01*
X3411402Y46758494D01*
X3411396Y46758499D01*
X3225842Y46888425D01*
X3182217Y46943002D01*
X3175023Y47012500D01*
X3206546Y47074855D01*
X3225842Y47091575D01*
X3248026Y47107109D01*
X3411401Y47221505D01*
X3578495Y47388599D01*
X3714035Y47582170D01*
X3813903Y47796337D01*
X3875063Y48024592D01*
X3895659Y48260000D01*
X3875063Y48495408D01*
X3813903Y48723663D01*
X3714035Y48937829D01*
X3578495Y49131401D01*
X3578494Y49131403D01*
X3411402Y49298494D01*
X3411396Y49298499D01*
X3225842Y49428425D01*
X3182217Y49483002D01*
X3175023Y49552500D01*
X3206546Y49614855D01*
X3225842Y49631575D01*
X3263115Y49657674D01*
X3411401Y49761505D01*
X3502026Y49852130D01*
X7489500Y49852130D01*
X7489501Y49852124D01*
X7495908Y49792517D01*
X7546202Y49657672D01*
X7546206Y49657665D01*
X7632452Y49542456D01*
X7632455Y49542453D01*
X7747664Y49456207D01*
X7747671Y49456203D01*
X7882517Y49405909D01*
X7882516Y49405909D01*
X7889444Y49405165D01*
X7942127Y49399500D01*
X9837872Y49399501D01*
X9897483Y49405909D01*
X10032331Y49456204D01*
X10147546Y49542454D01*
X10233796Y49657669D01*
X10262454Y49734507D01*
X10304326Y49790441D01*
X10369790Y49814859D01*
X10438063Y49800008D01*
X10469866Y49775157D01*
X10477302Y49767080D01*
X10478215Y49766088D01*
X10478222Y49766082D01*
X10661365Y49623536D01*
X10661371Y49623532D01*
X10661374Y49623530D01*
X10865497Y49513064D01*
X10953065Y49483002D01*
X11085015Y49437703D01*
X11085017Y49437703D01*
X11085019Y49437702D01*
X11313951Y49399500D01*
X11313952Y49399500D01*
X11546048Y49399500D01*
X11546049Y49399500D01*
X11774981Y49437702D01*
X11994503Y49513064D01*
X12198626Y49623530D01*
X12208963Y49631575D01*
X12260129Y49671400D01*
X12381784Y49766087D01*
X12538979Y49936847D01*
X12665924Y50131151D01*
X12759157Y50343700D01*
X12816134Y50568695D01*
X12835300Y50800000D01*
X12835300Y50800001D01*
X12835300Y50800007D01*
X12816135Y51031298D01*
X12816133Y51031309D01*
X12759157Y51256301D01*
X12665924Y51468849D01*
X12538983Y51663148D01*
X12538980Y51663151D01*
X12538979Y51663153D01*
X12381784Y51833913D01*
X12381779Y51833917D01*
X12381777Y51833919D01*
X12198634Y51976465D01*
X12198628Y51976469D01*
X11994504Y52086936D01*
X11994495Y52086939D01*
X11774984Y52162298D01*
X11584450Y52194092D01*
X11546049Y52200500D01*
X11313951Y52200500D01*
X11275550Y52194092D01*
X11085015Y52162298D01*
X10865504Y52086939D01*
X10865495Y52086936D01*
X10661371Y51976469D01*
X10661365Y51976465D01*
X10478222Y51833919D01*
X10478218Y51833915D01*
X10469866Y51824842D01*
X10409979Y51788852D01*
X10340141Y51790953D01*
X10282525Y51830478D01*
X10262455Y51865493D01*
X10233797Y51942329D01*
X10233793Y51942336D01*
X10147547Y52057545D01*
X10147544Y52057548D01*
X10032335Y52143794D01*
X10032328Y52143798D01*
X9897482Y52194092D01*
X9897483Y52194092D01*
X9837883Y52200499D01*
X9837881Y52200500D01*
X9837873Y52200500D01*
X9837864Y52200500D01*
X7942129Y52200500D01*
X7942123Y52200499D01*
X7882516Y52194092D01*
X7747671Y52143798D01*
X7747664Y52143794D01*
X7632455Y52057548D01*
X7632452Y52057545D01*
X7546206Y51942336D01*
X7546202Y51942329D01*
X7495908Y51807483D01*
X7489501Y51747884D01*
X7489500Y51747865D01*
X7489500Y49852130D01*
X3502026Y49852130D01*
X3578495Y49928599D01*
X3714035Y50122170D01*
X3813903Y50336337D01*
X3875063Y50564592D01*
X3895659Y50800000D01*
X3875063Y51035408D01*
X3813903Y51263663D01*
X3714035Y51477829D01*
X3584270Y51663153D01*
X3578496Y51671400D01*
X3578496Y51671401D01*
X3456567Y51793329D01*
X3423084Y51854649D01*
X3428068Y51924341D01*
X3469939Y51980275D01*
X3500915Y51997190D01*
X3632331Y52046204D01*
X3747546Y52132454D01*
X3833796Y52247669D01*
X3884091Y52382517D01*
X3890500Y52442127D01*
X3890499Y54237872D01*
X3884091Y54297483D01*
X3865653Y54346917D01*
X3833797Y54432329D01*
X3833793Y54432336D01*
X3747547Y54547545D01*
X3747544Y54547548D01*
X3664119Y54610000D01*
X14034357Y54610000D01*
X14054884Y54388465D01*
X14054885Y54388463D01*
X14115769Y54174477D01*
X14115775Y54174462D01*
X14214938Y53975317D01*
X14214943Y53975309D01*
X14349020Y53797762D01*
X14513437Y53647877D01*
X14513439Y53647875D01*
X14702595Y53530755D01*
X14702596Y53530755D01*
X14702599Y53530753D01*
X14910060Y53450382D01*
X15128757Y53409500D01*
X15128759Y53409500D01*
X15351241Y53409500D01*
X15351243Y53409500D01*
X15569940Y53450382D01*
X15777401Y53530753D01*
X15966562Y53647876D01*
X16130981Y53797764D01*
X16265058Y53975311D01*
X16364229Y54174472D01*
X16390734Y54267629D01*
X16428013Y54326722D01*
X16491323Y54356279D01*
X16560562Y54346917D01*
X16613749Y54301607D01*
X16629266Y54267628D01*
X16655769Y54174477D01*
X16655775Y54174462D01*
X16754938Y53975317D01*
X16754943Y53975309D01*
X16889020Y53797762D01*
X17053437Y53647877D01*
X17053439Y53647875D01*
X17242595Y53530755D01*
X17242596Y53530755D01*
X17242599Y53530753D01*
X17450060Y53450382D01*
X17668757Y53409500D01*
X17668759Y53409500D01*
X17891241Y53409500D01*
X17891243Y53409500D01*
X18109940Y53450382D01*
X18317401Y53530753D01*
X18506562Y53647876D01*
X18670981Y53797764D01*
X18805058Y53975311D01*
X18904229Y54174472D01*
X18965115Y54388464D01*
X18985643Y54610000D01*
X18978777Y54684092D01*
X18965115Y54831536D01*
X18965114Y54831538D01*
X18953293Y54873084D01*
X18904229Y55045528D01*
X18904224Y55045539D01*
X18805061Y55244684D01*
X18805056Y55244692D01*
X18670979Y55422239D01*
X18506562Y55572124D01*
X18506560Y55572126D01*
X18317404Y55689246D01*
X18317398Y55689248D01*
X18109940Y55769618D01*
X17891243Y55810500D01*
X17668757Y55810500D01*
X17450060Y55769618D01*
X17318864Y55718793D01*
X17242601Y55689248D01*
X17242595Y55689246D01*
X17053439Y55572126D01*
X17053437Y55572124D01*
X16889020Y55422239D01*
X16754943Y55244692D01*
X16754938Y55244684D01*
X16655775Y55045539D01*
X16655769Y55045524D01*
X16629266Y54952373D01*
X16591987Y54893279D01*
X16528677Y54863722D01*
X16459438Y54873084D01*
X16406251Y54918394D01*
X16390734Y54952373D01*
X16364230Y55045524D01*
X16364229Y55045528D01*
X16364224Y55045539D01*
X16265061Y55244684D01*
X16265056Y55244692D01*
X16130979Y55422239D01*
X15966562Y55572124D01*
X15966560Y55572126D01*
X15777404Y55689246D01*
X15777398Y55689248D01*
X15569940Y55769618D01*
X15351243Y55810500D01*
X15128757Y55810500D01*
X14910060Y55769618D01*
X14778864Y55718793D01*
X14702601Y55689248D01*
X14702595Y55689246D01*
X14513439Y55572126D01*
X14513437Y55572124D01*
X14349020Y55422239D01*
X14214943Y55244692D01*
X14214938Y55244684D01*
X14115775Y55045539D01*
X14115769Y55045524D01*
X14054885Y54831538D01*
X14054884Y54831536D01*
X14034357Y54610001D01*
X14034357Y54610000D01*
X3664119Y54610000D01*
X3632335Y54633794D01*
X3632328Y54633798D01*
X3497482Y54684092D01*
X3497483Y54684092D01*
X3437883Y54690499D01*
X3437881Y54690500D01*
X3437873Y54690500D01*
X3437864Y54690500D01*
X1642129Y54690500D01*
X1642123Y54690499D01*
X1582516Y54684092D01*
X1447671Y54633798D01*
X1447664Y54633794D01*
X1332455Y54547548D01*
X1332452Y54547545D01*
X1246206Y54432336D01*
X1246202Y54432329D01*
X1195908Y54297483D01*
X1192699Y54267628D01*
X1189501Y54237877D01*
X1189500Y54237865D01*
X1189500Y52442130D01*
X1189501Y52442124D01*
X1195908Y52382517D01*
X1246202Y52247672D01*
X1246206Y52247665D01*
X1332452Y52132456D01*
X1332455Y52132453D01*
X1447664Y52046207D01*
X1447671Y52046203D01*
X1579081Y51997190D01*
X1635015Y51955319D01*
X1659432Y51889855D01*
X1644580Y51821582D01*
X1623430Y51793327D01*
X1501503Y51671400D01*
X1365965Y51477831D01*
X1365964Y51477829D01*
X1266098Y51263665D01*
X1266094Y51263656D01*
X1204938Y51035414D01*
X1204936Y51035404D01*
X1184341Y50800001D01*
X1184341Y50800000D01*
X1204936Y50564597D01*
X1204938Y50564587D01*
X1266094Y50336345D01*
X1266096Y50336341D01*
X1266097Y50336337D01*
X1361777Y50131152D01*
X1365965Y50122170D01*
X1365967Y50122166D01*
X1463018Y49983564D01*
X1495725Y49936853D01*
X1501501Y49928605D01*
X1501506Y49928598D01*
X1668597Y49761507D01*
X1668603Y49761502D01*
X1854158Y49631575D01*
X1897783Y49576998D01*
X1904977Y49507500D01*
X1873454Y49445145D01*
X1854158Y49428425D01*
X1668597Y49298495D01*
X1501505Y49131403D01*
X1365965Y48937831D01*
X1365964Y48937829D01*
X1266098Y48723665D01*
X1266094Y48723656D01*
X1204938Y48495414D01*
X1204936Y48495404D01*
X1184341Y48260001D01*
X1184341Y48260000D01*
X1204936Y48024597D01*
X1204938Y48024587D01*
X1266094Y47796345D01*
X1266096Y47796341D01*
X1266097Y47796337D01*
X1311889Y47698137D01*
X1365965Y47582170D01*
X1365967Y47582166D01*
X1501501Y47388605D01*
X1501506Y47388598D01*
X1668597Y47221507D01*
X1668603Y47221502D01*
X1854158Y47091575D01*
X1897783Y47036998D01*
X1904977Y46967500D01*
X1873454Y46905145D01*
X1854158Y46888425D01*
X1668597Y46758495D01*
X1501505Y46591403D01*
X1365965Y46397831D01*
X1365964Y46397829D01*
X1266098Y46183665D01*
X1266094Y46183656D01*
X1204938Y45955414D01*
X1204936Y45955404D01*
X1184341Y45720001D01*
X1184341Y45720000D01*
X1204936Y45484597D01*
X1204938Y45484587D01*
X1266094Y45256345D01*
X1266096Y45256341D01*
X1266097Y45256337D01*
X1336601Y45105142D01*
X1365965Y45042170D01*
X1365967Y45042166D01*
X1501501Y44848605D01*
X1501506Y44848598D01*
X1668597Y44681507D01*
X1668603Y44681502D01*
X1854158Y44551575D01*
X1897783Y44496998D01*
X1904977Y44427500D01*
X1873454Y44365145D01*
X1854158Y44348425D01*
X1668597Y44218495D01*
X1501505Y44051403D01*
X1365965Y43857831D01*
X1365964Y43857829D01*
X1266098Y43643665D01*
X1266094Y43643656D01*
X1204938Y43415414D01*
X1204936Y43415404D01*
X1184341Y43180001D01*
X1184341Y43180000D01*
X1204936Y42944597D01*
X1204938Y42944587D01*
X1266094Y42716345D01*
X1266096Y42716341D01*
X1266097Y42716337D01*
X1324737Y42590583D01*
X1365965Y42502170D01*
X1365967Y42502166D01*
X1501501Y42308605D01*
X1501506Y42308598D01*
X1668597Y42141507D01*
X1668603Y42141502D01*
X1854158Y42011575D01*
X1897783Y41956998D01*
X1904977Y41887500D01*
X1873454Y41825145D01*
X1854158Y41808425D01*
X1668597Y41678495D01*
X1501505Y41511403D01*
X1365965Y41317831D01*
X1365964Y41317829D01*
X1266098Y41103665D01*
X1266094Y41103656D01*
X1204938Y40875414D01*
X1204936Y40875404D01*
X1184341Y40640001D01*
X1184341Y40640000D01*
X1204936Y40404597D01*
X1204938Y40404587D01*
X1266094Y40176345D01*
X1266096Y40176341D01*
X1266097Y40176337D01*
X1302533Y40098201D01*
X1365965Y39962170D01*
X1365967Y39962166D01*
X1429934Y39870813D01*
X1501501Y39768604D01*
X1501506Y39768598D01*
X1668597Y39601507D01*
X1668603Y39601502D01*
X1854158Y39471575D01*
X1897783Y39416998D01*
X1904977Y39347500D01*
X1873454Y39285145D01*
X1854158Y39268425D01*
X1668597Y39138495D01*
X1501505Y38971403D01*
X1365965Y38777831D01*
X1365964Y38777829D01*
X1266098Y38563665D01*
X1266094Y38563656D01*
X1204938Y38335414D01*
X1204936Y38335404D01*
X1184341Y38100001D01*
X1184341Y38100000D01*
X1204936Y37864597D01*
X1204938Y37864587D01*
X1266094Y37636345D01*
X1266096Y37636341D01*
X1266097Y37636337D01*
X1316628Y37527973D01*
X1365965Y37422170D01*
X1365967Y37422166D01*
X1429934Y37330813D01*
X1501501Y37228604D01*
X1501506Y37228598D01*
X1668597Y37061507D01*
X1668603Y37061502D01*
X1854158Y36931575D01*
X1897783Y36876998D01*
X1904977Y36807500D01*
X1873454Y36745145D01*
X1854158Y36728425D01*
X1668597Y36598495D01*
X1501505Y36431403D01*
X1365965Y36237831D01*
X1365964Y36237829D01*
X1266098Y36023665D01*
X1266094Y36023656D01*
X1204938Y35795414D01*
X1204936Y35795404D01*
X1184341Y35560001D01*
X1184341Y35560000D01*
X1204936Y35324597D01*
X1204938Y35324587D01*
X1266094Y35096345D01*
X1266096Y35096341D01*
X1266097Y35096337D01*
X1292692Y35039304D01*
X1365965Y34882170D01*
X1365967Y34882166D01*
X1501501Y34688605D01*
X1501506Y34688598D01*
X1668597Y34521507D01*
X1668603Y34521502D01*
X1854158Y34391575D01*
X1897783Y34336998D01*
X1904977Y34267500D01*
X1873454Y34205145D01*
X1854158Y34188425D01*
X1668597Y34058495D01*
X1501505Y33891403D01*
X1365965Y33697831D01*
X1365964Y33697829D01*
X1266098Y33483665D01*
X1266094Y33483656D01*
X1204938Y33255414D01*
X1204936Y33255404D01*
X1184341Y33020001D01*
X1184341Y33020000D01*
X1204936Y32784597D01*
X1204938Y32784587D01*
X1266094Y32556345D01*
X1266096Y32556341D01*
X1266097Y32556337D01*
X1329701Y32419939D01*
X1365965Y32342170D01*
X1365967Y32342166D01*
X1501501Y32148605D01*
X1501506Y32148598D01*
X1668597Y31981507D01*
X1668603Y31981502D01*
X1854158Y31851575D01*
X1897783Y31796998D01*
X1904977Y31727500D01*
X1873454Y31665145D01*
X1854158Y31648425D01*
X1668597Y31518495D01*
X1501505Y31351403D01*
X1365965Y31157831D01*
X1365964Y31157829D01*
X1266098Y30943665D01*
X1266094Y30943656D01*
X1204938Y30715414D01*
X1204936Y30715404D01*
X1184341Y30480001D01*
X1184341Y30480000D01*
X1204936Y30244597D01*
X1204938Y30244587D01*
X1266094Y30016345D01*
X1266096Y30016341D01*
X1266097Y30016337D01*
X1329701Y29879939D01*
X1365965Y29802170D01*
X1365967Y29802166D01*
X1501501Y29608605D01*
X1501506Y29608598D01*
X1668597Y29441507D01*
X1668603Y29441502D01*
X1854158Y29311575D01*
X1897783Y29256998D01*
X1904977Y29187500D01*
X1873454Y29125145D01*
X1854158Y29108425D01*
X1668597Y28978495D01*
X1501505Y28811403D01*
X1365965Y28617831D01*
X1365964Y28617829D01*
X1266098Y28403665D01*
X1266094Y28403656D01*
X1204938Y28175414D01*
X1204936Y28175404D01*
X1184341Y27940001D01*
X1184341Y27940000D01*
X1204936Y27704597D01*
X1204938Y27704587D01*
X1266094Y27476345D01*
X1266096Y27476341D01*
X1266097Y27476337D01*
X1329701Y27339939D01*
X1365965Y27262170D01*
X1365967Y27262166D01*
X1474281Y27107479D01*
X1501505Y27068599D01*
X1668599Y26901505D01*
X1807136Y26804500D01*
X1854594Y26771270D01*
X1898219Y26716693D01*
X1905413Y26647195D01*
X1873890Y26584840D01*
X1854595Y26568120D01*
X1668922Y26438110D01*
X1668920Y26438109D01*
X1501891Y26271080D01*
X1501886Y26271074D01*
X1366400Y26077580D01*
X1366399Y26077578D01*
X1266570Y25863493D01*
X1266567Y25863487D01*
X1209364Y25650001D01*
X1209364Y25650000D01*
X2106314Y25650000D01*
X2080507Y25609844D01*
X2040000Y25471889D01*
X2040000Y25328111D01*
X2080507Y25190156D01*
X2106314Y25150000D01*
X1209364Y25150000D01*
X1266567Y24936514D01*
X1266570Y24936508D01*
X1366399Y24722422D01*
X1501894Y24528918D01*
X1668917Y24361895D01*
X1854595Y24231881D01*
X1898219Y24177304D01*
X1905412Y24107805D01*
X1873890Y24045451D01*
X1854595Y24028731D01*
X1668594Y23898492D01*
X1501505Y23731403D01*
X1365965Y23537831D01*
X1365964Y23537829D01*
X1266098Y23323665D01*
X1266094Y23323656D01*
X1204938Y23095414D01*
X1204936Y23095404D01*
X1184341Y22860001D01*
X1184341Y22860000D01*
X1204936Y22624597D01*
X1204938Y22624587D01*
X1266094Y22396345D01*
X1266096Y22396341D01*
X1266097Y22396337D01*
X1329824Y22259675D01*
X1365965Y22182170D01*
X1365967Y22182166D01*
X1501501Y21988605D01*
X1501506Y21988598D01*
X1668597Y21821507D01*
X1668603Y21821502D01*
X1854158Y21691575D01*
X1897783Y21636998D01*
X1904977Y21567500D01*
X1873454Y21505145D01*
X1854158Y21488425D01*
X1668597Y21358495D01*
X1501505Y21191403D01*
X1365965Y20997831D01*
X1365964Y20997829D01*
X1266098Y20783665D01*
X1266094Y20783656D01*
X1204938Y20555414D01*
X1204936Y20555404D01*
X1184341Y20320001D01*
X1184341Y20320000D01*
X1204936Y20084597D01*
X1204938Y20084587D01*
X1266094Y19856345D01*
X1266096Y19856341D01*
X1266097Y19856337D01*
X1329824Y19719675D01*
X1365965Y19642170D01*
X1365967Y19642166D01*
X1501501Y19448605D01*
X1501506Y19448598D01*
X1668597Y19281507D01*
X1668603Y19281502D01*
X1854158Y19151575D01*
X1897783Y19096998D01*
X1904977Y19027500D01*
X1873454Y18965145D01*
X1854158Y18948425D01*
X1668597Y18818495D01*
X1501505Y18651403D01*
X1365965Y18457831D01*
X1365964Y18457829D01*
X1266098Y18243665D01*
X1266094Y18243656D01*
X1204938Y18015414D01*
X1204936Y18015404D01*
X1184341Y17780001D01*
X1184341Y17780000D01*
X1204936Y17544597D01*
X1204938Y17544587D01*
X1266094Y17316345D01*
X1266096Y17316341D01*
X1266097Y17316337D01*
X1272409Y17302801D01*
X1365965Y17102170D01*
X1365967Y17102166D01*
X1501501Y16908605D01*
X1501506Y16908598D01*
X1668597Y16741507D01*
X1668603Y16741502D01*
X1854158Y16611575D01*
X1897783Y16556998D01*
X1904977Y16487500D01*
X1873454Y16425145D01*
X1854158Y16408425D01*
X1668597Y16278495D01*
X1501505Y16111403D01*
X1365965Y15917831D01*
X1365964Y15917829D01*
X1266098Y15703665D01*
X1266094Y15703656D01*
X1204938Y15475414D01*
X1204936Y15475404D01*
X1184341Y15240001D01*
X1184341Y15240000D01*
X1204936Y15004597D01*
X1204938Y15004587D01*
X1266094Y14776345D01*
X1266096Y14776341D01*
X1266097Y14776337D01*
X1324897Y14650240D01*
X1365965Y14562170D01*
X1365967Y14562166D01*
X1501501Y14368605D01*
X1501506Y14368598D01*
X1668597Y14201507D01*
X1668603Y14201502D01*
X1854158Y14071575D01*
X1897783Y14016998D01*
X1904977Y13947500D01*
X1873454Y13885145D01*
X1854158Y13868425D01*
X1668597Y13738495D01*
X1501505Y13571403D01*
X1365965Y13377831D01*
X1365964Y13377829D01*
X1266098Y13163665D01*
X1266094Y13163656D01*
X1204938Y12935414D01*
X1204936Y12935404D01*
X1184341Y12700001D01*
X1184341Y12700000D01*
X1204936Y12464597D01*
X1204938Y12464587D01*
X1266094Y12236345D01*
X1266096Y12236341D01*
X1266097Y12236337D01*
X1365965Y12022170D01*
X1365967Y12022166D01*
X1501501Y11828605D01*
X1501506Y11828598D01*
X1668597Y11661507D01*
X1668603Y11661502D01*
X1854158Y11531575D01*
X1897783Y11476998D01*
X1904977Y11407500D01*
X1873454Y11345145D01*
X1854158Y11328425D01*
X1668597Y11198495D01*
X1501505Y11031403D01*
X1365965Y10837831D01*
X1365964Y10837829D01*
X1266098Y10623665D01*
X1266094Y10623656D01*
X1204938Y10395414D01*
X1204936Y10395404D01*
X1184341Y10160001D01*
X1184341Y10160000D01*
X1204936Y9924597D01*
X1204938Y9924587D01*
X1266094Y9696345D01*
X1266096Y9696341D01*
X1266097Y9696337D01*
X1362010Y9490652D01*
X1365965Y9482170D01*
X1365967Y9482166D01*
X1468631Y9335548D01*
X1492098Y9302033D01*
X1501501Y9288605D01*
X1501506Y9288598D01*
X1668597Y9121507D01*
X1668603Y9121502D01*
X1854158Y8991575D01*
X1897783Y8936998D01*
X1904977Y8867500D01*
X1873454Y8805145D01*
X1854158Y8788425D01*
X1668597Y8658495D01*
X1501505Y8491403D01*
X1365965Y8297831D01*
X1365964Y8297829D01*
X1266098Y8083665D01*
X1266094Y8083656D01*
X1204938Y7855414D01*
X1204936Y7855404D01*
X1184341Y7620001D01*
X1184341Y7620000D01*
X1204936Y7384597D01*
X1204938Y7384587D01*
X1266094Y7156345D01*
X1266096Y7156341D01*
X1266097Y7156337D01*
X1360464Y6953966D01*
X1365965Y6942170D01*
X1365967Y6942166D01*
X1501501Y6748605D01*
X1501506Y6748598D01*
X1668597Y6581507D01*
X1668603Y6581502D01*
X1854158Y6451575D01*
X1897783Y6396998D01*
X1904977Y6327500D01*
X1873454Y6265145D01*
X1854158Y6248425D01*
X1668597Y6118495D01*
X1501505Y5951403D01*
X1365965Y5757831D01*
X1365964Y5757829D01*
X1266098Y5543665D01*
X1266094Y5543656D01*
X1204938Y5315414D01*
X1204936Y5315404D01*
X1184341Y5080001D01*
X1184341Y5080000D01*
X300500Y5080000D01*
X300500Y56385295D01*
X300736Y56390701D01*
X314283Y56545544D01*
X318034Y56566822D01*
X356161Y56709116D01*
X363553Y56729421D01*
X425802Y56862915D01*
X436609Y56881634D01*
X521100Y57002300D01*
X534988Y57018852D01*
X639148Y57123012D01*
X655700Y57136900D01*
X776366Y57221391D01*
X795085Y57232198D01*
X928579Y57294447D01*
X948884Y57301839D01*
X1091178Y57339966D01*
X1112451Y57343717D01*
X1267305Y57357265D01*
X1272706Y57357500D01*
X1317595Y57357500D01*
X24082405Y57357500D01*
X24127294Y57357500D01*
X24132694Y57357265D01*
G37*
%TD.AperFunction*%
M02*
