%TF.GenerationSoftware,KiCad,Pcbnew,7.0.5*%
%TF.CreationDate,2023-09-18T23:30:41+09:00*%
%TF.ProjectId,PIC18F47QXX_SD,50494331-3846-4343-9751-58585f53442e,1.1*%
%TF.SameCoordinates,PX60e4b00PY791ddc0*%
%TF.FileFunction,Copper,L2,Bot*%
%TF.FilePolarity,Positive*%
%FSLAX46Y46*%
G04 Gerber Fmt 4.6, Leading zero omitted, Abs format (unit mm)*
G04 Created by KiCad (PCBNEW 7.0.5) date 2023-09-18 23:30:41*
%MOMM*%
%LPD*%
G01*
G04 APERTURE LIST*
%TA.AperFunction,ComponentPad*%
%ADD10C,1.400000*%
%TD*%
%TA.AperFunction,ComponentPad*%
%ADD11O,1.400000X1.400000*%
%TD*%
%TA.AperFunction,ComponentPad*%
%ADD12C,1.600000*%
%TD*%
%TA.AperFunction,ComponentPad*%
%ADD13R,1.800000X1.800000*%
%TD*%
%TA.AperFunction,ComponentPad*%
%ADD14C,1.800000*%
%TD*%
%TA.AperFunction,ComponentPad*%
%ADD15C,1.270000*%
%TD*%
%TA.AperFunction,ComponentPad*%
%ADD16R,1.700000X1.700000*%
%TD*%
%TA.AperFunction,ComponentPad*%
%ADD17O,1.700000X1.700000*%
%TD*%
%TA.AperFunction,ViaPad*%
%ADD18C,0.605000*%
%TD*%
%TA.AperFunction,Conductor*%
%ADD19C,0.152400*%
%TD*%
G04 APERTURE END LIST*
D10*
X17780000Y46990000D03*
D11*
X17780000Y54610000D03*
D12*
X14000000Y43820000D03*
X16500000Y43820000D03*
D13*
X8890000Y50800000D03*
D14*
X11430000Y50800000D03*
D10*
X15240000Y46990000D03*
D11*
X15240000Y54610000D03*
D15*
X9144000Y40640000D03*
X9144000Y38100000D03*
X9144000Y35560000D03*
X9144000Y33020000D03*
X9144000Y30480000D03*
X9144000Y27940000D03*
X9144000Y25400000D03*
X9144000Y22860000D03*
X9144000Y20320000D03*
X9144000Y17780000D03*
X16764000Y17780000D03*
X16764000Y20320000D03*
X16764000Y22860000D03*
X16764000Y25400000D03*
X16764000Y27940000D03*
X16764000Y30480000D03*
X16764000Y33020000D03*
X16764000Y35560000D03*
X16764000Y38100000D03*
X16764000Y40640000D03*
D16*
X19050000Y8128000D03*
D17*
X16510000Y8128000D03*
X13970000Y8128000D03*
X11430000Y8128000D03*
X8890000Y8128000D03*
X6350000Y8128000D03*
D16*
X2540000Y53340000D03*
D17*
X2540000Y50800000D03*
X2540000Y48260000D03*
X2540000Y45720000D03*
X2540000Y43180000D03*
X2540000Y40640000D03*
X2540000Y38100000D03*
X2540000Y35560000D03*
X2540000Y33020000D03*
X2540000Y30480000D03*
X2540000Y27940000D03*
X2540000Y25400000D03*
X2540000Y22860000D03*
X2540000Y20320000D03*
X2540000Y17780000D03*
X2540000Y15240000D03*
X2540000Y12700000D03*
X2540000Y10160000D03*
X2540000Y7620000D03*
X2540000Y5080000D03*
D16*
X22860000Y53340000D03*
D17*
X22860000Y50800000D03*
X22860000Y48260000D03*
X22860000Y45720000D03*
X22860000Y43180000D03*
X22860000Y40640000D03*
X22860000Y38100000D03*
X22860000Y35560000D03*
X22860000Y33020000D03*
X22860000Y30480000D03*
X22860000Y27940000D03*
X22860000Y25400000D03*
X22860000Y22860000D03*
X22860000Y20320000D03*
X22860000Y17780000D03*
X22860000Y15240000D03*
X22860000Y12700000D03*
X22860000Y10160000D03*
X22860000Y7620000D03*
X22860000Y5080000D03*
D18*
X19761200Y38100000D03*
X20320000Y48260000D03*
X12700000Y12065000D03*
X10064455Y43084455D03*
X8890000Y11430000D03*
X6350000Y54610000D03*
X12700000Y22860000D03*
X8890000Y15240000D03*
X20320000Y15240000D03*
X5080000Y38100000D03*
X10160000Y54610000D03*
X12700000Y19050000D03*
X5080000Y43180000D03*
X15240000Y29210000D03*
X20320000Y53340000D03*
X12700000Y15240000D03*
X20320000Y25400000D03*
X20320000Y32090000D03*
X15240000Y26670000D03*
X17780000Y11430000D03*
X11430000Y26670000D03*
X15240000Y21590000D03*
X2540000Y2540000D03*
X20320000Y20320000D03*
X5080000Y33020000D03*
X8890000Y2540000D03*
X20320000Y11430000D03*
X11430000Y33020000D03*
X6350000Y46990000D03*
X20320000Y2540000D03*
X12446000Y38100000D03*
X20320000Y43180000D03*
X4630000Y26410000D03*
X8890000Y44450000D03*
D19*
X8890000Y50800000D02*
X8890000Y46990000D01*
X12170000Y40154000D02*
X12170000Y43710000D01*
X12170000Y43710000D02*
X8890000Y46990000D01*
X16764000Y35560000D02*
X12170000Y40154000D01*
X9144000Y40640000D02*
X4064000Y35560000D01*
X4064000Y35560000D02*
X2540000Y35560000D01*
X9144000Y25400000D02*
X10760000Y23784000D01*
X5285315Y15240000D02*
X10760000Y20714685D01*
X2540000Y15240000D02*
X5285315Y15240000D01*
X10760000Y23784000D02*
X10760000Y20714685D01*
X11430000Y50800000D02*
X15240000Y54610000D01*
X4064000Y17780000D02*
X9144000Y22860000D01*
X2540000Y17780000D02*
X4064000Y17780000D01*
X2540000Y12700000D02*
X11684000Y12700000D01*
X11684000Y12700000D02*
X16764000Y17780000D01*
X8890000Y44450000D02*
X6350000Y44450000D01*
X6350000Y44450000D02*
X2540000Y48260000D01*
X19050000Y8128000D02*
X19050000Y30734000D01*
X18708600Y34964600D02*
X16764000Y33020000D01*
X19050000Y30734000D02*
X16764000Y33020000D01*
X18708600Y53681400D02*
X18708600Y34964600D01*
X17780000Y54610000D02*
X18708600Y53681400D01*
%TA.AperFunction,Conductor*%
G36*
X16560562Y54346917D02*
G01*
X16613749Y54301607D01*
X16629266Y54267628D01*
X16655769Y54174477D01*
X16655775Y54174462D01*
X16754938Y53975317D01*
X16754943Y53975309D01*
X16889020Y53797762D01*
X17053437Y53647877D01*
X17053439Y53647875D01*
X17242595Y53530755D01*
X17242596Y53530755D01*
X17242599Y53530753D01*
X17450060Y53450382D01*
X17668757Y53409500D01*
X17668759Y53409500D01*
X17891242Y53409500D01*
X17891243Y53409500D01*
X17985114Y53427048D01*
X18054629Y53420018D01*
X18109308Y53376521D01*
X18131791Y53310368D01*
X18131900Y53305160D01*
X18131900Y48294841D01*
X18112215Y48227802D01*
X18059411Y48182047D01*
X17990253Y48172103D01*
X17985115Y48172952D01*
X17891243Y48190500D01*
X17668757Y48190500D01*
X17450060Y48149618D01*
X17318864Y48098793D01*
X17242601Y48069248D01*
X17242595Y48069246D01*
X17053439Y47952126D01*
X17053437Y47952124D01*
X16889020Y47802239D01*
X16754943Y47624692D01*
X16754938Y47624684D01*
X16655775Y47425539D01*
X16655769Y47425524D01*
X16629266Y47332373D01*
X16591987Y47273279D01*
X16528677Y47243722D01*
X16459438Y47253084D01*
X16406251Y47298394D01*
X16390734Y47332373D01*
X16374736Y47388599D01*
X16364229Y47425528D01*
X16364224Y47425539D01*
X16265061Y47624684D01*
X16265056Y47624692D01*
X16130979Y47802239D01*
X15966562Y47952124D01*
X15966560Y47952126D01*
X15777404Y48069246D01*
X15777398Y48069248D01*
X15569940Y48149618D01*
X15351243Y48190500D01*
X15128757Y48190500D01*
X14910060Y48149618D01*
X14778864Y48098793D01*
X14702601Y48069248D01*
X14702595Y48069246D01*
X14513439Y47952126D01*
X14513437Y47952124D01*
X14349020Y47802239D01*
X14214943Y47624692D01*
X14214938Y47624684D01*
X14115775Y47425539D01*
X14115769Y47425524D01*
X14054885Y47211538D01*
X14054884Y47211536D01*
X14034357Y46990001D01*
X14034357Y46990000D01*
X14054884Y46768465D01*
X14054885Y46768463D01*
X14115769Y46554477D01*
X14115775Y46554462D01*
X14214938Y46355317D01*
X14214943Y46355309D01*
X14349020Y46177762D01*
X14513437Y46027877D01*
X14513439Y46027875D01*
X14702595Y45910755D01*
X14702596Y45910755D01*
X14702599Y45910753D01*
X14910060Y45830382D01*
X15128757Y45789500D01*
X15128759Y45789500D01*
X15351241Y45789500D01*
X15351243Y45789500D01*
X15569940Y45830382D01*
X15777401Y45910753D01*
X15966562Y46027876D01*
X16106282Y46155249D01*
X16130979Y46177762D01*
X16135436Y46183663D01*
X16265058Y46355311D01*
X16364229Y46554472D01*
X16390734Y46647629D01*
X16428013Y46706722D01*
X16491323Y46736279D01*
X16560562Y46726917D01*
X16613749Y46681607D01*
X16629266Y46647628D01*
X16655769Y46554477D01*
X16655775Y46554462D01*
X16754938Y46355317D01*
X16754943Y46355309D01*
X16889020Y46177762D01*
X17053437Y46027877D01*
X17053439Y46027875D01*
X17242595Y45910755D01*
X17242596Y45910755D01*
X17242599Y45910753D01*
X17450060Y45830382D01*
X17668757Y45789500D01*
X17668759Y45789500D01*
X17891242Y45789500D01*
X17891243Y45789500D01*
X17985114Y45807048D01*
X18054629Y45800018D01*
X18109308Y45756521D01*
X18131791Y45690368D01*
X18131900Y45685160D01*
X18131900Y40866585D01*
X18112215Y40799546D01*
X18059411Y40753791D01*
X17990253Y40743847D01*
X17926697Y40772872D01*
X17888923Y40831650D01*
X17886554Y40844008D01*
X17886002Y40843904D01*
X17884949Y40849534D01*
X17884948Y40849538D01*
X17884948Y40849542D01*
X17827359Y41051947D01*
X17733558Y41240325D01*
X17606740Y41408259D01*
X17451223Y41550031D01*
X17451221Y41550033D01*
X17272307Y41660812D01*
X17272301Y41660815D01*
X17117648Y41720727D01*
X17076076Y41736832D01*
X16869220Y41775500D01*
X16658780Y41775500D01*
X16451924Y41736832D01*
X16451921Y41736832D01*
X16451921Y41736831D01*
X16255698Y41660815D01*
X16255692Y41660812D01*
X16076778Y41550033D01*
X16076776Y41550031D01*
X15921261Y41408261D01*
X15794442Y41240326D01*
X15700642Y41051951D01*
X15700640Y41051947D01*
X15700641Y41051947D01*
X15650412Y40875408D01*
X15643051Y40849538D01*
X15623634Y40640001D01*
X15623634Y40640000D01*
X15643051Y40430463D01*
X15643051Y40430461D01*
X15643052Y40430458D01*
X15700641Y40228053D01*
X15700642Y40228050D01*
X15794442Y40039675D01*
X15921261Y39871740D01*
X16076776Y39729970D01*
X16076778Y39729968D01*
X16255692Y39619189D01*
X16255698Y39619186D01*
X16297268Y39603082D01*
X16451924Y39543168D01*
X16658780Y39504500D01*
X16658782Y39504500D01*
X16869218Y39504500D01*
X16869220Y39504500D01*
X17076076Y39543168D01*
X17272304Y39619187D01*
X17451223Y39729969D01*
X17606740Y39871741D01*
X17733558Y40039675D01*
X17827359Y40228053D01*
X17884948Y40430458D01*
X17884949Y40430467D01*
X17886002Y40436096D01*
X17888693Y40435593D01*
X17910210Y40489788D01*
X17967007Y40530479D01*
X18036788Y40534004D01*
X18097397Y40499243D01*
X18129591Y40437233D01*
X18131900Y40413416D01*
X18131900Y38326585D01*
X18112215Y38259546D01*
X18059411Y38213791D01*
X17990253Y38203847D01*
X17926697Y38232872D01*
X17888923Y38291650D01*
X17886554Y38304008D01*
X17886002Y38303904D01*
X17884949Y38309534D01*
X17884948Y38309538D01*
X17884948Y38309542D01*
X17827359Y38511947D01*
X17733558Y38700325D01*
X17606740Y38868259D01*
X17451223Y39010031D01*
X17451221Y39010033D01*
X17272307Y39120812D01*
X17272301Y39120815D01*
X17117648Y39180727D01*
X17076076Y39196832D01*
X16869220Y39235500D01*
X16658780Y39235500D01*
X16451924Y39196832D01*
X16451921Y39196832D01*
X16451921Y39196831D01*
X16255698Y39120815D01*
X16255692Y39120812D01*
X16076778Y39010033D01*
X16076776Y39010031D01*
X15921261Y38868261D01*
X15794442Y38700326D01*
X15700642Y38511951D01*
X15681427Y38444418D01*
X15643544Y38311269D01*
X15643051Y38309538D01*
X15623634Y38100001D01*
X15623634Y38100000D01*
X15643051Y37890461D01*
X15669048Y37799091D01*
X15668460Y37729224D01*
X15630193Y37670766D01*
X15566396Y37642276D01*
X15497323Y37652801D01*
X15462100Y37677477D01*
X14616324Y38523253D01*
X12783016Y40356562D01*
X12749533Y40417882D01*
X12746700Y40444231D01*
X12746700Y42974454D01*
X12766385Y43041494D01*
X12819189Y43087248D01*
X12881509Y43097982D01*
X12920974Y43094529D01*
X13602046Y43775601D01*
X13614835Y43694852D01*
X13672359Y43581955D01*
X13761955Y43492359D01*
X13874852Y43434835D01*
X13955599Y43422047D01*
X13274526Y42740975D01*
X13274526Y42740974D01*
X13347512Y42689869D01*
X13347516Y42689867D01*
X13553673Y42593735D01*
X13553682Y42593731D01*
X13773389Y42534861D01*
X13773400Y42534859D01*
X13999998Y42515034D01*
X14000002Y42515034D01*
X14226599Y42534859D01*
X14226610Y42534861D01*
X14446317Y42593731D01*
X14446331Y42593736D01*
X14652478Y42689864D01*
X14725472Y42740975D01*
X14044401Y43422047D01*
X14125148Y43434835D01*
X14238045Y43492359D01*
X14327641Y43581955D01*
X14385165Y43694852D01*
X14397953Y43775600D01*
X15079025Y43094528D01*
X15130134Y43167519D01*
X15137340Y43182972D01*
X15183511Y43235413D01*
X15250704Y43254567D01*
X15317585Y43234354D01*
X15362105Y43182978D01*
X15369430Y43167270D01*
X15369432Y43167266D01*
X15499954Y42980859D01*
X15660858Y42819955D01*
X15660861Y42819953D01*
X15847266Y42689432D01*
X16053504Y42593261D01*
X16273308Y42534365D01*
X16435230Y42520199D01*
X16499998Y42514532D01*
X16500000Y42514532D01*
X16500002Y42514532D01*
X16556673Y42519491D01*
X16726692Y42534365D01*
X16946496Y42593261D01*
X17152734Y42689432D01*
X17339139Y42819953D01*
X17500047Y42980861D01*
X17630568Y43167266D01*
X17726739Y43373504D01*
X17785635Y43593308D01*
X17802634Y43787616D01*
X17805468Y43819999D01*
X17805468Y43820002D01*
X17794519Y43945148D01*
X17785635Y44046692D01*
X17726739Y44266496D01*
X17630568Y44472734D01*
X17500047Y44659139D01*
X17500045Y44659142D01*
X17339141Y44820046D01*
X17152734Y44950568D01*
X17152732Y44950569D01*
X16946497Y45046739D01*
X16946488Y45046742D01*
X16726697Y45105634D01*
X16726693Y45105635D01*
X16726692Y45105635D01*
X16726691Y45105636D01*
X16726686Y45105636D01*
X16500002Y45125468D01*
X16499998Y45125468D01*
X16273313Y45105636D01*
X16273302Y45105634D01*
X16053511Y45046742D01*
X16053502Y45046739D01*
X15847267Y44950569D01*
X15847265Y44950568D01*
X15660858Y44820046D01*
X15499954Y44659142D01*
X15369432Y44472735D01*
X15369430Y44472731D01*
X15362105Y44457022D01*
X15315931Y44404583D01*
X15248737Y44385433D01*
X15181857Y44405650D01*
X15137341Y44457026D01*
X15130132Y44472485D01*
X15130131Y44472488D01*
X15079026Y44545474D01*
X15079025Y44545474D01*
X14397953Y43864402D01*
X14385165Y43945148D01*
X14327641Y44058045D01*
X14238045Y44147641D01*
X14125148Y44205165D01*
X14044400Y44217954D01*
X14725472Y44899026D01*
X14725471Y44899027D01*
X14652483Y44950134D01*
X14652481Y44950135D01*
X14446326Y45046266D01*
X14446317Y45046270D01*
X14226610Y45105140D01*
X14226599Y45105142D01*
X14000002Y45124966D01*
X13999998Y45124966D01*
X13773400Y45105142D01*
X13773389Y45105140D01*
X13553682Y45046270D01*
X13553673Y45046266D01*
X13347513Y44950132D01*
X13274527Y44899028D01*
X13274526Y44899027D01*
X13955600Y44217954D01*
X13874852Y44205165D01*
X13761955Y44147641D01*
X13672359Y44058045D01*
X13614835Y43945148D01*
X13602046Y43864401D01*
X12920973Y44545474D01*
X12920972Y44545473D01*
X12869868Y44472487D01*
X12773734Y44266327D01*
X12773731Y44266320D01*
X12756717Y44202822D01*
X12720351Y44143162D01*
X12657504Y44112633D01*
X12588129Y44120928D01*
X12561451Y44136544D01*
X12554281Y44142046D01*
X12548187Y44147390D01*
X9503018Y47192559D01*
X9469533Y47253882D01*
X9466699Y47280240D01*
X9466700Y49275501D01*
X9486385Y49342541D01*
X9539189Y49388295D01*
X9590700Y49399501D01*
X9837871Y49399501D01*
X9837872Y49399501D01*
X9897483Y49405909D01*
X10032331Y49456204D01*
X10147546Y49542454D01*
X10233796Y49657669D01*
X10262454Y49734507D01*
X10304326Y49790441D01*
X10369790Y49814859D01*
X10438063Y49800008D01*
X10469866Y49775157D01*
X10477302Y49767080D01*
X10478215Y49766088D01*
X10478222Y49766082D01*
X10661365Y49623536D01*
X10661371Y49623532D01*
X10661374Y49623530D01*
X10865497Y49513064D01*
X10953065Y49483002D01*
X11085015Y49437703D01*
X11085017Y49437703D01*
X11085019Y49437702D01*
X11313951Y49399500D01*
X11313952Y49399500D01*
X11546048Y49399500D01*
X11546049Y49399500D01*
X11774981Y49437702D01*
X11994503Y49513064D01*
X12198626Y49623530D01*
X12208963Y49631575D01*
X12260129Y49671400D01*
X12381784Y49766087D01*
X12538979Y49936847D01*
X12665924Y50131151D01*
X12759157Y50343700D01*
X12816134Y50568695D01*
X12835300Y50800000D01*
X12835300Y50800001D01*
X12835300Y50800007D01*
X12816135Y51031298D01*
X12816131Y51031318D01*
X12764879Y51233706D01*
X12767503Y51303527D01*
X12797401Y51351826D01*
X14851963Y53406388D01*
X14913284Y53439871D01*
X14962421Y53440594D01*
X15128757Y53409500D01*
X15128760Y53409500D01*
X15351241Y53409500D01*
X15351243Y53409500D01*
X15569940Y53450382D01*
X15777401Y53530753D01*
X15966562Y53647876D01*
X16130981Y53797764D01*
X16265058Y53975311D01*
X16364229Y54174472D01*
X16390734Y54267629D01*
X16428013Y54326722D01*
X16491323Y54356279D01*
X16560562Y54346917D01*
G37*
%TD.AperFunction*%
%TA.AperFunction,Conductor*%
G36*
X24132694Y57357265D02*
G01*
X24287546Y57343717D01*
X24308823Y57339966D01*
X24451111Y57301840D01*
X24471420Y57294447D01*
X24604914Y57232198D01*
X24623633Y57221391D01*
X24744299Y57136900D01*
X24760857Y57123006D01*
X24865005Y57018858D01*
X24878899Y57002300D01*
X24963390Y56881634D01*
X24974197Y56862915D01*
X25036446Y56729421D01*
X25043839Y56709111D01*
X25081963Y56566831D01*
X25085716Y56545545D01*
X25099264Y56390700D01*
X25099500Y56385294D01*
X25099500Y1272707D01*
X25099264Y1267301D01*
X25085716Y1112456D01*
X25081963Y1091170D01*
X25043839Y948890D01*
X25036446Y928580D01*
X24974197Y795086D01*
X24963390Y776367D01*
X24878899Y655701D01*
X24865005Y639143D01*
X24760857Y534995D01*
X24744299Y521101D01*
X24623633Y436610D01*
X24604914Y425803D01*
X24471420Y363554D01*
X24451110Y356161D01*
X24308830Y318037D01*
X24287544Y314284D01*
X24175205Y304455D01*
X24132694Y300736D01*
X24127294Y300500D01*
X1272706Y300500D01*
X1267305Y300736D01*
X1219615Y304909D01*
X1112455Y314284D01*
X1091169Y318037D01*
X948889Y356161D01*
X928579Y363554D01*
X795085Y425803D01*
X776366Y436610D01*
X655700Y521101D01*
X639142Y534995D01*
X534994Y639143D01*
X521100Y655701D01*
X436609Y776367D01*
X425802Y795086D01*
X363553Y928580D01*
X356160Y948890D01*
X318034Y1091177D01*
X314283Y1112457D01*
X300736Y1267301D01*
X300500Y1272707D01*
X300500Y5080000D01*
X1184341Y5080000D01*
X1204936Y4844597D01*
X1204938Y4844587D01*
X1266094Y4616345D01*
X1266096Y4616341D01*
X1266097Y4616337D01*
X1365965Y4402171D01*
X1365965Y4402170D01*
X1365967Y4402166D01*
X1474281Y4247479D01*
X1501505Y4208599D01*
X1668599Y4041505D01*
X1765384Y3973736D01*
X1862165Y3905968D01*
X1862167Y3905967D01*
X1862170Y3905965D01*
X2076337Y3806097D01*
X2304592Y3744937D01*
X2492918Y3728461D01*
X2539999Y3724341D01*
X2540000Y3724341D01*
X2540001Y3724341D01*
X2579234Y3727774D01*
X2775408Y3744937D01*
X3003663Y3806097D01*
X3217830Y3905965D01*
X3411401Y4041505D01*
X3578495Y4208599D01*
X3714035Y4402170D01*
X3813903Y4616337D01*
X3875063Y4844592D01*
X3895659Y5080000D01*
X21504341Y5080000D01*
X21524936Y4844597D01*
X21524938Y4844587D01*
X21586094Y4616345D01*
X21586096Y4616341D01*
X21586097Y4616337D01*
X21685965Y4402171D01*
X21685965Y4402170D01*
X21685967Y4402166D01*
X21794281Y4247479D01*
X21821505Y4208599D01*
X21988599Y4041505D01*
X22085384Y3973735D01*
X22182165Y3905968D01*
X22182167Y3905967D01*
X22182170Y3905965D01*
X22396337Y3806097D01*
X22624592Y3744937D01*
X22812918Y3728461D01*
X22859999Y3724341D01*
X22860000Y3724341D01*
X22860001Y3724341D01*
X22899234Y3727774D01*
X23095408Y3744937D01*
X23323663Y3806097D01*
X23537830Y3905965D01*
X23731401Y4041505D01*
X23898495Y4208599D01*
X24034035Y4402170D01*
X24133903Y4616337D01*
X24195063Y4844592D01*
X24215659Y5080000D01*
X24195063Y5315408D01*
X24133903Y5543663D01*
X24034035Y5757829D01*
X23898495Y5951401D01*
X23898494Y5951403D01*
X23731402Y6118494D01*
X23731401Y6118495D01*
X23545842Y6248425D01*
X23545841Y6248426D01*
X23502216Y6303003D01*
X23495024Y6372502D01*
X23526546Y6434856D01*
X23545836Y6451572D01*
X23731401Y6581505D01*
X23898495Y6748599D01*
X24034035Y6942170D01*
X24133903Y7156337D01*
X24195063Y7384592D01*
X24215659Y7620000D01*
X24195063Y7855408D01*
X24148626Y8028715D01*
X24133905Y8083656D01*
X24133904Y8083657D01*
X24133903Y8083663D01*
X24034035Y8297829D01*
X24006017Y8337844D01*
X23898494Y8491403D01*
X23731402Y8658494D01*
X23731396Y8658499D01*
X23545842Y8788425D01*
X23502217Y8843002D01*
X23495023Y8912500D01*
X23526546Y8974855D01*
X23545842Y8991575D01*
X23604980Y9032984D01*
X23731401Y9121505D01*
X23898495Y9288599D01*
X24034035Y9482170D01*
X24133903Y9696337D01*
X24195063Y9924592D01*
X24215659Y10160000D01*
X24195063Y10395408D01*
X24133903Y10623663D01*
X24034035Y10837829D01*
X23898495Y11031401D01*
X23898494Y11031403D01*
X23731402Y11198494D01*
X23731401Y11198495D01*
X23545842Y11328425D01*
X23545841Y11328426D01*
X23502216Y11383003D01*
X23495024Y11452502D01*
X23526546Y11514856D01*
X23545836Y11531572D01*
X23731401Y11661505D01*
X23898495Y11828599D01*
X24034035Y12022170D01*
X24133903Y12236337D01*
X24195063Y12464592D01*
X24215659Y12700000D01*
X24195063Y12935408D01*
X24133903Y13163663D01*
X24034035Y13377829D01*
X23898495Y13571401D01*
X23898494Y13571403D01*
X23731402Y13738494D01*
X23731396Y13738499D01*
X23545842Y13868425D01*
X23502217Y13923002D01*
X23495023Y13992500D01*
X23526546Y14054855D01*
X23545842Y14071575D01*
X23568026Y14087109D01*
X23731401Y14201505D01*
X23898495Y14368599D01*
X24034035Y14562170D01*
X24133903Y14776337D01*
X24195063Y15004592D01*
X24215659Y15240000D01*
X24195063Y15475408D01*
X24133903Y15703663D01*
X24034035Y15917829D01*
X23898495Y16111401D01*
X23898494Y16111403D01*
X23731402Y16278494D01*
X23731401Y16278495D01*
X23545842Y16408425D01*
X23545841Y16408426D01*
X23502216Y16463003D01*
X23495024Y16532502D01*
X23526546Y16594856D01*
X23545836Y16611572D01*
X23731401Y16741505D01*
X23898495Y16908599D01*
X24034035Y17102170D01*
X24133903Y17316337D01*
X24195063Y17544592D01*
X24215659Y17780000D01*
X24195063Y18015408D01*
X24133903Y18243663D01*
X24034035Y18457829D01*
X23970715Y18548261D01*
X23898494Y18651403D01*
X23731402Y18818494D01*
X23731396Y18818499D01*
X23545842Y18948425D01*
X23502217Y19003002D01*
X23495023Y19072500D01*
X23526546Y19134855D01*
X23545842Y19151575D01*
X23648090Y19223170D01*
X23731401Y19281505D01*
X23898495Y19448599D01*
X24034035Y19642170D01*
X24133903Y19856337D01*
X24195063Y20084592D01*
X24215659Y20320000D01*
X24195063Y20555408D01*
X24133903Y20783663D01*
X24034035Y20997829D01*
X23985485Y21067167D01*
X23898494Y21191403D01*
X23731402Y21358494D01*
X23731401Y21358495D01*
X23545842Y21488425D01*
X23545841Y21488426D01*
X23502216Y21543003D01*
X23495024Y21612502D01*
X23526546Y21674856D01*
X23545836Y21691572D01*
X23731401Y21821505D01*
X23898495Y21988599D01*
X24034035Y22182170D01*
X24133903Y22396337D01*
X24195063Y22624592D01*
X24215659Y22860000D01*
X24195063Y23095408D01*
X24147759Y23271951D01*
X24133905Y23323656D01*
X24133904Y23323657D01*
X24133903Y23323663D01*
X24034035Y23537829D01*
X23970715Y23628261D01*
X23898494Y23731403D01*
X23731402Y23898494D01*
X23731396Y23898499D01*
X23545842Y24028425D01*
X23502217Y24083002D01*
X23495023Y24152500D01*
X23526546Y24214855D01*
X23545842Y24231575D01*
X23648090Y24303170D01*
X23731401Y24361505D01*
X23898495Y24528599D01*
X24034035Y24722170D01*
X24133903Y24936337D01*
X24195063Y25164592D01*
X24215659Y25400000D01*
X24195063Y25635408D01*
X24133903Y25863663D01*
X24034035Y26077829D01*
X23970715Y26168261D01*
X23898494Y26271403D01*
X23731402Y26438494D01*
X23731401Y26438495D01*
X23592864Y26535500D01*
X23545841Y26568426D01*
X23502216Y26623003D01*
X23495024Y26692502D01*
X23526546Y26754856D01*
X23545836Y26771572D01*
X23731401Y26901505D01*
X23898495Y27068599D01*
X24034035Y27262170D01*
X24133903Y27476337D01*
X24195063Y27704592D01*
X24215659Y27940000D01*
X24195063Y28175408D01*
X24133903Y28403663D01*
X24034035Y28617829D01*
X23970715Y28708261D01*
X23898494Y28811403D01*
X23731402Y28978494D01*
X23731401Y28978495D01*
X23545405Y29108731D01*
X23501781Y29163308D01*
X23494588Y29232807D01*
X23526110Y29295161D01*
X23545405Y29311881D01*
X23731082Y29441895D01*
X23898105Y29608918D01*
X24033600Y29802422D01*
X24133429Y30016508D01*
X24133432Y30016514D01*
X24190636Y30230000D01*
X23293686Y30230000D01*
X23319493Y30270156D01*
X23360000Y30408111D01*
X23360000Y30551889D01*
X23319493Y30689844D01*
X23293686Y30730000D01*
X24190636Y30730000D01*
X24190635Y30730001D01*
X24133432Y30943487D01*
X24133429Y30943493D01*
X24033600Y31157578D01*
X24033599Y31157580D01*
X23898113Y31351074D01*
X23898108Y31351080D01*
X23731078Y31518110D01*
X23545405Y31648121D01*
X23501780Y31702698D01*
X23494588Y31772196D01*
X23526110Y31834551D01*
X23545406Y31851270D01*
X23575150Y31872097D01*
X23731401Y31981505D01*
X23898495Y32148599D01*
X24034035Y32342170D01*
X24133903Y32556337D01*
X24195063Y32784592D01*
X24215659Y33020000D01*
X24195063Y33255408D01*
X24133903Y33483663D01*
X24034035Y33697829D01*
X23970715Y33788261D01*
X23898494Y33891403D01*
X23731402Y34058494D01*
X23731396Y34058499D01*
X23545842Y34188425D01*
X23502217Y34243002D01*
X23495023Y34312500D01*
X23526546Y34374855D01*
X23545842Y34391575D01*
X23636563Y34455099D01*
X23731401Y34521505D01*
X23898495Y34688599D01*
X24034035Y34882170D01*
X24133903Y35096337D01*
X24195063Y35324592D01*
X24215659Y35560000D01*
X24195063Y35795408D01*
X24133903Y36023663D01*
X24034035Y36237829D01*
X23970715Y36328261D01*
X23898494Y36431403D01*
X23731402Y36598494D01*
X23731401Y36598495D01*
X23592864Y36695500D01*
X23545841Y36728426D01*
X23502216Y36783003D01*
X23495024Y36852502D01*
X23526546Y36914856D01*
X23545836Y36931572D01*
X23731401Y37061505D01*
X23898495Y37228599D01*
X24034035Y37422170D01*
X24133903Y37636337D01*
X24195063Y37864592D01*
X24215659Y38100000D01*
X24195063Y38335408D01*
X24133903Y38563663D01*
X24034035Y38777829D01*
X23970715Y38868261D01*
X23898494Y38971403D01*
X23731402Y39138494D01*
X23731396Y39138499D01*
X23545842Y39268425D01*
X23502217Y39323002D01*
X23495023Y39392500D01*
X23526546Y39454855D01*
X23545842Y39471575D01*
X23648090Y39543170D01*
X23731401Y39601505D01*
X23898495Y39768599D01*
X24034035Y39962170D01*
X24133903Y40176337D01*
X24195063Y40404592D01*
X24215659Y40640000D01*
X24195063Y40875408D01*
X24133903Y41103663D01*
X24034035Y41317829D01*
X23970715Y41408261D01*
X23898494Y41511403D01*
X23731402Y41678494D01*
X23731401Y41678495D01*
X23545842Y41808425D01*
X23545841Y41808426D01*
X23502216Y41863003D01*
X23495024Y41932502D01*
X23526546Y41994856D01*
X23545836Y42011572D01*
X23731401Y42141505D01*
X23898495Y42308599D01*
X24034035Y42502170D01*
X24133903Y42716337D01*
X24195063Y42944592D01*
X24215659Y43180000D01*
X24215398Y43182978D01*
X24198729Y43373504D01*
X24195063Y43415408D01*
X24133903Y43643663D01*
X24034035Y43857829D01*
X24032131Y43860549D01*
X23898494Y44051403D01*
X23731402Y44218494D01*
X23731396Y44218499D01*
X23545842Y44348425D01*
X23502217Y44403002D01*
X23495023Y44472500D01*
X23526546Y44534855D01*
X23545842Y44551575D01*
X23568026Y44567109D01*
X23731401Y44681505D01*
X23898495Y44848599D01*
X24034035Y45042170D01*
X24133903Y45256337D01*
X24195063Y45484592D01*
X24215659Y45720000D01*
X24195063Y45955408D01*
X24148626Y46128715D01*
X24133905Y46183656D01*
X24133904Y46183657D01*
X24133903Y46183663D01*
X24034035Y46397829D01*
X23925658Y46552609D01*
X23898494Y46591403D01*
X23731402Y46758494D01*
X23731401Y46758495D01*
X23545842Y46888425D01*
X23545841Y46888426D01*
X23502216Y46943003D01*
X23495024Y47012502D01*
X23526546Y47074856D01*
X23545836Y47091572D01*
X23731401Y47221505D01*
X23898495Y47388599D01*
X24034035Y47582170D01*
X24133903Y47796337D01*
X24195063Y48024592D01*
X24215659Y48260000D01*
X24195063Y48495408D01*
X24133903Y48723663D01*
X24034035Y48937829D01*
X23898495Y49131401D01*
X23898494Y49131403D01*
X23731402Y49298494D01*
X23731396Y49298499D01*
X23545842Y49428425D01*
X23502217Y49483002D01*
X23495023Y49552500D01*
X23526546Y49614855D01*
X23545842Y49631575D01*
X23583115Y49657674D01*
X23731401Y49761505D01*
X23898495Y49928599D01*
X24034035Y50122170D01*
X24133903Y50336337D01*
X24195063Y50564592D01*
X24215659Y50800000D01*
X24195063Y51035408D01*
X24133903Y51263663D01*
X24034035Y51477829D01*
X23904270Y51663153D01*
X23898496Y51671400D01*
X23898496Y51671401D01*
X23776567Y51793329D01*
X23743084Y51854649D01*
X23748068Y51924341D01*
X23789939Y51980275D01*
X23820915Y51997190D01*
X23952331Y52046204D01*
X24067546Y52132454D01*
X24153796Y52247669D01*
X24204091Y52382517D01*
X24210500Y52442127D01*
X24210499Y54237872D01*
X24204091Y54297483D01*
X24185653Y54346917D01*
X24153797Y54432329D01*
X24153793Y54432336D01*
X24067547Y54547545D01*
X24067544Y54547548D01*
X23952335Y54633794D01*
X23952328Y54633798D01*
X23817482Y54684092D01*
X23817483Y54684092D01*
X23757883Y54690499D01*
X23757881Y54690500D01*
X23757873Y54690500D01*
X23757864Y54690500D01*
X21962129Y54690500D01*
X21962123Y54690499D01*
X21902516Y54684092D01*
X21767671Y54633798D01*
X21767664Y54633794D01*
X21652455Y54547548D01*
X21652452Y54547545D01*
X21566206Y54432336D01*
X21566202Y54432329D01*
X21515908Y54297483D01*
X21512699Y54267628D01*
X21509501Y54237877D01*
X21509500Y54237865D01*
X21509500Y52442130D01*
X21509501Y52442124D01*
X21515908Y52382517D01*
X21566202Y52247672D01*
X21566206Y52247665D01*
X21652452Y52132456D01*
X21652455Y52132453D01*
X21767664Y52046207D01*
X21767671Y52046203D01*
X21899081Y51997190D01*
X21955015Y51955319D01*
X21979432Y51889855D01*
X21964580Y51821582D01*
X21943430Y51793327D01*
X21821503Y51671400D01*
X21685965Y51477831D01*
X21685964Y51477829D01*
X21586098Y51263665D01*
X21586094Y51263656D01*
X21524938Y51035414D01*
X21524936Y51035404D01*
X21504341Y50800001D01*
X21504341Y50800000D01*
X21524936Y50564597D01*
X21524938Y50564587D01*
X21586094Y50336345D01*
X21586096Y50336341D01*
X21586097Y50336337D01*
X21681777Y50131152D01*
X21685965Y50122170D01*
X21685967Y50122166D01*
X21783018Y49983564D01*
X21815725Y49936853D01*
X21821501Y49928605D01*
X21821506Y49928598D01*
X21988597Y49761507D01*
X21988603Y49761502D01*
X22174158Y49631575D01*
X22217783Y49576998D01*
X22224977Y49507500D01*
X22193454Y49445145D01*
X22174158Y49428425D01*
X21988597Y49298495D01*
X21821505Y49131403D01*
X21685965Y48937831D01*
X21685964Y48937829D01*
X21586098Y48723665D01*
X21586094Y48723656D01*
X21524938Y48495414D01*
X21524936Y48495404D01*
X21504341Y48260001D01*
X21504341Y48260000D01*
X21524936Y48024597D01*
X21524938Y48024587D01*
X21586094Y47796345D01*
X21586096Y47796341D01*
X21586097Y47796337D01*
X21607740Y47749924D01*
X21685965Y47582170D01*
X21685967Y47582166D01*
X21821501Y47388605D01*
X21821506Y47388598D01*
X21988597Y47221507D01*
X21988603Y47221502D01*
X22174158Y47091575D01*
X22217783Y47036998D01*
X22224977Y46967500D01*
X22193454Y46905145D01*
X22174158Y46888425D01*
X21988597Y46758495D01*
X21821505Y46591403D01*
X21685965Y46397831D01*
X21685964Y46397829D01*
X21586098Y46183665D01*
X21586094Y46183656D01*
X21524938Y45955414D01*
X21524936Y45955404D01*
X21504341Y45720001D01*
X21504341Y45720000D01*
X21524936Y45484597D01*
X21524938Y45484587D01*
X21586094Y45256345D01*
X21586096Y45256341D01*
X21586097Y45256337D01*
X21656370Y45105636D01*
X21685965Y45042170D01*
X21685967Y45042166D01*
X21821501Y44848605D01*
X21821506Y44848598D01*
X21988597Y44681507D01*
X21988603Y44681502D01*
X22174158Y44551575D01*
X22217783Y44496998D01*
X22224977Y44427500D01*
X22193454Y44365145D01*
X22174158Y44348425D01*
X21988597Y44218495D01*
X21821505Y44051403D01*
X21685965Y43857831D01*
X21685964Y43857829D01*
X21586098Y43643665D01*
X21586094Y43643656D01*
X21524938Y43415414D01*
X21524936Y43415404D01*
X21504341Y43180001D01*
X21504341Y43180000D01*
X21524936Y42944597D01*
X21524938Y42944587D01*
X21586094Y42716345D01*
X21586096Y42716341D01*
X21586097Y42716337D01*
X21685964Y42502170D01*
X21685965Y42502170D01*
X21685967Y42502166D01*
X21821501Y42308605D01*
X21821506Y42308598D01*
X21988597Y42141507D01*
X21988603Y42141502D01*
X22174158Y42011575D01*
X22217783Y41956998D01*
X22224977Y41887500D01*
X22193454Y41825145D01*
X22174158Y41808425D01*
X21988597Y41678495D01*
X21821505Y41511403D01*
X21685965Y41317831D01*
X21685964Y41317829D01*
X21586098Y41103665D01*
X21586094Y41103656D01*
X21524938Y40875414D01*
X21524936Y40875404D01*
X21504341Y40640001D01*
X21504341Y40640000D01*
X21524936Y40404597D01*
X21524938Y40404587D01*
X21586094Y40176345D01*
X21586096Y40176341D01*
X21586097Y40176337D01*
X21596512Y40154002D01*
X21685965Y39962170D01*
X21685967Y39962166D01*
X21821501Y39768605D01*
X21821506Y39768598D01*
X21988597Y39601507D01*
X21988603Y39601502D01*
X22174158Y39471575D01*
X22217783Y39416998D01*
X22224977Y39347500D01*
X22193454Y39285145D01*
X22174158Y39268425D01*
X21988597Y39138495D01*
X21821505Y38971403D01*
X21685965Y38777831D01*
X21685964Y38777829D01*
X21586098Y38563665D01*
X21586094Y38563656D01*
X21524938Y38335414D01*
X21524936Y38335404D01*
X21504341Y38100001D01*
X21504341Y38100000D01*
X21524936Y37864597D01*
X21524938Y37864587D01*
X21586094Y37636345D01*
X21586096Y37636341D01*
X21586097Y37636337D01*
X21649701Y37499939D01*
X21685965Y37422170D01*
X21685967Y37422166D01*
X21821501Y37228605D01*
X21821506Y37228598D01*
X21988597Y37061507D01*
X21988603Y37061502D01*
X22174158Y36931575D01*
X22217783Y36876998D01*
X22224977Y36807500D01*
X22193454Y36745145D01*
X22174158Y36728425D01*
X21988597Y36598495D01*
X21821505Y36431403D01*
X21685965Y36237831D01*
X21685964Y36237829D01*
X21586098Y36023665D01*
X21586094Y36023656D01*
X21524938Y35795414D01*
X21524936Y35795404D01*
X21504341Y35560001D01*
X21504341Y35560000D01*
X21524936Y35324597D01*
X21524938Y35324587D01*
X21586094Y35096345D01*
X21586096Y35096341D01*
X21586097Y35096337D01*
X21649701Y34959939D01*
X21685965Y34882170D01*
X21685967Y34882166D01*
X21821501Y34688605D01*
X21821506Y34688598D01*
X21988597Y34521507D01*
X21988603Y34521502D01*
X22174158Y34391575D01*
X22217783Y34336998D01*
X22224977Y34267500D01*
X22193454Y34205145D01*
X22174158Y34188425D01*
X21988597Y34058495D01*
X21821505Y33891403D01*
X21685965Y33697831D01*
X21685964Y33697829D01*
X21586098Y33483665D01*
X21586094Y33483656D01*
X21524938Y33255414D01*
X21524936Y33255404D01*
X21504341Y33020001D01*
X21504341Y33020000D01*
X21524936Y32784597D01*
X21524938Y32784587D01*
X21586094Y32556345D01*
X21586096Y32556341D01*
X21586097Y32556337D01*
X21649701Y32419939D01*
X21685965Y32342170D01*
X21685967Y32342166D01*
X21794281Y32187479D01*
X21821505Y32148599D01*
X21988599Y31981505D01*
X22127136Y31884500D01*
X22174594Y31851270D01*
X22218219Y31796693D01*
X22225413Y31727195D01*
X22193890Y31664840D01*
X22174595Y31648120D01*
X21988922Y31518110D01*
X21988920Y31518109D01*
X21821891Y31351080D01*
X21821886Y31351074D01*
X21686400Y31157580D01*
X21686399Y31157578D01*
X21586570Y30943493D01*
X21586567Y30943487D01*
X21529364Y30730001D01*
X21529364Y30730000D01*
X22426314Y30730000D01*
X22400507Y30689844D01*
X22360000Y30551889D01*
X22360000Y30408111D01*
X22400507Y30270156D01*
X22426314Y30230000D01*
X21529364Y30230000D01*
X21586567Y30016514D01*
X21586570Y30016508D01*
X21686399Y29802422D01*
X21821894Y29608918D01*
X21988917Y29441895D01*
X22174595Y29311881D01*
X22218219Y29257304D01*
X22225412Y29187805D01*
X22193890Y29125451D01*
X22174595Y29108731D01*
X21988594Y28978492D01*
X21821505Y28811403D01*
X21685965Y28617831D01*
X21685964Y28617829D01*
X21586098Y28403665D01*
X21586094Y28403656D01*
X21524938Y28175414D01*
X21524936Y28175404D01*
X21504341Y27940001D01*
X21504341Y27940000D01*
X21524936Y27704597D01*
X21524938Y27704587D01*
X21586094Y27476345D01*
X21586096Y27476341D01*
X21586097Y27476337D01*
X21649701Y27339939D01*
X21685965Y27262170D01*
X21685967Y27262166D01*
X21821501Y27068605D01*
X21821506Y27068598D01*
X21988597Y26901507D01*
X21988603Y26901502D01*
X22174158Y26771575D01*
X22217783Y26716998D01*
X22224977Y26647500D01*
X22193454Y26585145D01*
X22174158Y26568425D01*
X21988597Y26438495D01*
X21821505Y26271403D01*
X21685965Y26077831D01*
X21685964Y26077829D01*
X21586098Y25863665D01*
X21586094Y25863656D01*
X21524938Y25635414D01*
X21524936Y25635404D01*
X21504341Y25400001D01*
X21504341Y25400000D01*
X21524936Y25164597D01*
X21524938Y25164587D01*
X21586094Y24936345D01*
X21586096Y24936341D01*
X21586097Y24936337D01*
X21649824Y24799675D01*
X21685965Y24722170D01*
X21685967Y24722166D01*
X21821501Y24528605D01*
X21821506Y24528598D01*
X21988597Y24361507D01*
X21988603Y24361502D01*
X22174158Y24231575D01*
X22217783Y24176998D01*
X22224977Y24107500D01*
X22193454Y24045145D01*
X22174158Y24028425D01*
X21988597Y23898495D01*
X21821505Y23731403D01*
X21685965Y23537831D01*
X21685964Y23537829D01*
X21586098Y23323665D01*
X21586094Y23323656D01*
X21524938Y23095414D01*
X21524936Y23095404D01*
X21504341Y22860001D01*
X21504341Y22860000D01*
X21524936Y22624597D01*
X21524938Y22624587D01*
X21586094Y22396345D01*
X21586096Y22396341D01*
X21586097Y22396337D01*
X21649824Y22259675D01*
X21685965Y22182170D01*
X21685967Y22182166D01*
X21756292Y22081733D01*
X21818269Y21993220D01*
X21821501Y21988605D01*
X21821506Y21988598D01*
X21988597Y21821507D01*
X21988603Y21821502D01*
X22174158Y21691575D01*
X22217783Y21636998D01*
X22224977Y21567500D01*
X22193454Y21505145D01*
X22174158Y21488425D01*
X21988597Y21358495D01*
X21821505Y21191403D01*
X21685965Y20997831D01*
X21685964Y20997829D01*
X21586098Y20783665D01*
X21586094Y20783656D01*
X21524938Y20555414D01*
X21524936Y20555404D01*
X21504341Y20320001D01*
X21504341Y20320000D01*
X21524936Y20084597D01*
X21524938Y20084587D01*
X21586094Y19856345D01*
X21586096Y19856341D01*
X21586097Y19856337D01*
X21649824Y19719675D01*
X21685965Y19642170D01*
X21685967Y19642166D01*
X21821501Y19448605D01*
X21821506Y19448598D01*
X21988597Y19281507D01*
X21988603Y19281502D01*
X22174158Y19151575D01*
X22217783Y19096998D01*
X22224977Y19027500D01*
X22193454Y18965145D01*
X22174158Y18948425D01*
X21988597Y18818495D01*
X21821505Y18651403D01*
X21685965Y18457831D01*
X21685964Y18457829D01*
X21586098Y18243665D01*
X21586094Y18243656D01*
X21524938Y18015414D01*
X21524936Y18015404D01*
X21504341Y17780001D01*
X21504341Y17780000D01*
X21524936Y17544597D01*
X21524938Y17544587D01*
X21586094Y17316345D01*
X21586096Y17316341D01*
X21586097Y17316337D01*
X21647784Y17184050D01*
X21685965Y17102170D01*
X21685967Y17102166D01*
X21821501Y16908605D01*
X21821506Y16908598D01*
X21988597Y16741507D01*
X21988603Y16741502D01*
X22174158Y16611575D01*
X22217783Y16556998D01*
X22224977Y16487500D01*
X22193454Y16425145D01*
X22174158Y16408425D01*
X21988597Y16278495D01*
X21821505Y16111403D01*
X21685965Y15917831D01*
X21685964Y15917829D01*
X21586098Y15703665D01*
X21586094Y15703656D01*
X21524938Y15475414D01*
X21524936Y15475404D01*
X21504341Y15240001D01*
X21504341Y15240000D01*
X21524936Y15004597D01*
X21524938Y15004587D01*
X21586094Y14776345D01*
X21586096Y14776341D01*
X21586097Y14776337D01*
X21672192Y14591706D01*
X21685965Y14562170D01*
X21685967Y14562166D01*
X21821501Y14368605D01*
X21821506Y14368598D01*
X21988597Y14201507D01*
X21988603Y14201502D01*
X22174158Y14071575D01*
X22217783Y14016998D01*
X22224977Y13947500D01*
X22193454Y13885145D01*
X22174158Y13868425D01*
X21988597Y13738495D01*
X21821505Y13571403D01*
X21685965Y13377831D01*
X21685964Y13377829D01*
X21586098Y13163665D01*
X21586094Y13163656D01*
X21524938Y12935414D01*
X21524936Y12935404D01*
X21504341Y12700001D01*
X21504341Y12700000D01*
X21524936Y12464597D01*
X21524938Y12464587D01*
X21586094Y12236345D01*
X21586096Y12236341D01*
X21586097Y12236337D01*
X21672192Y12051706D01*
X21685965Y12022170D01*
X21685967Y12022166D01*
X21821501Y11828605D01*
X21821506Y11828598D01*
X21988597Y11661507D01*
X21988603Y11661502D01*
X22174158Y11531575D01*
X22217783Y11476998D01*
X22224977Y11407500D01*
X22193454Y11345145D01*
X22174158Y11328425D01*
X21988597Y11198495D01*
X21821505Y11031403D01*
X21685965Y10837831D01*
X21685964Y10837829D01*
X21586098Y10623665D01*
X21586094Y10623656D01*
X21524938Y10395414D01*
X21524936Y10395404D01*
X21504341Y10160001D01*
X21504341Y10160000D01*
X21524936Y9924597D01*
X21524938Y9924587D01*
X21586094Y9696345D01*
X21586096Y9696341D01*
X21586097Y9696337D01*
X21629854Y9602500D01*
X21685965Y9482170D01*
X21685967Y9482166D01*
X21788631Y9335548D01*
X21812098Y9302033D01*
X21821501Y9288605D01*
X21821506Y9288598D01*
X21988597Y9121507D01*
X21988603Y9121502D01*
X22174158Y8991575D01*
X22217783Y8936998D01*
X22224977Y8867500D01*
X22193454Y8805145D01*
X22174158Y8788425D01*
X21988597Y8658495D01*
X21821505Y8491403D01*
X21685965Y8297831D01*
X21685964Y8297829D01*
X21586098Y8083665D01*
X21586094Y8083656D01*
X21524938Y7855414D01*
X21524936Y7855404D01*
X21504341Y7620001D01*
X21504341Y7620000D01*
X21524936Y7384597D01*
X21524938Y7384587D01*
X21586094Y7156345D01*
X21586096Y7156341D01*
X21586097Y7156337D01*
X21680464Y6953966D01*
X21685965Y6942170D01*
X21685967Y6942166D01*
X21821501Y6748605D01*
X21821506Y6748598D01*
X21988597Y6581507D01*
X21988603Y6581502D01*
X22174158Y6451575D01*
X22217783Y6396998D01*
X22224977Y6327500D01*
X22193454Y6265145D01*
X22174158Y6248425D01*
X21988597Y6118495D01*
X21821505Y5951403D01*
X21685965Y5757831D01*
X21685964Y5757829D01*
X21586098Y5543665D01*
X21586094Y5543656D01*
X21524938Y5315414D01*
X21524936Y5315404D01*
X21504341Y5080001D01*
X21504341Y5080000D01*
X3895659Y5080000D01*
X3875063Y5315408D01*
X3813903Y5543663D01*
X3714035Y5757829D01*
X3578495Y5951401D01*
X3578494Y5951403D01*
X3411402Y6118494D01*
X3411401Y6118495D01*
X3225842Y6248425D01*
X3225841Y6248426D01*
X3182216Y6303003D01*
X3175024Y6372502D01*
X3206546Y6434856D01*
X3225836Y6451572D01*
X3411401Y6581505D01*
X3578495Y6748599D01*
X3714035Y6942170D01*
X3813903Y7156337D01*
X3875063Y7384592D01*
X3895659Y7620000D01*
X3875063Y7855408D01*
X3869010Y7878000D01*
X5019364Y7878000D01*
X5076567Y7664514D01*
X5076570Y7664508D01*
X5176399Y7450422D01*
X5311894Y7256918D01*
X5478917Y7089895D01*
X5672421Y6954400D01*
X5886507Y6854571D01*
X5886516Y6854567D01*
X6099998Y6797365D01*
X6099999Y6797366D01*
X6099999Y7692499D01*
X6207685Y7643320D01*
X6314237Y7628000D01*
X6385763Y7628000D01*
X6492315Y7643320D01*
X6600000Y7692499D01*
X6600000Y6797367D01*
X6813483Y6854567D01*
X6813492Y6854571D01*
X7027578Y6954400D01*
X7221082Y7089895D01*
X7388105Y7256918D01*
X7518119Y7442595D01*
X7572696Y7486219D01*
X7642195Y7493412D01*
X7704549Y7461890D01*
X7721269Y7442595D01*
X7851505Y7256599D01*
X8018599Y7089505D01*
X8115384Y7021735D01*
X8212165Y6953968D01*
X8212167Y6953967D01*
X8212170Y6953965D01*
X8426337Y6854097D01*
X8654592Y6792937D01*
X8831034Y6777500D01*
X8889999Y6772341D01*
X8890000Y6772341D01*
X8890001Y6772341D01*
X8948966Y6777500D01*
X9125408Y6792937D01*
X9353663Y6854097D01*
X9567830Y6953965D01*
X9761401Y7089505D01*
X9928495Y7256599D01*
X10058424Y7442158D01*
X10113002Y7485783D01*
X10182500Y7492977D01*
X10244855Y7461454D01*
X10261575Y7442158D01*
X10391281Y7256918D01*
X10391505Y7256599D01*
X10558599Y7089505D01*
X10655384Y7021735D01*
X10752165Y6953968D01*
X10752167Y6953967D01*
X10752170Y6953965D01*
X10966337Y6854097D01*
X11194592Y6792937D01*
X11371034Y6777500D01*
X11429999Y6772341D01*
X11430000Y6772341D01*
X11430001Y6772341D01*
X11488966Y6777500D01*
X11665408Y6792937D01*
X11893663Y6854097D01*
X12107830Y6953965D01*
X12301401Y7089505D01*
X12468495Y7256599D01*
X12598424Y7442158D01*
X12653002Y7485783D01*
X12722500Y7492977D01*
X12784855Y7461454D01*
X12801575Y7442158D01*
X12931281Y7256918D01*
X12931505Y7256599D01*
X13098599Y7089505D01*
X13195384Y7021735D01*
X13292165Y6953968D01*
X13292167Y6953967D01*
X13292170Y6953965D01*
X13506337Y6854097D01*
X13734592Y6792937D01*
X13911034Y6777500D01*
X13969999Y6772341D01*
X13970000Y6772341D01*
X13970001Y6772341D01*
X14028966Y6777500D01*
X14205408Y6792937D01*
X14433663Y6854097D01*
X14647830Y6953965D01*
X14841401Y7089505D01*
X15008495Y7256599D01*
X15138424Y7442158D01*
X15193002Y7485783D01*
X15262500Y7492977D01*
X15324855Y7461454D01*
X15341575Y7442158D01*
X15471281Y7256918D01*
X15471505Y7256599D01*
X15638599Y7089505D01*
X15735384Y7021735D01*
X15832165Y6953968D01*
X15832167Y6953967D01*
X15832170Y6953965D01*
X16046337Y6854097D01*
X16274592Y6792937D01*
X16451034Y6777500D01*
X16509999Y6772341D01*
X16510000Y6772341D01*
X16510001Y6772341D01*
X16568966Y6777500D01*
X16745408Y6792937D01*
X16973663Y6854097D01*
X17187830Y6953965D01*
X17381401Y7089505D01*
X17503329Y7211434D01*
X17564648Y7244916D01*
X17634340Y7239932D01*
X17690274Y7198061D01*
X17707189Y7167083D01*
X17756202Y7035672D01*
X17756206Y7035665D01*
X17842452Y6920456D01*
X17842455Y6920453D01*
X17957664Y6834207D01*
X17957671Y6834203D01*
X18092517Y6783909D01*
X18092516Y6783909D01*
X18099444Y6783165D01*
X18152127Y6777500D01*
X19947872Y6777501D01*
X20007483Y6783909D01*
X20142331Y6834204D01*
X20257546Y6920454D01*
X20343796Y7035669D01*
X20394091Y7170517D01*
X20400500Y7230127D01*
X20400499Y9025872D01*
X20394091Y9085483D01*
X20392810Y9088917D01*
X20343797Y9220329D01*
X20343793Y9220336D01*
X20257547Y9335545D01*
X20257544Y9335548D01*
X20142335Y9421794D01*
X20142328Y9421798D01*
X20007482Y9472092D01*
X20007483Y9472092D01*
X19947883Y9478499D01*
X19947881Y9478500D01*
X19947873Y9478500D01*
X19947865Y9478500D01*
X19750700Y9478500D01*
X19683661Y9498185D01*
X19637906Y9550989D01*
X19626700Y9602500D01*
X19626700Y30692138D01*
X19627231Y30700239D01*
X19631150Y30730001D01*
X19631676Y30734000D01*
X19625500Y30780909D01*
X19611856Y30884548D01*
X19611856Y30884549D01*
X19553746Y31024838D01*
X19484515Y31115062D01*
X19483260Y31116698D01*
X19483252Y31116708D01*
X19480043Y31120889D01*
X19461307Y31145307D01*
X19452062Y31152401D01*
X19434283Y31166044D01*
X19428180Y31171397D01*
X17915248Y32684329D01*
X17881763Y32745652D01*
X17883665Y32805952D01*
X17884948Y32810458D01*
X17904365Y33020000D01*
X17884948Y33229542D01*
X17883664Y33234055D01*
X17884248Y33303919D01*
X17915246Y33355671D01*
X19086791Y34527216D01*
X19092881Y34532557D01*
X19119907Y34553293D01*
X19143115Y34583538D01*
X19212347Y34673762D01*
X19270456Y34814052D01*
X19290276Y34964600D01*
X19285831Y34998364D01*
X19285300Y35006465D01*
X19285300Y53639538D01*
X19285831Y53647639D01*
X19285863Y53647877D01*
X19290276Y53681400D01*
X19276915Y53782887D01*
X19270456Y53831949D01*
X19230285Y53928930D01*
X19212347Y53972238D01*
X19143115Y54062462D01*
X19143114Y54062463D01*
X19119907Y54092707D01*
X19119905Y54092708D01*
X19119905Y54092709D01*
X19092883Y54113444D01*
X19086780Y54118797D01*
X18983859Y54221718D01*
X18950374Y54283041D01*
X18952274Y54343334D01*
X18965115Y54388464D01*
X18985643Y54610000D01*
X18978777Y54684092D01*
X18965115Y54831536D01*
X18965114Y54831538D01*
X18953293Y54873084D01*
X18904229Y55045528D01*
X18904224Y55045539D01*
X18805061Y55244684D01*
X18805056Y55244692D01*
X18670979Y55422239D01*
X18506562Y55572124D01*
X18506560Y55572126D01*
X18317404Y55689246D01*
X18317398Y55689248D01*
X18109940Y55769618D01*
X17891243Y55810500D01*
X17668757Y55810500D01*
X17450060Y55769618D01*
X17318864Y55718793D01*
X17242601Y55689248D01*
X17242595Y55689246D01*
X17053439Y55572126D01*
X17053437Y55572124D01*
X16889020Y55422239D01*
X16754943Y55244692D01*
X16754938Y55244684D01*
X16655775Y55045539D01*
X16655769Y55045524D01*
X16629266Y54952373D01*
X16591987Y54893279D01*
X16528677Y54863722D01*
X16459438Y54873084D01*
X16406251Y54918394D01*
X16390734Y54952373D01*
X16364230Y55045524D01*
X16364229Y55045528D01*
X16364224Y55045539D01*
X16265061Y55244684D01*
X16265056Y55244692D01*
X16130979Y55422239D01*
X15966562Y55572124D01*
X15966560Y55572126D01*
X15777404Y55689246D01*
X15777398Y55689248D01*
X15569940Y55769618D01*
X15351243Y55810500D01*
X15128757Y55810500D01*
X14910060Y55769618D01*
X14778864Y55718793D01*
X14702601Y55689248D01*
X14702595Y55689246D01*
X14513439Y55572126D01*
X14513437Y55572124D01*
X14349020Y55422239D01*
X14214943Y55244692D01*
X14214938Y55244684D01*
X14115775Y55045539D01*
X14115769Y55045524D01*
X14054885Y54831538D01*
X14054884Y54831536D01*
X14034357Y54610001D01*
X14034357Y54610000D01*
X14054884Y54388467D01*
X14054885Y54388465D01*
X14054885Y54388464D01*
X14067725Y54343334D01*
X14067726Y54343333D01*
X14067138Y54273466D01*
X14036140Y54221719D01*
X11979896Y52165475D01*
X11918573Y52131990D01*
X11851953Y52135874D01*
X11774980Y52162299D01*
X11584249Y52194126D01*
X11546049Y52200500D01*
X11313951Y52200500D01*
X11275550Y52194092D01*
X11085015Y52162298D01*
X10865504Y52086939D01*
X10865495Y52086936D01*
X10661371Y51976469D01*
X10661365Y51976465D01*
X10478222Y51833919D01*
X10478218Y51833915D01*
X10469866Y51824842D01*
X10409979Y51788852D01*
X10340141Y51790953D01*
X10282525Y51830478D01*
X10262455Y51865493D01*
X10233797Y51942329D01*
X10233793Y51942336D01*
X10147547Y52057545D01*
X10147544Y52057548D01*
X10032335Y52143794D01*
X10032328Y52143798D01*
X9897482Y52194092D01*
X9897483Y52194092D01*
X9837883Y52200499D01*
X9837881Y52200500D01*
X9837873Y52200500D01*
X9837864Y52200500D01*
X7942129Y52200500D01*
X7942123Y52200499D01*
X7882516Y52194092D01*
X7747671Y52143798D01*
X7747664Y52143794D01*
X7632455Y52057548D01*
X7632452Y52057545D01*
X7546206Y51942336D01*
X7546202Y51942329D01*
X7495908Y51807483D01*
X7489501Y51747884D01*
X7489500Y51747865D01*
X7489500Y49852130D01*
X7489501Y49852124D01*
X7495908Y49792517D01*
X7546202Y49657672D01*
X7546206Y49657665D01*
X7632452Y49542456D01*
X7632455Y49542453D01*
X7747664Y49456207D01*
X7747671Y49456203D01*
X7777320Y49445145D01*
X7882517Y49405909D01*
X7942127Y49399500D01*
X8189301Y49399501D01*
X8256339Y49379817D01*
X8302094Y49327013D01*
X8313300Y49275501D01*
X8313300Y47031865D01*
X8312769Y47023764D01*
X8308324Y46990002D01*
X8308324Y46989998D01*
X8312625Y46957327D01*
X8312629Y46957296D01*
X8313300Y46952204D01*
X8313300Y46952203D01*
X8328144Y46839452D01*
X8328144Y46839451D01*
X8386252Y46699165D01*
X8386253Y46699163D01*
X8386254Y46699162D01*
X8478693Y46578693D01*
X8496562Y46564982D01*
X8505711Y46557961D01*
X8511806Y46552617D01*
X10034889Y45029534D01*
X11556981Y43507442D01*
X11590466Y43446119D01*
X11593300Y43419761D01*
X11593300Y40195865D01*
X11592769Y40187764D01*
X11588324Y40154002D01*
X11588324Y40153998D01*
X11592625Y40121327D01*
X11592632Y40121280D01*
X11608144Y40003452D01*
X11608144Y40003451D01*
X11666252Y39863165D01*
X11666253Y39863163D01*
X11666254Y39863162D01*
X11758693Y39742693D01*
X11775274Y39729970D01*
X11785711Y39721961D01*
X11791806Y39716617D01*
X13709332Y37799091D01*
X15612751Y35895672D01*
X15646236Y35834349D01*
X15644338Y35774062D01*
X15643051Y35769541D01*
X15623634Y35560001D01*
X15623634Y35560000D01*
X15643051Y35350463D01*
X15643051Y35350461D01*
X15643052Y35350458D01*
X15700641Y35148053D01*
X15700642Y35148050D01*
X15726388Y35096345D01*
X15794442Y34959675D01*
X15904411Y34814052D01*
X15921261Y34791740D01*
X16076776Y34649970D01*
X16076778Y34649968D01*
X16255692Y34539189D01*
X16255698Y34539186D01*
X16272797Y34532562D01*
X16451924Y34463168D01*
X16658780Y34424500D01*
X16658782Y34424500D01*
X16869217Y34424500D01*
X16869220Y34424500D01*
X17070519Y34462130D01*
X17140029Y34455099D01*
X17194708Y34411602D01*
X17217191Y34345448D01*
X17200339Y34277641D01*
X17180981Y34252560D01*
X17096326Y34167905D01*
X17035003Y34134420D01*
X16985861Y34133697D01*
X16931381Y34143881D01*
X16869220Y34155500D01*
X16658780Y34155500D01*
X16451924Y34116832D01*
X16451921Y34116832D01*
X16451921Y34116831D01*
X16255698Y34040815D01*
X16255692Y34040812D01*
X16076778Y33930033D01*
X16076776Y33930031D01*
X15921261Y33788261D01*
X15794442Y33620326D01*
X15700642Y33431951D01*
X15680089Y33359713D01*
X15643544Y33231269D01*
X15643051Y33229538D01*
X15623634Y33020001D01*
X15623634Y33020000D01*
X15643051Y32810463D01*
X15643051Y32810461D01*
X15643052Y32810458D01*
X15700641Y32608053D01*
X15700642Y32608050D01*
X15794442Y32419675D01*
X15921261Y32251740D01*
X16076776Y32109970D01*
X16076778Y32109968D01*
X16255692Y31999189D01*
X16255698Y31999186D01*
X16297268Y31983082D01*
X16451924Y31923168D01*
X16658780Y31884500D01*
X16658782Y31884500D01*
X16869217Y31884500D01*
X16869220Y31884500D01*
X16985863Y31906305D01*
X17055374Y31899274D01*
X17096326Y31872097D01*
X17180982Y31787441D01*
X17214467Y31726118D01*
X17209483Y31656426D01*
X17167611Y31600493D01*
X17102147Y31576076D01*
X17070518Y31577871D01*
X16869220Y31615500D01*
X16658780Y31615500D01*
X16451924Y31576832D01*
X16451921Y31576832D01*
X16451921Y31576831D01*
X16255698Y31500815D01*
X16255692Y31500812D01*
X16076778Y31390033D01*
X16076776Y31390031D01*
X15921261Y31248261D01*
X15794442Y31080326D01*
X15700642Y30891951D01*
X15680089Y30819713D01*
X15643544Y30691269D01*
X15643051Y30689538D01*
X15623634Y30480001D01*
X15623634Y30480000D01*
X15643051Y30270463D01*
X15643051Y30270461D01*
X15643052Y30270458D01*
X15700641Y30068053D01*
X15700642Y30068050D01*
X15794442Y29879675D01*
X15921261Y29711740D01*
X16076776Y29569970D01*
X16076778Y29569968D01*
X16255692Y29459189D01*
X16255698Y29459186D01*
X16297268Y29443082D01*
X16451924Y29383168D01*
X16658780Y29344500D01*
X16658782Y29344500D01*
X16869218Y29344500D01*
X16869220Y29344500D01*
X17076076Y29383168D01*
X17272304Y29459187D01*
X17451223Y29569969D01*
X17606740Y29711741D01*
X17733558Y29879675D01*
X17827359Y30068053D01*
X17884948Y30270458D01*
X17904365Y30480000D01*
X17897703Y30551889D01*
X17884948Y30689542D01*
X17884947Y30689544D01*
X17884456Y30691269D01*
X17858951Y30780909D01*
X17859539Y30850776D01*
X17897805Y30909235D01*
X17961603Y30937725D01*
X18030675Y30927201D01*
X18065899Y30902524D01*
X18436981Y30531442D01*
X18470466Y30470119D01*
X18473300Y30443761D01*
X18473300Y9602500D01*
X18453615Y9535461D01*
X18400811Y9489706D01*
X18349301Y9478500D01*
X18152130Y9478500D01*
X18152123Y9478499D01*
X18092516Y9472092D01*
X17957671Y9421798D01*
X17957664Y9421794D01*
X17842455Y9335548D01*
X17842452Y9335545D01*
X17756206Y9220336D01*
X17756203Y9220331D01*
X17707189Y9088917D01*
X17665317Y9032984D01*
X17599853Y9008567D01*
X17531580Y9023419D01*
X17503326Y9044570D01*
X17381402Y9166494D01*
X17381395Y9166499D01*
X17187834Y9302033D01*
X17187830Y9302035D01*
X17187829Y9302036D01*
X16973663Y9401903D01*
X16973659Y9401904D01*
X16973655Y9401906D01*
X16745413Y9463062D01*
X16745403Y9463064D01*
X16510001Y9483659D01*
X16509999Y9483659D01*
X16274596Y9463064D01*
X16274586Y9463062D01*
X16046344Y9401906D01*
X16046335Y9401902D01*
X15832171Y9302036D01*
X15832169Y9302035D01*
X15638597Y9166495D01*
X15471505Y8999403D01*
X15341575Y8813842D01*
X15286998Y8770217D01*
X15217500Y8763023D01*
X15155145Y8794546D01*
X15138425Y8813842D01*
X15008494Y8999403D01*
X14841402Y9166494D01*
X14841395Y9166499D01*
X14647834Y9302033D01*
X14647830Y9302035D01*
X14647830Y9302036D01*
X14433663Y9401903D01*
X14433659Y9401904D01*
X14433655Y9401906D01*
X14205413Y9463062D01*
X14205403Y9463064D01*
X13970001Y9483659D01*
X13969999Y9483659D01*
X13734596Y9463064D01*
X13734586Y9463062D01*
X13506344Y9401906D01*
X13506335Y9401902D01*
X13292171Y9302036D01*
X13292169Y9302035D01*
X13098597Y9166495D01*
X12931505Y8999403D01*
X12801575Y8813842D01*
X12746998Y8770217D01*
X12677500Y8763023D01*
X12615145Y8794546D01*
X12598425Y8813842D01*
X12468494Y8999403D01*
X12301402Y9166494D01*
X12301395Y9166499D01*
X12107834Y9302033D01*
X12107830Y9302035D01*
X12107830Y9302036D01*
X11893663Y9401903D01*
X11893659Y9401904D01*
X11893655Y9401906D01*
X11665413Y9463062D01*
X11665403Y9463064D01*
X11430001Y9483659D01*
X11429999Y9483659D01*
X11194596Y9463064D01*
X11194586Y9463062D01*
X10966344Y9401906D01*
X10966335Y9401902D01*
X10752171Y9302036D01*
X10752169Y9302035D01*
X10558597Y9166495D01*
X10391508Y8999406D01*
X10261574Y8813841D01*
X10206997Y8770216D01*
X10137498Y8763024D01*
X10075144Y8794546D01*
X10058424Y8813842D01*
X9928494Y8999403D01*
X9761402Y9166494D01*
X9761395Y9166499D01*
X9567834Y9302033D01*
X9567830Y9302035D01*
X9567829Y9302036D01*
X9353663Y9401903D01*
X9353659Y9401904D01*
X9353655Y9401906D01*
X9125413Y9463062D01*
X9125403Y9463064D01*
X8890001Y9483659D01*
X8889999Y9483659D01*
X8654596Y9463064D01*
X8654586Y9463062D01*
X8426344Y9401906D01*
X8426335Y9401902D01*
X8212171Y9302036D01*
X8212169Y9302035D01*
X8018597Y9166495D01*
X7851508Y8999406D01*
X7721269Y8813405D01*
X7666692Y8769781D01*
X7597193Y8762588D01*
X7534839Y8794110D01*
X7518119Y8813406D01*
X7388113Y8999074D01*
X7388108Y8999080D01*
X7221082Y9166106D01*
X7027578Y9301601D01*
X6813492Y9401430D01*
X6813486Y9401433D01*
X6600000Y9458636D01*
X6600000Y8563502D01*
X6492315Y8612680D01*
X6385763Y8628000D01*
X6314237Y8628000D01*
X6207685Y8612680D01*
X6099999Y8563502D01*
X6099999Y9458636D01*
X6099998Y9458636D01*
X5886505Y9401430D01*
X5672422Y9301601D01*
X5672420Y9301600D01*
X5478926Y9166114D01*
X5478920Y9166109D01*
X5311891Y8999080D01*
X5311886Y8999074D01*
X5176400Y8805580D01*
X5176399Y8805578D01*
X5076570Y8591493D01*
X5076567Y8591487D01*
X5019364Y8378001D01*
X5019364Y8378000D01*
X5916314Y8378000D01*
X5890507Y8337844D01*
X5850000Y8199889D01*
X5850000Y8056111D01*
X5890507Y7918156D01*
X5916314Y7878000D01*
X5019364Y7878000D01*
X3869010Y7878000D01*
X3828626Y8028715D01*
X3813905Y8083656D01*
X3813904Y8083657D01*
X3813903Y8083663D01*
X3714035Y8297829D01*
X3686017Y8337844D01*
X3578494Y8491403D01*
X3411402Y8658494D01*
X3411396Y8658499D01*
X3225842Y8788425D01*
X3182217Y8843002D01*
X3175023Y8912500D01*
X3206546Y8974855D01*
X3225842Y8991575D01*
X3284980Y9032984D01*
X3411401Y9121505D01*
X3578495Y9288599D01*
X3714035Y9482170D01*
X3813903Y9696337D01*
X3875063Y9924592D01*
X3895659Y10160000D01*
X3875063Y10395408D01*
X3813903Y10623663D01*
X3714035Y10837829D01*
X3578495Y11031401D01*
X3578494Y11031403D01*
X3411402Y11198494D01*
X3411401Y11198495D01*
X3225842Y11328425D01*
X3225841Y11328426D01*
X3182216Y11383003D01*
X3175024Y11452502D01*
X3206546Y11514856D01*
X3225836Y11531572D01*
X3411401Y11661505D01*
X3578495Y11828599D01*
X3714035Y12022170D01*
X3727807Y12051706D01*
X3773981Y12104145D01*
X3840190Y12123300D01*
X11642136Y12123300D01*
X11650234Y12122770D01*
X11671005Y12120035D01*
X11683999Y12118324D01*
X11684000Y12118324D01*
X11684001Y12118324D01*
X11734182Y12124931D01*
X11834549Y12138144D01*
X11974838Y12196254D01*
X12065062Y12265485D01*
X12065062Y12265486D01*
X12088000Y12283086D01*
X12088005Y12283090D01*
X12095305Y12288691D01*
X12095307Y12288693D01*
X12116043Y12315719D01*
X12121385Y12321810D01*
X16431674Y16632099D01*
X16492995Y16665582D01*
X16542133Y16666305D01*
X16658780Y16644500D01*
X16658782Y16644500D01*
X16869218Y16644500D01*
X16869220Y16644500D01*
X17076076Y16683168D01*
X17272304Y16759187D01*
X17451223Y16869969D01*
X17606740Y17011741D01*
X17733558Y17179675D01*
X17827359Y17368053D01*
X17884948Y17570458D01*
X17904365Y17780000D01*
X17884948Y17989542D01*
X17827359Y18191947D01*
X17733558Y18380325D01*
X17606740Y18548259D01*
X17451223Y18690031D01*
X17451221Y18690033D01*
X17272307Y18800812D01*
X17272301Y18800815D01*
X17117648Y18860727D01*
X17076076Y18876832D01*
X16869220Y18915500D01*
X16658780Y18915500D01*
X16451924Y18876832D01*
X16451921Y18876832D01*
X16451921Y18876831D01*
X16255698Y18800815D01*
X16255692Y18800812D01*
X16076778Y18690033D01*
X16076776Y18690031D01*
X15921261Y18548261D01*
X15794442Y18380326D01*
X15700642Y18191951D01*
X15680089Y18119713D01*
X15643544Y17991269D01*
X15643051Y17989538D01*
X15623634Y17780001D01*
X15623634Y17780000D01*
X15643051Y17570460D01*
X15644336Y17565946D01*
X15643750Y17496079D01*
X15612751Y17444330D01*
X11481442Y13313019D01*
X11420119Y13279534D01*
X11393761Y13276700D01*
X3840189Y13276700D01*
X3773150Y13296385D01*
X3727807Y13348296D01*
X3714037Y13377825D01*
X3714034Y13377831D01*
X3578494Y13571403D01*
X3411402Y13738494D01*
X3411396Y13738499D01*
X3225842Y13868425D01*
X3182217Y13923002D01*
X3175023Y13992500D01*
X3206546Y14054855D01*
X3225842Y14071575D01*
X3248026Y14087109D01*
X3411401Y14201505D01*
X3578495Y14368599D01*
X3714035Y14562170D01*
X3727807Y14591706D01*
X3773981Y14644145D01*
X3840190Y14663300D01*
X5243451Y14663300D01*
X5251549Y14662770D01*
X5272320Y14660035D01*
X5285314Y14658324D01*
X5285315Y14658324D01*
X5285316Y14658324D01*
X5335498Y14664931D01*
X5435864Y14678144D01*
X5576153Y14736254D01*
X5666377Y14805485D01*
X5666377Y14805486D01*
X5689315Y14823086D01*
X5689320Y14823090D01*
X5696620Y14828691D01*
X5696622Y14828693D01*
X5717358Y14855719D01*
X5722700Y14861810D01*
X8016442Y17155552D01*
X8077761Y17189034D01*
X8147453Y17184050D01*
X8163112Y17172379D01*
X8181545Y17171100D01*
X8759096Y17748651D01*
X8759051Y17748102D01*
X8790266Y17624838D01*
X8859813Y17518388D01*
X8960157Y17440287D01*
X9080422Y17399000D01*
X9116553Y17399000D01*
X8537887Y16820337D01*
X8635918Y16759638D01*
X8635920Y16759637D01*
X8832063Y16683652D01*
X9038829Y16645000D01*
X9249171Y16645000D01*
X9455935Y16683652D01*
X9455936Y16683652D01*
X9652079Y16759637D01*
X9652080Y16759638D01*
X9750110Y16820336D01*
X9750111Y16820337D01*
X9171448Y17399000D01*
X9175569Y17399000D01*
X9269421Y17414661D01*
X9381251Y17475180D01*
X9467371Y17568731D01*
X9518448Y17685177D01*
X9524105Y17753448D01*
X10106452Y17171101D01*
X10106453Y17171101D01*
X10113128Y17179939D01*
X10206888Y17368231D01*
X10264454Y17570556D01*
X10283862Y17780000D01*
X10283862Y17780001D01*
X10264454Y17989445D01*
X10206888Y18191770D01*
X10113130Y18380059D01*
X10113128Y18380063D01*
X10106453Y18388901D01*
X10106452Y18388902D01*
X9528903Y17811352D01*
X9528949Y17811898D01*
X9497734Y17935162D01*
X9428187Y18041612D01*
X9327843Y18119713D01*
X9207578Y18161000D01*
X9171447Y18161000D01*
X9750111Y18739665D01*
X9747416Y18762895D01*
X9744210Y18766471D01*
X9733106Y18835452D01*
X9761058Y18899487D01*
X9768431Y18907541D01*
X11138191Y20277301D01*
X11144281Y20282642D01*
X11171307Y20303378D01*
X11184061Y20320000D01*
X15623634Y20320000D01*
X15643051Y20110463D01*
X15643051Y20110461D01*
X15643052Y20110458D01*
X15650413Y20084587D01*
X15700642Y19908050D01*
X15794442Y19719675D01*
X15921261Y19551740D01*
X16076776Y19409970D01*
X16076778Y19409968D01*
X16255692Y19299189D01*
X16255698Y19299186D01*
X16297268Y19283082D01*
X16451924Y19223168D01*
X16658780Y19184500D01*
X16658782Y19184500D01*
X16869218Y19184500D01*
X16869220Y19184500D01*
X17076076Y19223168D01*
X17272304Y19299187D01*
X17451223Y19409969D01*
X17606740Y19551741D01*
X17733558Y19719675D01*
X17827359Y19908053D01*
X17884948Y20110458D01*
X17904365Y20320000D01*
X17884948Y20529542D01*
X17827359Y20731947D01*
X17733558Y20920325D01*
X17606740Y21088259D01*
X17451223Y21230031D01*
X17451221Y21230033D01*
X17272307Y21340812D01*
X17272301Y21340815D01*
X17117648Y21400727D01*
X17076076Y21416832D01*
X16869220Y21455500D01*
X16658780Y21455500D01*
X16451924Y21416832D01*
X16451921Y21416832D01*
X16451921Y21416831D01*
X16255698Y21340815D01*
X16255692Y21340812D01*
X16076778Y21230033D01*
X16076776Y21230031D01*
X15921261Y21088261D01*
X15794442Y20920326D01*
X15700642Y20731951D01*
X15695729Y20714684D01*
X15650412Y20555408D01*
X15643051Y20529538D01*
X15623634Y20320001D01*
X15623634Y20320000D01*
X11184061Y20320000D01*
X11220897Y20368005D01*
X11263747Y20423847D01*
X11321856Y20564136D01*
X11341676Y20714685D01*
X11339403Y20731947D01*
X11337231Y20748449D01*
X11336700Y20756550D01*
X11336700Y22860000D01*
X15623634Y22860000D01*
X15643051Y22650463D01*
X15643051Y22650461D01*
X15643052Y22650458D01*
X15700641Y22448053D01*
X15700642Y22448050D01*
X15794442Y22259675D01*
X15921261Y22091740D01*
X16076776Y21949970D01*
X16076778Y21949968D01*
X16255692Y21839189D01*
X16255698Y21839186D01*
X16297268Y21823082D01*
X16451924Y21763168D01*
X16658780Y21724500D01*
X16658782Y21724500D01*
X16869218Y21724500D01*
X16869220Y21724500D01*
X17076076Y21763168D01*
X17272304Y21839187D01*
X17451223Y21949969D01*
X17606740Y22091741D01*
X17733558Y22259675D01*
X17827359Y22448053D01*
X17884948Y22650458D01*
X17904365Y22860000D01*
X17884948Y23069542D01*
X17827359Y23271947D01*
X17733558Y23460325D01*
X17606740Y23628259D01*
X17451223Y23770031D01*
X17451221Y23770033D01*
X17272307Y23880812D01*
X17272301Y23880815D01*
X17078027Y23956076D01*
X17076076Y23956832D01*
X16869220Y23995500D01*
X16658780Y23995500D01*
X16451924Y23956832D01*
X16451921Y23956832D01*
X16451921Y23956831D01*
X16255698Y23880815D01*
X16255692Y23880812D01*
X16076778Y23770033D01*
X16076776Y23770031D01*
X15921261Y23628261D01*
X15794442Y23460326D01*
X15700642Y23271951D01*
X15700640Y23271947D01*
X15700641Y23271947D01*
X15650412Y23095408D01*
X15643051Y23069538D01*
X15623634Y22860001D01*
X15623634Y22860000D01*
X11336700Y22860000D01*
X11336700Y23742138D01*
X11337231Y23750239D01*
X11341676Y23784000D01*
X11341676Y23784002D01*
X11321856Y23934548D01*
X11321856Y23934549D01*
X11263746Y24074838D01*
X11194515Y24165062D01*
X11193260Y24166698D01*
X11193252Y24166708D01*
X11185121Y24177304D01*
X11171307Y24195307D01*
X11145832Y24214855D01*
X11144283Y24216044D01*
X11138180Y24221397D01*
X10295248Y25064329D01*
X10261763Y25125652D01*
X10263665Y25185952D01*
X10264948Y25190458D01*
X10284365Y25400000D01*
X15623634Y25400000D01*
X15643051Y25190463D01*
X15643051Y25190461D01*
X15643052Y25190458D01*
X15661491Y25125652D01*
X15700642Y24988050D01*
X15794442Y24799675D01*
X15921261Y24631740D01*
X16076776Y24489970D01*
X16076778Y24489968D01*
X16255692Y24379189D01*
X16255698Y24379186D01*
X16297268Y24363082D01*
X16451924Y24303168D01*
X16658780Y24264500D01*
X16658782Y24264500D01*
X16869218Y24264500D01*
X16869220Y24264500D01*
X17076076Y24303168D01*
X17272304Y24379187D01*
X17451223Y24489969D01*
X17606740Y24631741D01*
X17733558Y24799675D01*
X17827359Y24988053D01*
X17884948Y25190458D01*
X17904365Y25400000D01*
X17884948Y25609542D01*
X17827359Y25811947D01*
X17733558Y26000325D01*
X17606740Y26168259D01*
X17451223Y26310031D01*
X17451221Y26310033D01*
X17272307Y26420812D01*
X17272301Y26420815D01*
X17117648Y26480727D01*
X17076076Y26496832D01*
X16869220Y26535500D01*
X16658780Y26535500D01*
X16451924Y26496832D01*
X16451921Y26496832D01*
X16451921Y26496831D01*
X16255698Y26420815D01*
X16255692Y26420812D01*
X16076778Y26310033D01*
X16076776Y26310031D01*
X15921261Y26168261D01*
X15794442Y26000326D01*
X15700642Y25811951D01*
X15700640Y25811947D01*
X15700641Y25811947D01*
X15650412Y25635408D01*
X15643051Y25609538D01*
X15623634Y25400001D01*
X15623634Y25400000D01*
X10284365Y25400000D01*
X10264948Y25609542D01*
X10207359Y25811947D01*
X10113558Y26000325D01*
X9986740Y26168259D01*
X9831223Y26310031D01*
X9831221Y26310033D01*
X9652307Y26420812D01*
X9652301Y26420815D01*
X9497648Y26480727D01*
X9456076Y26496832D01*
X9249220Y26535500D01*
X9038780Y26535500D01*
X8831924Y26496832D01*
X8831921Y26496832D01*
X8831921Y26496831D01*
X8635698Y26420815D01*
X8635692Y26420812D01*
X8456778Y26310033D01*
X8456776Y26310031D01*
X8301261Y26168261D01*
X8174442Y26000326D01*
X8080642Y25811951D01*
X8080640Y25811947D01*
X8080641Y25811947D01*
X8030412Y25635408D01*
X8023051Y25609538D01*
X8003634Y25400001D01*
X8003634Y25400000D01*
X8023051Y25190463D01*
X8023051Y25190461D01*
X8023052Y25190458D01*
X8041491Y25125652D01*
X8080642Y24988050D01*
X8174442Y24799675D01*
X8301261Y24631740D01*
X8456776Y24489970D01*
X8456778Y24489968D01*
X8635692Y24379189D01*
X8635698Y24379186D01*
X8677268Y24363082D01*
X8831924Y24303168D01*
X9038780Y24264500D01*
X9038782Y24264500D01*
X9249217Y24264500D01*
X9249220Y24264500D01*
X9365863Y24286305D01*
X9435374Y24279274D01*
X9476326Y24252097D01*
X9560982Y24167441D01*
X9594467Y24106118D01*
X9589483Y24036426D01*
X9547611Y23980493D01*
X9482147Y23956076D01*
X9450518Y23957871D01*
X9249220Y23995500D01*
X9038780Y23995500D01*
X8831924Y23956832D01*
X8831921Y23956832D01*
X8831921Y23956831D01*
X8635698Y23880815D01*
X8635692Y23880812D01*
X8456778Y23770033D01*
X8456776Y23770031D01*
X8301261Y23628261D01*
X8174442Y23460326D01*
X8080642Y23271951D01*
X8080640Y23271947D01*
X8080641Y23271947D01*
X8030412Y23095408D01*
X8023051Y23069538D01*
X8003634Y22860001D01*
X8003634Y22860000D01*
X8023051Y22650460D01*
X8024336Y22645946D01*
X8023750Y22576079D01*
X7992751Y22524330D01*
X3905928Y18437506D01*
X3844605Y18404021D01*
X3774913Y18409005D01*
X3718980Y18450877D01*
X3716672Y18454064D01*
X3578494Y18651403D01*
X3411402Y18818494D01*
X3411396Y18818499D01*
X3225842Y18948425D01*
X3182217Y19003002D01*
X3175023Y19072500D01*
X3206546Y19134855D01*
X3225842Y19151575D01*
X3328090Y19223170D01*
X3411401Y19281505D01*
X3578495Y19448599D01*
X3714035Y19642170D01*
X3813903Y19856337D01*
X3875063Y20084592D01*
X3895659Y20320000D01*
X3875063Y20555408D01*
X3813903Y20783663D01*
X3714035Y20997829D01*
X3665485Y21067167D01*
X3578494Y21191403D01*
X3411402Y21358494D01*
X3411401Y21358495D01*
X3225842Y21488425D01*
X3225841Y21488426D01*
X3182216Y21543003D01*
X3175024Y21612502D01*
X3206546Y21674856D01*
X3225836Y21691572D01*
X3411401Y21821505D01*
X3578495Y21988599D01*
X3714035Y22182170D01*
X3813903Y22396337D01*
X3875063Y22624592D01*
X3895659Y22860000D01*
X3875063Y23095408D01*
X3827759Y23271951D01*
X3813905Y23323656D01*
X3813904Y23323657D01*
X3813903Y23323663D01*
X3714035Y23537829D01*
X3650715Y23628261D01*
X3578494Y23731403D01*
X3411402Y23898494D01*
X3411401Y23898495D01*
X3225405Y24028731D01*
X3181781Y24083308D01*
X3174588Y24152807D01*
X3206110Y24215161D01*
X3225405Y24231881D01*
X3411082Y24361895D01*
X3578105Y24528918D01*
X3713600Y24722422D01*
X3813429Y24936508D01*
X3813432Y24936514D01*
X3870636Y25150000D01*
X2973686Y25150000D01*
X2999493Y25190156D01*
X3040000Y25328111D01*
X3040000Y25471889D01*
X2999493Y25609844D01*
X2973686Y25650000D01*
X3870636Y25650000D01*
X3870635Y25650001D01*
X3813432Y25863487D01*
X3813429Y25863493D01*
X3713600Y26077578D01*
X3713599Y26077580D01*
X3578113Y26271074D01*
X3578108Y26271080D01*
X3411078Y26438110D01*
X3225405Y26568121D01*
X3181780Y26622698D01*
X3174588Y26692196D01*
X3206110Y26754551D01*
X3225406Y26771270D01*
X3225843Y26771576D01*
X3411401Y26901505D01*
X3578495Y27068599D01*
X3714035Y27262170D01*
X3813903Y27476337D01*
X3875063Y27704592D01*
X3895659Y27940000D01*
X8004138Y27940000D01*
X8023545Y27730556D01*
X8081111Y27528231D01*
X8174871Y27339938D01*
X8181545Y27331101D01*
X8759096Y27908650D01*
X8759051Y27908102D01*
X8790266Y27784838D01*
X8859813Y27678388D01*
X8960157Y27600287D01*
X9080422Y27559000D01*
X9116553Y27559000D01*
X8537887Y26980337D01*
X8635918Y26919638D01*
X8635920Y26919637D01*
X8832063Y26843652D01*
X9038829Y26805000D01*
X9249171Y26805000D01*
X9455935Y26843652D01*
X9455936Y26843652D01*
X9652079Y26919637D01*
X9652080Y26919638D01*
X9750110Y26980336D01*
X9750111Y26980337D01*
X9171448Y27559000D01*
X9175569Y27559000D01*
X9269421Y27574661D01*
X9381251Y27635180D01*
X9467371Y27728731D01*
X9518448Y27845177D01*
X9524105Y27913448D01*
X10106452Y27331101D01*
X10106453Y27331101D01*
X10113128Y27339939D01*
X10206888Y27528231D01*
X10264454Y27730556D01*
X10283862Y27940000D01*
X15623634Y27940000D01*
X15643051Y27730463D01*
X15643051Y27730461D01*
X15643052Y27730458D01*
X15700641Y27528053D01*
X15700642Y27528050D01*
X15794442Y27339675D01*
X15921261Y27171740D01*
X16076776Y27029970D01*
X16076778Y27029968D01*
X16255692Y26919189D01*
X16255698Y26919186D01*
X16297268Y26903082D01*
X16451924Y26843168D01*
X16658780Y26804500D01*
X16658782Y26804500D01*
X16869218Y26804500D01*
X16869220Y26804500D01*
X17076076Y26843168D01*
X17272304Y26919187D01*
X17451223Y27029969D01*
X17606740Y27171741D01*
X17733558Y27339675D01*
X17827359Y27528053D01*
X17884948Y27730458D01*
X17904365Y27940000D01*
X17884948Y28149542D01*
X17827359Y28351947D01*
X17733558Y28540325D01*
X17606740Y28708259D01*
X17451223Y28850031D01*
X17451221Y28850033D01*
X17272307Y28960812D01*
X17272301Y28960815D01*
X17117648Y29020727D01*
X17076076Y29036832D01*
X16869220Y29075500D01*
X16658780Y29075500D01*
X16451924Y29036832D01*
X16451921Y29036832D01*
X16451921Y29036831D01*
X16255698Y28960815D01*
X16255692Y28960812D01*
X16076778Y28850033D01*
X16076776Y28850031D01*
X15921261Y28708261D01*
X15794442Y28540326D01*
X15700642Y28351951D01*
X15680089Y28279713D01*
X15643544Y28151269D01*
X15643051Y28149538D01*
X15623634Y27940001D01*
X15623634Y27940000D01*
X10283862Y27940000D01*
X10283862Y27940001D01*
X10264454Y28149445D01*
X10206888Y28351770D01*
X10113130Y28540059D01*
X10113128Y28540063D01*
X10106453Y28548901D01*
X10106452Y28548902D01*
X9528903Y27971352D01*
X9528949Y27971898D01*
X9497734Y28095162D01*
X9428187Y28201612D01*
X9327843Y28279713D01*
X9207578Y28321000D01*
X9171448Y28321000D01*
X9750111Y28899665D01*
X9750110Y28899666D01*
X9652083Y28960362D01*
X9652077Y28960364D01*
X9455936Y29036349D01*
X9249171Y29075000D01*
X9038829Y29075000D01*
X8832064Y29036349D01*
X8832063Y29036349D01*
X8635923Y28960365D01*
X8537887Y28899665D01*
X9116553Y28321000D01*
X9112431Y28321000D01*
X9018579Y28305339D01*
X8906749Y28244820D01*
X8820629Y28151269D01*
X8769552Y28034823D01*
X8763894Y27966553D01*
X8181546Y28548901D01*
X8181545Y28548901D01*
X8174870Y28540061D01*
X8081111Y28351770D01*
X8023545Y28149445D01*
X8004138Y27940001D01*
X8004138Y27940000D01*
X3895659Y27940000D01*
X3875063Y28175408D01*
X3813903Y28403663D01*
X3714035Y28617829D01*
X3650715Y28708261D01*
X3578494Y28811403D01*
X3411402Y28978494D01*
X3411396Y28978499D01*
X3225842Y29108425D01*
X3182217Y29163002D01*
X3175023Y29232500D01*
X3206546Y29294855D01*
X3225842Y29311575D01*
X3328778Y29383652D01*
X3411401Y29441505D01*
X3578495Y29608599D01*
X3714035Y29802170D01*
X3813903Y30016337D01*
X3875063Y30244592D01*
X3895659Y30480000D01*
X8004138Y30480000D01*
X8023545Y30270556D01*
X8081111Y30068231D01*
X8174871Y29879938D01*
X8181545Y29871101D01*
X8759096Y30448650D01*
X8759051Y30448102D01*
X8790266Y30324838D01*
X8859813Y30218388D01*
X8960157Y30140287D01*
X9080422Y30099000D01*
X9116553Y30099000D01*
X8537887Y29520337D01*
X8635918Y29459638D01*
X8635920Y29459637D01*
X8832063Y29383652D01*
X9038829Y29345000D01*
X9249171Y29345000D01*
X9455935Y29383652D01*
X9455936Y29383652D01*
X9652079Y29459637D01*
X9652080Y29459638D01*
X9750110Y29520336D01*
X9750111Y29520337D01*
X9171448Y30099000D01*
X9175569Y30099000D01*
X9269421Y30114661D01*
X9381251Y30175180D01*
X9467371Y30268731D01*
X9518448Y30385177D01*
X9524105Y30453448D01*
X10106452Y29871101D01*
X10106453Y29871101D01*
X10113128Y29879939D01*
X10206888Y30068231D01*
X10264454Y30270556D01*
X10283862Y30480000D01*
X10283862Y30480001D01*
X10264454Y30689445D01*
X10206888Y30891770D01*
X10113130Y31080059D01*
X10113128Y31080063D01*
X10106453Y31088901D01*
X10106452Y31088902D01*
X9528903Y30511352D01*
X9528949Y30511898D01*
X9497734Y30635162D01*
X9428187Y30741612D01*
X9327843Y30819713D01*
X9207578Y30861000D01*
X9171448Y30861000D01*
X9750111Y31439665D01*
X9750110Y31439666D01*
X9652083Y31500362D01*
X9652077Y31500364D01*
X9455936Y31576349D01*
X9249171Y31615000D01*
X9038829Y31615000D01*
X8832064Y31576349D01*
X8832063Y31576349D01*
X8635923Y31500365D01*
X8537887Y31439665D01*
X9116553Y30861000D01*
X9112431Y30861000D01*
X9018579Y30845339D01*
X8906749Y30784820D01*
X8820629Y30691269D01*
X8769552Y30574823D01*
X8763894Y30506553D01*
X8181546Y31088901D01*
X8181545Y31088901D01*
X8174870Y31080061D01*
X8081111Y30891770D01*
X8023545Y30689445D01*
X8004138Y30480001D01*
X8004138Y30480000D01*
X3895659Y30480000D01*
X3875063Y30715408D01*
X3813903Y30943663D01*
X3714035Y31157829D01*
X3650715Y31248261D01*
X3578494Y31351403D01*
X3411402Y31518494D01*
X3411401Y31518495D01*
X3272864Y31615500D01*
X3225841Y31648426D01*
X3182216Y31703003D01*
X3175024Y31772502D01*
X3206546Y31834856D01*
X3225836Y31851572D01*
X3411401Y31981505D01*
X3578495Y32148599D01*
X3714035Y32342170D01*
X3813903Y32556337D01*
X3875063Y32784592D01*
X3895659Y33020000D01*
X8004138Y33020000D01*
X8023545Y32810556D01*
X8081111Y32608231D01*
X8174871Y32419938D01*
X8181545Y32411101D01*
X8759096Y32988651D01*
X8759051Y32988102D01*
X8790266Y32864838D01*
X8859813Y32758388D01*
X8960157Y32680287D01*
X9080422Y32639000D01*
X9116553Y32639000D01*
X8537887Y32060337D01*
X8635918Y31999638D01*
X8635920Y31999637D01*
X8832063Y31923652D01*
X9038829Y31885000D01*
X9249171Y31885000D01*
X9455935Y31923652D01*
X9455936Y31923652D01*
X9652079Y31999637D01*
X9652080Y31999638D01*
X9750110Y32060336D01*
X9750111Y32060337D01*
X9171448Y32639000D01*
X9175569Y32639000D01*
X9269421Y32654661D01*
X9381251Y32715180D01*
X9467371Y32808731D01*
X9518448Y32925177D01*
X9524105Y32993447D01*
X10106452Y32411101D01*
X10106453Y32411101D01*
X10113128Y32419939D01*
X10206888Y32608231D01*
X10264454Y32810556D01*
X10283862Y33020000D01*
X10283862Y33020001D01*
X10264454Y33229445D01*
X10206888Y33431770D01*
X10113130Y33620059D01*
X10113128Y33620063D01*
X10106453Y33628901D01*
X10106452Y33628902D01*
X9528903Y33051353D01*
X9528949Y33051898D01*
X9497734Y33175162D01*
X9428187Y33281612D01*
X9327843Y33359713D01*
X9207578Y33401000D01*
X9171446Y33401000D01*
X9750111Y33979665D01*
X9750110Y33979666D01*
X9652083Y34040362D01*
X9652077Y34040364D01*
X9455936Y34116349D01*
X9249171Y34155000D01*
X9038829Y34155000D01*
X8832064Y34116349D01*
X8832063Y34116349D01*
X8635923Y34040365D01*
X8537887Y33979665D01*
X9116551Y33401000D01*
X9112431Y33401000D01*
X9018579Y33385339D01*
X8906749Y33324820D01*
X8820629Y33231269D01*
X8769552Y33114823D01*
X8763894Y33046553D01*
X8181545Y33628901D01*
X8174870Y33620061D01*
X8081111Y33431770D01*
X8023545Y33229445D01*
X8004138Y33020001D01*
X8004138Y33020000D01*
X3895659Y33020000D01*
X3875063Y33255408D01*
X3813903Y33483663D01*
X3714035Y33697829D01*
X3650715Y33788261D01*
X3578494Y33891403D01*
X3411402Y34058494D01*
X3411396Y34058499D01*
X3225842Y34188425D01*
X3182217Y34243002D01*
X3175023Y34312500D01*
X3206546Y34374855D01*
X3225842Y34391575D01*
X3316563Y34455099D01*
X3411401Y34521505D01*
X3578495Y34688599D01*
X3714035Y34882170D01*
X3727807Y34911706D01*
X3773981Y34964145D01*
X3840190Y34983300D01*
X4022136Y34983300D01*
X4030234Y34982770D01*
X4051005Y34980035D01*
X4063999Y34978324D01*
X4064000Y34978324D01*
X4064001Y34978324D01*
X4114183Y34984931D01*
X4214549Y34998144D01*
X4354838Y35056254D01*
X4445062Y35125485D01*
X4445062Y35125486D01*
X4468000Y35143086D01*
X4468005Y35143090D01*
X4475305Y35148691D01*
X4475307Y35148693D01*
X4496043Y35175719D01*
X4501385Y35181810D01*
X4879575Y35560000D01*
X8004138Y35560000D01*
X8023545Y35350556D01*
X8081111Y35148231D01*
X8174871Y34959938D01*
X8181545Y34951101D01*
X8759096Y35528651D01*
X8759051Y35528102D01*
X8790266Y35404838D01*
X8859813Y35298388D01*
X8960157Y35220287D01*
X9080422Y35179000D01*
X9116553Y35179000D01*
X8537887Y34600337D01*
X8635918Y34539638D01*
X8635920Y34539637D01*
X8832063Y34463652D01*
X9038829Y34425000D01*
X9249171Y34425000D01*
X9455935Y34463652D01*
X9455936Y34463652D01*
X9652079Y34539637D01*
X9652080Y34539638D01*
X9750110Y34600336D01*
X9750111Y34600337D01*
X9171448Y35179000D01*
X9175569Y35179000D01*
X9269421Y35194661D01*
X9381251Y35255180D01*
X9467371Y35348731D01*
X9518448Y35465177D01*
X9524105Y35533447D01*
X10106452Y34951101D01*
X10106453Y34951101D01*
X10113128Y34959939D01*
X10206888Y35148231D01*
X10264454Y35350556D01*
X10283862Y35560000D01*
X10283862Y35560001D01*
X10264454Y35769445D01*
X10206888Y35971770D01*
X10113130Y36160059D01*
X10113128Y36160063D01*
X10106453Y36168901D01*
X10106452Y36168902D01*
X9528903Y35591353D01*
X9528949Y35591898D01*
X9497734Y35715162D01*
X9428187Y35821612D01*
X9327843Y35899713D01*
X9207578Y35941000D01*
X9171446Y35941000D01*
X9750111Y36519665D01*
X9750110Y36519666D01*
X9652083Y36580362D01*
X9652077Y36580364D01*
X9455936Y36656349D01*
X9249171Y36695000D01*
X9038829Y36695000D01*
X8832064Y36656349D01*
X8832063Y36656349D01*
X8635923Y36580365D01*
X8537887Y36519665D01*
X9116551Y35941000D01*
X9112431Y35941000D01*
X9018579Y35925339D01*
X8906749Y35864820D01*
X8820629Y35771269D01*
X8769552Y35654823D01*
X8763894Y35586553D01*
X8181545Y36168901D01*
X8174870Y36160061D01*
X8081111Y35971770D01*
X8023545Y35769445D01*
X8004138Y35560001D01*
X8004138Y35560000D01*
X4879575Y35560000D01*
X7842830Y38523255D01*
X7904151Y38556738D01*
X7973843Y38551754D01*
X8029776Y38509882D01*
X8054193Y38444418D01*
X8049776Y38401639D01*
X8023545Y38309447D01*
X8004138Y38100001D01*
X8004138Y38100000D01*
X8023545Y37890556D01*
X8081111Y37688231D01*
X8174871Y37499938D01*
X8181545Y37491101D01*
X8759096Y38068651D01*
X8759051Y38068102D01*
X8790266Y37944838D01*
X8859813Y37838388D01*
X8960157Y37760287D01*
X9080422Y37719000D01*
X9116553Y37719000D01*
X8537887Y37140337D01*
X8635918Y37079638D01*
X8635920Y37079637D01*
X8832063Y37003652D01*
X9038829Y36965000D01*
X9249171Y36965000D01*
X9455935Y37003652D01*
X9455936Y37003652D01*
X9652079Y37079637D01*
X9652080Y37079638D01*
X9750110Y37140336D01*
X9750111Y37140337D01*
X9171448Y37719000D01*
X9175569Y37719000D01*
X9269421Y37734661D01*
X9381251Y37795180D01*
X9467371Y37888731D01*
X9518448Y38005177D01*
X9524105Y38073448D01*
X10106452Y37491101D01*
X10106453Y37491101D01*
X10113128Y37499939D01*
X10206888Y37688231D01*
X10264454Y37890556D01*
X10283862Y38100000D01*
X10283862Y38100001D01*
X10264454Y38309445D01*
X10206888Y38511770D01*
X10113130Y38700059D01*
X10113128Y38700063D01*
X10106453Y38708901D01*
X10106452Y38708902D01*
X9528903Y38131352D01*
X9528949Y38131898D01*
X9497734Y38255162D01*
X9428187Y38361612D01*
X9327843Y38439713D01*
X9207578Y38481000D01*
X9171447Y38481000D01*
X9750111Y39059665D01*
X9750110Y39059666D01*
X9652083Y39120362D01*
X9652077Y39120364D01*
X9455936Y39196349D01*
X9249171Y39235000D01*
X9038829Y39235000D01*
X8836856Y39197245D01*
X8767341Y39204276D01*
X8712662Y39247774D01*
X8690180Y39313928D01*
X8707033Y39381735D01*
X8726386Y39406811D01*
X8811674Y39492099D01*
X8872995Y39525582D01*
X8922133Y39526305D01*
X9038780Y39504500D01*
X9038782Y39504500D01*
X9249218Y39504500D01*
X9249220Y39504500D01*
X9456076Y39543168D01*
X9652304Y39619187D01*
X9831223Y39729969D01*
X9986740Y39871741D01*
X10113558Y40039675D01*
X10207359Y40228053D01*
X10264948Y40430458D01*
X10284365Y40640000D01*
X10264948Y40849542D01*
X10207359Y41051947D01*
X10113558Y41240325D01*
X9986740Y41408259D01*
X9831223Y41550031D01*
X9831221Y41550033D01*
X9652307Y41660812D01*
X9652301Y41660815D01*
X9497648Y41720727D01*
X9456076Y41736832D01*
X9249220Y41775500D01*
X9038780Y41775500D01*
X8831924Y41736832D01*
X8831921Y41736832D01*
X8831921Y41736831D01*
X8635698Y41660815D01*
X8635692Y41660812D01*
X8456778Y41550033D01*
X8456776Y41550031D01*
X8301261Y41408261D01*
X8174442Y41240326D01*
X8080642Y41051951D01*
X8080640Y41051947D01*
X8080641Y41051947D01*
X8030412Y40875408D01*
X8023051Y40849538D01*
X8003634Y40640001D01*
X8003634Y40640000D01*
X8023051Y40430460D01*
X8024336Y40425946D01*
X8023750Y40356079D01*
X7992751Y40304330D01*
X3905928Y36217506D01*
X3844605Y36184021D01*
X3774913Y36189005D01*
X3718980Y36230877D01*
X3716672Y36234064D01*
X3578494Y36431403D01*
X3411402Y36598494D01*
X3411401Y36598495D01*
X3272864Y36695500D01*
X3225841Y36728426D01*
X3182216Y36783003D01*
X3175024Y36852502D01*
X3206546Y36914856D01*
X3225836Y36931572D01*
X3411401Y37061505D01*
X3578495Y37228599D01*
X3714035Y37422170D01*
X3813903Y37636337D01*
X3875063Y37864592D01*
X3895659Y38100000D01*
X3875063Y38335408D01*
X3813903Y38563663D01*
X3714035Y38777829D01*
X3650715Y38868261D01*
X3578494Y38971403D01*
X3411402Y39138494D01*
X3411396Y39138499D01*
X3225842Y39268425D01*
X3182217Y39323002D01*
X3175023Y39392500D01*
X3206546Y39454855D01*
X3225842Y39471575D01*
X3328090Y39543170D01*
X3411401Y39601505D01*
X3578495Y39768599D01*
X3714035Y39962170D01*
X3813903Y40176337D01*
X3875063Y40404592D01*
X3895659Y40640000D01*
X3875063Y40875408D01*
X3813903Y41103663D01*
X3714035Y41317829D01*
X3650715Y41408261D01*
X3578494Y41511403D01*
X3411402Y41678494D01*
X3411396Y41678499D01*
X3225842Y41808425D01*
X3182217Y41863002D01*
X3175023Y41932500D01*
X3206546Y41994855D01*
X3225842Y42011575D01*
X3248026Y42027109D01*
X3411401Y42141505D01*
X3578495Y42308599D01*
X3714035Y42502170D01*
X3813903Y42716337D01*
X3875063Y42944592D01*
X3895659Y43180000D01*
X3895398Y43182978D01*
X3878729Y43373504D01*
X3875063Y43415408D01*
X3813903Y43643663D01*
X3714035Y43857829D01*
X3712131Y43860549D01*
X3578494Y44051403D01*
X3411402Y44218494D01*
X3411396Y44218499D01*
X3225842Y44348425D01*
X3182217Y44403002D01*
X3175023Y44472500D01*
X3206546Y44534855D01*
X3225842Y44551575D01*
X3248026Y44567109D01*
X3411401Y44681505D01*
X3578495Y44848599D01*
X3714035Y45042170D01*
X3813903Y45256337D01*
X3875063Y45484592D01*
X3895659Y45720000D01*
X3889995Y45784732D01*
X3903761Y45853229D01*
X3952375Y45903413D01*
X4020404Y45919347D01*
X4086248Y45895973D01*
X4101204Y45883219D01*
X5912603Y44071820D01*
X5917956Y44065717D01*
X5928940Y44051403D01*
X5938693Y44038693D01*
X5968937Y44015486D01*
X5968938Y44015485D01*
X6059162Y43946253D01*
X6144955Y43910717D01*
X6199451Y43888144D01*
X6312203Y43873300D01*
X6349999Y43868324D01*
X6350000Y43868324D01*
X6350001Y43868324D01*
X6362994Y43870035D01*
X6383765Y43872770D01*
X6391864Y43873300D01*
X8279725Y43873300D01*
X8346764Y43853615D01*
X8367406Y43836981D01*
X8386170Y43818217D01*
X8539387Y43721944D01*
X8710185Y43662179D01*
X8710191Y43662179D01*
X8710193Y43662178D01*
X8889996Y43641919D01*
X8890000Y43641919D01*
X8890004Y43641919D01*
X9069806Y43662178D01*
X9069805Y43662178D01*
X9069815Y43662179D01*
X9240613Y43721944D01*
X9393830Y43818217D01*
X9521783Y43946170D01*
X9618056Y44099387D01*
X9677821Y44270185D01*
X9678630Y44277366D01*
X9698081Y44449997D01*
X9698081Y44450004D01*
X9677822Y44629807D01*
X9677821Y44629813D01*
X9677821Y44629815D01*
X9618056Y44800613D01*
X9521783Y44953830D01*
X9393830Y45081783D01*
X9324306Y45125468D01*
X9240612Y45178057D01*
X9069812Y45237822D01*
X9069806Y45237823D01*
X8890004Y45258081D01*
X8889996Y45258081D01*
X8710193Y45237823D01*
X8710187Y45237822D01*
X8539387Y45178057D01*
X8386169Y45081783D01*
X8367406Y45063019D01*
X8306083Y45029534D01*
X8279725Y45026700D01*
X6640239Y45026700D01*
X6573200Y45046385D01*
X6552558Y45063019D01*
X3865653Y47749924D01*
X3832168Y47811247D01*
X3833559Y47869699D01*
X3855645Y47952124D01*
X3875063Y48024592D01*
X3895659Y48260000D01*
X3875063Y48495408D01*
X3813903Y48723663D01*
X3714035Y48937829D01*
X3578495Y49131401D01*
X3578494Y49131403D01*
X3411402Y49298494D01*
X3411396Y49298499D01*
X3225842Y49428425D01*
X3182217Y49483002D01*
X3175023Y49552500D01*
X3206546Y49614855D01*
X3225842Y49631575D01*
X3263115Y49657674D01*
X3411401Y49761505D01*
X3578495Y49928599D01*
X3714035Y50122170D01*
X3813903Y50336337D01*
X3875063Y50564592D01*
X3895659Y50800000D01*
X3875063Y51035408D01*
X3813903Y51263663D01*
X3714035Y51477829D01*
X3584270Y51663153D01*
X3578496Y51671400D01*
X3578496Y51671401D01*
X3456567Y51793329D01*
X3423084Y51854649D01*
X3428068Y51924341D01*
X3469939Y51980275D01*
X3500915Y51997190D01*
X3632331Y52046204D01*
X3747546Y52132454D01*
X3833796Y52247669D01*
X3884091Y52382517D01*
X3890500Y52442127D01*
X3890499Y54237872D01*
X3884091Y54297483D01*
X3865653Y54346917D01*
X3833797Y54432329D01*
X3833793Y54432336D01*
X3747547Y54547545D01*
X3747544Y54547548D01*
X3632335Y54633794D01*
X3632328Y54633798D01*
X3497482Y54684092D01*
X3497483Y54684092D01*
X3437883Y54690499D01*
X3437881Y54690500D01*
X3437873Y54690500D01*
X3437864Y54690500D01*
X1642129Y54690500D01*
X1642123Y54690499D01*
X1582516Y54684092D01*
X1447671Y54633798D01*
X1447664Y54633794D01*
X1332455Y54547548D01*
X1332452Y54547545D01*
X1246206Y54432336D01*
X1246202Y54432329D01*
X1195908Y54297483D01*
X1192699Y54267628D01*
X1189501Y54237877D01*
X1189500Y54237865D01*
X1189500Y52442130D01*
X1189501Y52442124D01*
X1195908Y52382517D01*
X1246202Y52247672D01*
X1246206Y52247665D01*
X1332452Y52132456D01*
X1332455Y52132453D01*
X1447664Y52046207D01*
X1447671Y52046203D01*
X1579081Y51997190D01*
X1635015Y51955319D01*
X1659432Y51889855D01*
X1644580Y51821582D01*
X1623430Y51793327D01*
X1501503Y51671400D01*
X1365965Y51477831D01*
X1365964Y51477829D01*
X1266098Y51263665D01*
X1266094Y51263656D01*
X1204938Y51035414D01*
X1204936Y51035404D01*
X1184341Y50800001D01*
X1184341Y50800000D01*
X1204936Y50564597D01*
X1204938Y50564587D01*
X1266094Y50336345D01*
X1266096Y50336341D01*
X1266097Y50336337D01*
X1361777Y50131152D01*
X1365965Y50122170D01*
X1365967Y50122166D01*
X1463018Y49983564D01*
X1495725Y49936853D01*
X1501501Y49928605D01*
X1501506Y49928598D01*
X1668597Y49761507D01*
X1668603Y49761502D01*
X1854158Y49631575D01*
X1897783Y49576998D01*
X1904977Y49507500D01*
X1873454Y49445145D01*
X1854158Y49428425D01*
X1668597Y49298495D01*
X1501505Y49131403D01*
X1365965Y48937831D01*
X1365964Y48937829D01*
X1266098Y48723665D01*
X1266094Y48723656D01*
X1204938Y48495414D01*
X1204936Y48495404D01*
X1184341Y48260001D01*
X1184341Y48260000D01*
X1204936Y48024597D01*
X1204938Y48024587D01*
X1266094Y47796345D01*
X1266096Y47796341D01*
X1266097Y47796337D01*
X1287740Y47749924D01*
X1365965Y47582170D01*
X1365967Y47582166D01*
X1501501Y47388605D01*
X1501506Y47388598D01*
X1668597Y47221507D01*
X1668603Y47221502D01*
X1854158Y47091575D01*
X1897783Y47036998D01*
X1904977Y46967500D01*
X1873454Y46905145D01*
X1854158Y46888425D01*
X1668597Y46758495D01*
X1501505Y46591403D01*
X1365965Y46397831D01*
X1365964Y46397829D01*
X1266098Y46183665D01*
X1266094Y46183656D01*
X1204938Y45955414D01*
X1204936Y45955404D01*
X1184341Y45720001D01*
X1184341Y45720000D01*
X1204936Y45484597D01*
X1204938Y45484587D01*
X1266094Y45256345D01*
X1266096Y45256341D01*
X1266097Y45256337D01*
X1336370Y45105636D01*
X1365965Y45042170D01*
X1365967Y45042166D01*
X1501501Y44848605D01*
X1501506Y44848598D01*
X1668597Y44681507D01*
X1668603Y44681502D01*
X1854158Y44551575D01*
X1897783Y44496998D01*
X1904977Y44427500D01*
X1873454Y44365145D01*
X1854158Y44348425D01*
X1668597Y44218495D01*
X1501505Y44051403D01*
X1365965Y43857831D01*
X1365964Y43857829D01*
X1266098Y43643665D01*
X1266094Y43643656D01*
X1204938Y43415414D01*
X1204936Y43415404D01*
X1184341Y43180001D01*
X1184341Y43180000D01*
X1204936Y42944597D01*
X1204938Y42944587D01*
X1266094Y42716345D01*
X1266096Y42716341D01*
X1266097Y42716337D01*
X1365964Y42502170D01*
X1365965Y42502170D01*
X1365967Y42502166D01*
X1501501Y42308605D01*
X1501506Y42308598D01*
X1668597Y42141507D01*
X1668603Y42141502D01*
X1854158Y42011575D01*
X1897783Y41956998D01*
X1904977Y41887500D01*
X1873454Y41825145D01*
X1854158Y41808425D01*
X1668597Y41678495D01*
X1501505Y41511403D01*
X1365965Y41317831D01*
X1365964Y41317829D01*
X1266098Y41103665D01*
X1266094Y41103656D01*
X1204938Y40875414D01*
X1204936Y40875404D01*
X1184341Y40640001D01*
X1184341Y40640000D01*
X1204936Y40404597D01*
X1204938Y40404587D01*
X1266094Y40176345D01*
X1266096Y40176341D01*
X1266097Y40176337D01*
X1276512Y40154002D01*
X1365965Y39962170D01*
X1365967Y39962166D01*
X1501501Y39768605D01*
X1501506Y39768598D01*
X1668597Y39601507D01*
X1668603Y39601502D01*
X1854158Y39471575D01*
X1897783Y39416998D01*
X1904977Y39347500D01*
X1873454Y39285145D01*
X1854158Y39268425D01*
X1668597Y39138495D01*
X1501505Y38971403D01*
X1365965Y38777831D01*
X1365964Y38777829D01*
X1266098Y38563665D01*
X1266094Y38563656D01*
X1204938Y38335414D01*
X1204936Y38335404D01*
X1184341Y38100001D01*
X1184341Y38100000D01*
X1204936Y37864597D01*
X1204938Y37864587D01*
X1266094Y37636345D01*
X1266096Y37636341D01*
X1266097Y37636337D01*
X1329701Y37499939D01*
X1365965Y37422170D01*
X1365967Y37422166D01*
X1501501Y37228605D01*
X1501506Y37228598D01*
X1668597Y37061507D01*
X1668603Y37061502D01*
X1854158Y36931575D01*
X1897783Y36876998D01*
X1904977Y36807500D01*
X1873454Y36745145D01*
X1854158Y36728425D01*
X1668597Y36598495D01*
X1501505Y36431403D01*
X1365965Y36237831D01*
X1365964Y36237829D01*
X1266098Y36023665D01*
X1266094Y36023656D01*
X1204938Y35795414D01*
X1204936Y35795404D01*
X1184341Y35560001D01*
X1184341Y35560000D01*
X1204936Y35324597D01*
X1204938Y35324587D01*
X1266094Y35096345D01*
X1266096Y35096341D01*
X1266097Y35096337D01*
X1329701Y34959939D01*
X1365965Y34882170D01*
X1365967Y34882166D01*
X1501501Y34688605D01*
X1501506Y34688598D01*
X1668597Y34521507D01*
X1668603Y34521502D01*
X1854158Y34391575D01*
X1897783Y34336998D01*
X1904977Y34267500D01*
X1873454Y34205145D01*
X1854158Y34188425D01*
X1668597Y34058495D01*
X1501505Y33891403D01*
X1365965Y33697831D01*
X1365964Y33697829D01*
X1266098Y33483665D01*
X1266094Y33483656D01*
X1204938Y33255414D01*
X1204936Y33255404D01*
X1184341Y33020001D01*
X1184341Y33020000D01*
X1204936Y32784597D01*
X1204938Y32784587D01*
X1266094Y32556345D01*
X1266096Y32556341D01*
X1266097Y32556337D01*
X1329701Y32419939D01*
X1365965Y32342170D01*
X1365967Y32342166D01*
X1501501Y32148605D01*
X1501506Y32148598D01*
X1668597Y31981507D01*
X1668603Y31981502D01*
X1854158Y31851575D01*
X1897783Y31796998D01*
X1904977Y31727500D01*
X1873454Y31665145D01*
X1854158Y31648425D01*
X1668597Y31518495D01*
X1501505Y31351403D01*
X1365965Y31157831D01*
X1365964Y31157829D01*
X1266098Y30943665D01*
X1266094Y30943656D01*
X1204938Y30715414D01*
X1204936Y30715404D01*
X1184341Y30480001D01*
X1184341Y30480000D01*
X1204936Y30244597D01*
X1204938Y30244587D01*
X1266094Y30016345D01*
X1266096Y30016341D01*
X1266097Y30016337D01*
X1329701Y29879939D01*
X1365965Y29802170D01*
X1365967Y29802166D01*
X1501501Y29608605D01*
X1501506Y29608598D01*
X1668597Y29441507D01*
X1668603Y29441502D01*
X1854158Y29311575D01*
X1897783Y29256998D01*
X1904977Y29187500D01*
X1873454Y29125145D01*
X1854158Y29108425D01*
X1668597Y28978495D01*
X1501505Y28811403D01*
X1365965Y28617831D01*
X1365964Y28617829D01*
X1266098Y28403665D01*
X1266094Y28403656D01*
X1204938Y28175414D01*
X1204936Y28175404D01*
X1184341Y27940001D01*
X1184341Y27940000D01*
X1204936Y27704597D01*
X1204938Y27704587D01*
X1266094Y27476345D01*
X1266096Y27476341D01*
X1266097Y27476337D01*
X1329701Y27339939D01*
X1365965Y27262170D01*
X1365967Y27262166D01*
X1474281Y27107479D01*
X1501505Y27068599D01*
X1668599Y26901505D01*
X1807136Y26804500D01*
X1854594Y26771270D01*
X1898219Y26716693D01*
X1905413Y26647195D01*
X1873890Y26584840D01*
X1854595Y26568120D01*
X1668922Y26438110D01*
X1668920Y26438109D01*
X1501891Y26271080D01*
X1501886Y26271074D01*
X1366400Y26077580D01*
X1366399Y26077578D01*
X1266570Y25863493D01*
X1266567Y25863487D01*
X1209364Y25650001D01*
X1209364Y25650000D01*
X2106314Y25650000D01*
X2080507Y25609844D01*
X2040000Y25471889D01*
X2040000Y25328111D01*
X2080507Y25190156D01*
X2106314Y25150000D01*
X1209364Y25150000D01*
X1266567Y24936514D01*
X1266570Y24936508D01*
X1366399Y24722422D01*
X1501894Y24528918D01*
X1668917Y24361895D01*
X1854595Y24231881D01*
X1898219Y24177304D01*
X1905412Y24107805D01*
X1873890Y24045451D01*
X1854595Y24028731D01*
X1668594Y23898492D01*
X1501505Y23731403D01*
X1365965Y23537831D01*
X1365964Y23537829D01*
X1266098Y23323665D01*
X1266094Y23323656D01*
X1204938Y23095414D01*
X1204936Y23095404D01*
X1184341Y22860001D01*
X1184341Y22860000D01*
X1204936Y22624597D01*
X1204938Y22624587D01*
X1266094Y22396345D01*
X1266096Y22396341D01*
X1266097Y22396337D01*
X1329824Y22259675D01*
X1365965Y22182170D01*
X1365967Y22182166D01*
X1436292Y22081733D01*
X1498269Y21993220D01*
X1501501Y21988605D01*
X1501506Y21988598D01*
X1668597Y21821507D01*
X1668603Y21821502D01*
X1854158Y21691575D01*
X1897783Y21636998D01*
X1904977Y21567500D01*
X1873454Y21505145D01*
X1854158Y21488425D01*
X1668597Y21358495D01*
X1501505Y21191403D01*
X1365965Y20997831D01*
X1365964Y20997829D01*
X1266098Y20783665D01*
X1266094Y20783656D01*
X1204938Y20555414D01*
X1204936Y20555404D01*
X1184341Y20320001D01*
X1184341Y20320000D01*
X1204936Y20084597D01*
X1204938Y20084587D01*
X1266094Y19856345D01*
X1266096Y19856341D01*
X1266097Y19856337D01*
X1329824Y19719675D01*
X1365965Y19642170D01*
X1365967Y19642166D01*
X1501501Y19448605D01*
X1501506Y19448598D01*
X1668597Y19281507D01*
X1668603Y19281502D01*
X1854158Y19151575D01*
X1897783Y19096998D01*
X1904977Y19027500D01*
X1873454Y18965145D01*
X1854158Y18948425D01*
X1668597Y18818495D01*
X1501505Y18651403D01*
X1365965Y18457831D01*
X1365964Y18457829D01*
X1266098Y18243665D01*
X1266094Y18243656D01*
X1204938Y18015414D01*
X1204936Y18015404D01*
X1184341Y17780001D01*
X1184341Y17780000D01*
X1204936Y17544597D01*
X1204938Y17544587D01*
X1266094Y17316345D01*
X1266096Y17316341D01*
X1266097Y17316337D01*
X1327784Y17184050D01*
X1365965Y17102170D01*
X1365967Y17102166D01*
X1501501Y16908605D01*
X1501506Y16908598D01*
X1668597Y16741507D01*
X1668603Y16741502D01*
X1854158Y16611575D01*
X1897783Y16556998D01*
X1904977Y16487500D01*
X1873454Y16425145D01*
X1854158Y16408425D01*
X1668597Y16278495D01*
X1501505Y16111403D01*
X1365965Y15917831D01*
X1365964Y15917829D01*
X1266098Y15703665D01*
X1266094Y15703656D01*
X1204938Y15475414D01*
X1204936Y15475404D01*
X1184341Y15240001D01*
X1184341Y15240000D01*
X1204936Y15004597D01*
X1204938Y15004587D01*
X1266094Y14776345D01*
X1266096Y14776341D01*
X1266097Y14776337D01*
X1352192Y14591706D01*
X1365965Y14562170D01*
X1365967Y14562166D01*
X1501501Y14368605D01*
X1501506Y14368598D01*
X1668597Y14201507D01*
X1668603Y14201502D01*
X1854158Y14071575D01*
X1897783Y14016998D01*
X1904977Y13947500D01*
X1873454Y13885145D01*
X1854158Y13868425D01*
X1668597Y13738495D01*
X1501505Y13571403D01*
X1365965Y13377831D01*
X1365964Y13377829D01*
X1266098Y13163665D01*
X1266094Y13163656D01*
X1204938Y12935414D01*
X1204936Y12935404D01*
X1184341Y12700001D01*
X1184341Y12700000D01*
X1204936Y12464597D01*
X1204938Y12464587D01*
X1266094Y12236345D01*
X1266096Y12236341D01*
X1266097Y12236337D01*
X1352192Y12051706D01*
X1365965Y12022170D01*
X1365967Y12022166D01*
X1501501Y11828605D01*
X1501506Y11828598D01*
X1668597Y11661507D01*
X1668603Y11661502D01*
X1854158Y11531575D01*
X1897783Y11476998D01*
X1904977Y11407500D01*
X1873454Y11345145D01*
X1854158Y11328425D01*
X1668597Y11198495D01*
X1501505Y11031403D01*
X1365965Y10837831D01*
X1365964Y10837829D01*
X1266098Y10623665D01*
X1266094Y10623656D01*
X1204938Y10395414D01*
X1204936Y10395404D01*
X1184341Y10160001D01*
X1184341Y10160000D01*
X1204936Y9924597D01*
X1204938Y9924587D01*
X1266094Y9696345D01*
X1266096Y9696341D01*
X1266097Y9696337D01*
X1309854Y9602500D01*
X1365965Y9482170D01*
X1365967Y9482166D01*
X1468631Y9335548D01*
X1492098Y9302033D01*
X1501501Y9288605D01*
X1501506Y9288598D01*
X1668597Y9121507D01*
X1668603Y9121502D01*
X1854158Y8991575D01*
X1897783Y8936998D01*
X1904977Y8867500D01*
X1873454Y8805145D01*
X1854158Y8788425D01*
X1668597Y8658495D01*
X1501505Y8491403D01*
X1365965Y8297831D01*
X1365964Y8297829D01*
X1266098Y8083665D01*
X1266094Y8083656D01*
X1204938Y7855414D01*
X1204936Y7855404D01*
X1184341Y7620001D01*
X1184341Y7620000D01*
X1204936Y7384597D01*
X1204938Y7384587D01*
X1266094Y7156345D01*
X1266096Y7156341D01*
X1266097Y7156337D01*
X1360464Y6953966D01*
X1365965Y6942170D01*
X1365967Y6942166D01*
X1501501Y6748605D01*
X1501506Y6748598D01*
X1668597Y6581507D01*
X1668603Y6581502D01*
X1854158Y6451575D01*
X1897783Y6396998D01*
X1904977Y6327500D01*
X1873454Y6265145D01*
X1854158Y6248425D01*
X1668597Y6118495D01*
X1501505Y5951403D01*
X1365965Y5757831D01*
X1365964Y5757829D01*
X1266098Y5543665D01*
X1266094Y5543656D01*
X1204938Y5315414D01*
X1204936Y5315404D01*
X1184341Y5080001D01*
X1184341Y5080000D01*
X300500Y5080000D01*
X300500Y56385295D01*
X300736Y56390701D01*
X314283Y56545544D01*
X318034Y56566822D01*
X356161Y56709116D01*
X363553Y56729421D01*
X425802Y56862915D01*
X436609Y56881634D01*
X521100Y57002300D01*
X534988Y57018852D01*
X639148Y57123012D01*
X655700Y57136900D01*
X776366Y57221391D01*
X795085Y57232198D01*
X928579Y57294447D01*
X948884Y57301839D01*
X1091178Y57339966D01*
X1112451Y57343717D01*
X1267305Y57357265D01*
X1272706Y57357500D01*
X1317595Y57357500D01*
X24082405Y57357500D01*
X24127294Y57357500D01*
X24132694Y57357265D01*
G37*
%TD.AperFunction*%
M02*
